<?xml version="1.0" encoding="UTF-8" standalone="no"?>
<!DOCTYPE svg PUBLIC "-//W3C//DTD SVG 1.1//EN"
 "http://www.w3.org/Graphics/SVG/1.1/DTD/svg11.dtd">
<!-- Generated by graphviz version 2.26.3 (20100126.1600)
 -->
<!-- Title: lisa Pages: 1 -->
<svg width="334pt" height="153pt"
 viewBox="0.00 0.00 334.00 153.00" xmlns="http://www.w3.org/2000/svg" xmlns:xlink="http://www.w3.org/1999/xlink">
<g id="graph1" class="graph" transform="scale(1 1) rotate(0) translate(4 149)">
<title>lisa</title>
<polygon fill="white" stroke="white" points="-4,5 -4,-149 331,-149 331,5 -4,5"/>
<!-- s -->
<g id="node1" class="node"><title>s</title>
<ellipse fill="none" stroke="black" cx="307" cy="-45" rx="17.8879" ry="18.3848"/>
<text text-anchor="middle" x="307" y="-41.4" font-family="Times Roman,serif" font-size="14.00">s</text>
</g>
<!-- p -->
<g id="node2" class="node"><title>p</title>
<ellipse fill="none" stroke="black" cx="225" cy="-72" rx="17.8879" ry="18.3848"/>
<text text-anchor="middle" x="225" y="-68.4" font-family="Times Roman,serif" font-size="14.00">p</text>
</g>
<!-- s&#45;&#45;p -->
<g id="edge4" class="edge"><title>s&#45;&#45;p</title>
<path fill="none" stroke="black" d="M289.207,-50.8586C275.453,-55.3874 256.503,-61.6269 242.758,-66.1528"/>
</g>
<!-- LISA -->
<g id="node4" class="node"><title>LISA</title>
<text text-anchor="middle" x="225" y="-14.4" font-family="Times Roman,serif" font-size="14.00">LISA</text>
</g>
<!-- s&#45;&#45;LISA -->
<g id="edge2" class="edge"><title>s&#45;&#45;LISA</title>
<path fill="none" stroke="black" d="M289.207,-39.1414C278.373,-35.5742 264.316,-30.9456 252.118,-26.9291"/>
</g>
<!-- m -->
<g id="node3" class="node"><title>m</title>
<ellipse fill="none" stroke="black" cx="130" cy="-100" rx="20.0059" ry="20.5061"/>
<text text-anchor="middle" x="130" y="-96.4" font-family="Times Roman,serif" font-size="14.00">m</text>
</g>
<!-- p&#45;&#45;m -->
<g id="edge8" class="edge"><title>p&#45;&#45;m</title>
<path fill="none" stroke="black" d="M207.131,-77.2666C190.792,-82.0824 166.664,-89.1939 149.756,-94.1771"/>
</g>
<!-- WRITE -->
<g id="node5" class="node"><title>WRITE</title>
<text text-anchor="middle" x="130" y="-40.4" font-family="Times Roman,serif" font-size="14.00">WRITE</text>
</g>
<!-- p&#45;&#45;WRITE -->
<g id="edge6" class="edge"><title>p&#45;&#45;WRITE</title>
<path fill="none" stroke="black" d="M207.131,-66.7334C194.447,-62.9948 177.068,-57.8727 162.018,-53.4368"/>
</g>
<!-- GOOD -->
<g id="node6" class="node"><title>GOOD</title>
<text text-anchor="middle" x="31" y="-123.4" font-family="Times Roman,serif" font-size="14.00">GOOD</text>
</g>
<!-- m&#45;&#45;GOOD -->
<g id="edge10" class="edge"><title>m&#45;&#45;GOOD</title>
<path fill="none" stroke="black" d="M109.966,-105.464C96.2928,-109.193 77.9038,-114.208 62.3115,-118.461"/>
</g>
<!-- CODE -->
<g id="node7" class="node"><title>CODE</title>
<text text-anchor="middle" x="31" y="-69.4" font-family="Times Roman,serif" font-size="14.00">CODE</text>
</g>
<!-- m&#45;&#45;CODE -->
<g id="edge12" class="edge"><title>m&#45;&#45;CODE</title>
<path fill="none" stroke="black" d="M109.966,-94.5361C95.6148,-90.6222 76.0685,-85.2914 60.0135,-80.9128"/>
</g>
</g>
</svg>
