<?xml version="1.0" encoding="UTF-8" standalone="no"?>
<!DOCTYPE svg PUBLIC "-//W3C//DTD SVG 1.1//EN"
 "http://www.w3.org/Graphics/SVG/1.1/DTD/svg11.dtd">
<!-- Generated by graphviz version 2.26.3 (20100126.1600)
 -->
<!-- Title: lisa Pages: 1 -->
<svg width="145pt" height="188pt"
 viewBox="0.00 0.00 145.00 188.00" xmlns="http://www.w3.org/2000/svg" xmlns:xlink="http://www.w3.org/1999/xlink">
<g id="graph1" class="graph" transform="scale(1 1) rotate(0) translate(4 184)">
<title>lisa</title>
<polygon fill="white" stroke="white" points="-4,5 -4,-184 142,-184 142,5 -4,5"/>
<!-- write -->
<g id="node1" class="node"><title>write</title>
<text text-anchor="middle" x="50" y="-158.4" font-family="Times Roman,serif" font-size="14.00">write</text>
</g>
<!-- Lisa -->
<g id="node2" class="node"><title>Lisa</title>
<text text-anchor="middle" x="27" y="-86.4" font-family="Times Roman,serif" font-size="14.00">Lisa</text>
</g>
<!-- write&#45;&#45;Lisa -->
<g id="edge2" class="edge"><title>write&#45;&#45;Lisa</title>
<path fill="none" stroke="black" d="M44.1961,-143.831C40.7361,-133 36.3558,-119.288 32.882,-108.413"/>
</g>
<!-- dot -->
<g id="node5" class="node"><title>dot</title>
<ellipse fill="black" stroke="black" cx="74" cy="-90" rx="1.8" ry="1.8"/>
</g>
<!-- write&#45;&#45;dot -->
<g id="edge4" class="edge"><title>write&#45;&#45;dot</title>
<path fill="none" stroke="black" d="M56.0562,-143.831C62.1662,-125.501 71.0266,-98.9202 73.3977,-91.8068"/>
</g>
<!-- code -->
<g id="node3" class="node"><title>code</title>
<text text-anchor="middle" x="38" y="-14.4" font-family="Times Roman,serif" font-size="14.00">code</text>
</g>
<!-- good -->
<g id="node4" class="node"><title>good</title>
<text text-anchor="middle" x="110" y="-14.4" font-family="Times Roman,serif" font-size="14.00">good</text>
</g>
<!-- dot&#45;&#45;code -->
<g id="edge8" class="edge"><title>dot&#45;&#45;code</title>
<path fill="none" stroke="black" d="M73.1101,-88.2202C69.5803,-81.1607 56.3115,-54.623 47.1367,-36.2734"/>
</g>
<!-- dot&#45;&#45;good -->
<g id="edge6" class="edge"><title>dot&#45;&#45;good</title>
<path fill="none" stroke="black" d="M74.8899,-88.2202C78.4197,-81.1607 91.6885,-54.623 100.863,-36.2734"/>
</g>
</g>
</svg>
