<?xml version="1.0" encoding="UTF-8" standalone="no"?>
<!DOCTYPE svg PUBLIC "-//W3C//DTD SVG 1.1//EN"
 "http://www.w3.org/Graphics/SVG/1.1/DTD/svg11.dtd">
<!-- Generated by graphviz version 2.26.3 (20100126.1600)
 -->
<!-- Title: lisa Pages: 1 -->
<svg width="196pt" height="192pt"
 viewBox="0.00 0.00 196.00 192.00" xmlns="http://www.w3.org/2000/svg" xmlns:xlink="http://www.w3.org/1999/xlink">
<g id="graph1" class="graph" transform="scale(1 1) rotate(0) translate(4 188)">
<title>lisa</title>
<polygon fill="white" stroke="white" points="-4,5 -4,-188 193,-188 193,5 -4,5"/>
<!-- s -->
<g id="node1" class="node"><title>s</title>
<polygon fill="none" stroke="black" points="146,-184 92,-184 92,-148 146,-148 146,-184"/>
</g>
<!-- v -->
<g id="node2" class="node"><title>v</title>
<ellipse fill="none" stroke="black" cx="81" cy="-93" rx="27" ry="18"/>
</g>
<!-- s&#45;&#45;v -->
<g id="edge4" class="edge"><title>s&#45;&#45;v</title>
<path fill="none" stroke="black" d="M109.607,-147.955C103.629,-136.471 95.9287,-121.679 90.0235,-110.335"/>
</g>
<!-- Lisa -->
<g id="node4" class="node"><title>Lisa</title>
<ellipse fill="none" stroke="black" cx="157" cy="-93" rx="31.1127" ry="18.3848"/>
<text text-anchor="middle" x="157" y="-89.4" font-family="Times Roman,serif" font-size="14.00">Lisa</text>
</g>
<!-- s&#45;&#45;Lisa -->
<g id="edge2" class="edge"><title>s&#45;&#45;Lisa</title>
<path fill="none" stroke="black" d="M128.393,-147.955C134.283,-136.64 141.845,-122.113 147.715,-110.837"/>
</g>
<!-- write -->
<g id="node7" class="node"><title>write</title>
<ellipse fill="none" stroke="black" cx="37" cy="-19" rx="36.977" ry="18.3848"/>
<text text-anchor="middle" x="37" y="-15.4" font-family="Times Roman,serif" font-size="14.00">write</text>
</g>
<!-- v&#45;&#45;write -->
<g id="edge6" class="edge"><title>v&#45;&#45;write</title>
<path fill="none" stroke="black" d="M71.0157,-76.2083C64.0177,-64.4388 54.6798,-48.7343 47.5583,-36.7572"/>
</g>
<!-- code -->
<g id="node9" class="node"><title>code</title>
<ellipse fill="none" stroke="black" cx="126" cy="-19" rx="33.9411" ry="18.3848"/>
<text text-anchor="middle" x="126" y="-15.4" font-family="Times Roman,serif" font-size="14.00">code</text>
</g>
<!-- v&#45;&#45;code -->
<g id="edge8" class="edge"><title>v&#45;&#45;code</title>
<path fill="none" stroke="black" d="M91.2112,-76.2083C98.3683,-64.4388 107.918,-48.7343 115.202,-36.7572"/>
</g>
</g>
</svg>
