<?xml version="1.0" encoding="UTF-8" standalone="no"?>
<!DOCTYPE svg PUBLIC "-//W3C//DTD SVG 1.1//EN"
 "http://www.w3.org/Graphics/SVG/1.1/DTD/svg11.dtd">
<!-- Generated by graphviz version 2.26.3 (20100126.1600)
 -->
<!-- Title: lisa Pages: 1 -->
<svg width="171pt" height="160pt"
 viewBox="0.00 0.00 171.00 160.00" xmlns="http://www.w3.org/2000/svg" xmlns:xlink="http://www.w3.org/1999/xlink">
<g id="graph1" class="graph" transform="scale(1 1) rotate(0) translate(4 156)">
<title>lisa</title>
<polygon fill="white" stroke="white" points="-4,5 -4,-156 168,-156 168,5 -4,5"/>
<!-- s -->
<g id="node1" class="node"><title>s</title>
<ellipse fill="black" stroke="black" cx="106" cy="-150" rx="1.8" ry="1.8"/>
</g>
<!-- v -->
<g id="node2" class="node"><title>v</title>
<ellipse fill="black" stroke="black" cx="81" cy="-93" rx="1.8" ry="1.8"/>
</g>
<!-- s&#45;&#45;v -->
<g id="edge4" class="edge"><title>s&#45;&#45;v</title>
<path fill="none" stroke="black" d="M105.168,-148.104C101.373,-139.449 85.7155,-103.751 81.8606,-94.9621"/>
</g>
<!-- Lisa -->
<g id="node4" class="node"><title>Lisa</title>
<ellipse fill="none" stroke="black" cx="132" cy="-93" rx="31.1127" ry="18.3848"/>
<text text-anchor="middle" x="132" y="-89.4" font-family="Times Roman,serif" font-size="14.00">Lisa</text>
</g>
<!-- s&#45;&#45;Lisa -->
<g id="edge2" class="edge"><title>s&#45;&#45;Lisa</title>
<path fill="none" stroke="black" d="M106.865,-148.104C109.473,-142.386 117.467,-124.862 123.747,-111.094"/>
</g>
<!-- write -->
<g id="node7" class="node"><title>write</title>
<ellipse fill="none" stroke="black" cx="37" cy="-19" rx="36.977" ry="18.3848"/>
<text text-anchor="middle" x="37" y="-15.4" font-family="Times Roman,serif" font-size="14.00">write</text>
</g>
<!-- v&#45;&#45;write -->
<g id="edge6" class="edge"><title>v&#45;&#45;write</title>
<path fill="none" stroke="black" d="M79.9124,-91.1708C75.5188,-83.7816 58.7797,-55.6295 47.5531,-36.7484"/>
</g>
<!-- code -->
<g id="node9" class="node"><title>code</title>
<ellipse fill="none" stroke="black" cx="126" cy="-19" rx="33.9411" ry="18.3848"/>
<text text-anchor="middle" x="126" y="-15.4" font-family="Times Roman,serif" font-size="14.00">code</text>
</g>
<!-- v&#45;&#45;code -->
<g id="edge8" class="edge"><title>v&#45;&#45;code</title>
<path fill="none" stroke="black" d="M82.0142,-91.2087C83.9336,-87.8274 88.2422,-80.2797 92,-74 99.4935,-61.4773 108.144,-47.4899 114.844,-36.7547"/>
</g>
</g>
</svg>
