<?xml version="1.0" encoding="UTF-8" standalone="no"?>
<!DOCTYPE svg PUBLIC "-//W3C//DTD SVG 1.1//EN"
 "http://www.w3.org/Graphics/SVG/1.1/DTD/svg11.dtd">
<!-- Generated by graphviz version 2.26.3 (20100126.1600)
 -->
<!-- Title: lisa Pages: 1 -->
<svg width="201pt" height="270pt"
 viewBox="0.00 0.00 201.00 270.00" xmlns="http://www.w3.org/2000/svg" xmlns:xlink="http://www.w3.org/1999/xlink">
<g id="graph1" class="graph" transform="scale(1 1) rotate(0) translate(4 266)">
<title>lisa</title>
<polygon fill="white" stroke="white" points="-4,5 -4,-266 198,-266 198,5 -4,5"/>
<!-- LISA -->
<g id="node1" class="node"><title>LISA</title>
<text text-anchor="middle" x="27" y="-165.4" font-family="Times Roman,serif" font-size="14.00">LISA</text>
</g>
<!-- WRITE -->
<g id="node2" class="node"><title>WRITE</title>
<text text-anchor="middle" x="55" y="-89.4" font-family="Times Roman,serif" font-size="14.00">WRITE</text>
</g>
<!-- GOOD -->
<g id="node3" class="node"><title>GOOD</title>
<text text-anchor="middle" x="86" y="-14.4" font-family="Times Roman,serif" font-size="14.00">GOOD</text>
</g>
<!-- CODE -->
<g id="node4" class="node"><title>CODE</title>
<text text-anchor="middle" x="164" y="-14.4" font-family="Times Roman,serif" font-size="14.00">CODE</text>
</g>
<!-- s -->
<g id="node5" class="node"><title>s</title>
<ellipse fill="none" stroke="black" cx="58" cy="-243" rx="17.8879" ry="18.3848"/>
<text text-anchor="middle" x="58" y="-239.4" font-family="Times Roman,serif" font-size="14.00">s</text>
</g>
<!-- s&#45;&#45;LISA -->
<g id="edge2" class="edge"><title>s&#45;&#45;LISA</title>
<path fill="none" stroke="black" d="M50.8101,-225.837C45.945,-214.224 39.5293,-198.909 34.5835,-187.102"/>
</g>
<!-- p -->
<g id="node6" class="node"><title>p</title>
<ellipse fill="none" stroke="black" cx="90" cy="-169" rx="17.8879" ry="18.3848"/>
<text text-anchor="middle" x="90" y="-165.4" font-family="Times Roman,serif" font-size="14.00">p</text>
</g>
<!-- s&#45;&#45;p -->
<g id="edge4" class="edge"><title>s&#45;&#45;p</title>
<path fill="none" stroke="black" d="M65.4219,-225.837C70.5916,-213.882 77.4575,-198.004 82.6184,-186.07"/>
</g>
<!-- p&#45;&#45;WRITE -->
<g id="edge6" class="edge"><title>p&#45;&#45;WRITE</title>
<path fill="none" stroke="black" d="M82.2324,-152.133C76.6337,-139.976 69.0863,-123.587 63.357,-111.147"/>
</g>
<!-- m -->
<g id="node7" class="node"><title>m</title>
<ellipse fill="none" stroke="black" cx="125" cy="-93" rx="20.0059" ry="20.5061"/>
<text text-anchor="middle" x="125" y="-89.4" font-family="Times Roman,serif" font-size="14.00">m</text>
</g>
<!-- p&#45;&#45;m -->
<g id="edge8" class="edge"><title>p&#45;&#45;m</title>
<path fill="none" stroke="black" d="M97.7676,-152.133C103.286,-140.151 110.697,-124.058 116.395,-111.686"/>
</g>
<!-- m&#45;&#45;GOOD -->
<g id="edge10" class="edge"><title>m&#45;&#45;GOOD</title>
<path fill="none" stroke="black" d="M115.559,-74.8446C109.473,-63.1394 101.585,-47.9716 95.489,-36.2482"/>
</g>
<!-- m&#45;&#45;CODE -->
<g id="edge12" class="edge"><title>m&#45;&#45;CODE</title>
<path fill="none" stroke="black" d="M134.441,-74.8446C140.527,-63.1394 148.415,-47.9716 154.511,-36.2482"/>
</g>
</g>
</svg>
