<?xml version="1.0" encoding="UTF-8" standalone="no"?>
<!DOCTYPE svg PUBLIC "-//W3C//DTD SVG 1.1//EN"
 "http://www.w3.org/Graphics/SVG/1.1/DTD/svg11.dtd">
<!-- Generated by graphviz version 2.26.3 (20100126.1600)
 -->
<!-- Title: lisa Pages: 1 -->
<svg width="193pt" height="160pt"
 viewBox="0.00 0.00 193.00 160.00" xmlns="http://www.w3.org/2000/svg" xmlns:xlink="http://www.w3.org/1999/xlink">
<g id="graph1" class="graph" transform="scale(1 1) rotate(0) translate(4 156)">
<title>lisa</title>
<polygon fill="white" stroke="white" points="-4,5 -4,-156 190,-156 190,5 -4,5"/>
<!-- s -->
<g id="node1" class="node"><title>s</title>
<ellipse fill="black" stroke="black" cx="69" cy="-150" rx="1.8" ry="1.8"/>
</g>
<!-- Lisa -->
<g id="node3" class="node"><title>Lisa</title>
<ellipse fill="none" stroke="black" cx="31" cy="-93" rx="31.1127" ry="18.3848"/>
<text text-anchor="middle" x="31" y="-89.4" font-family="Times Roman,serif" font-size="14.00">Lisa</text>
</g>
<!-- s&#45;&#45;Lisa -->
<g id="edge2" class="edge"><title>s&#45;&#45;Lisa</title>
<path fill="none" stroke="black" d="M67.7357,-148.104C63.8465,-142.27 51.7644,-124.147 42.5076,-110.261"/>
</g>
<!-- v -->
<g id="node5" class="node"><title>v</title>
<ellipse fill="none" stroke="black" cx="107" cy="-93" rx="27" ry="18.3848"/>
<text text-anchor="middle" x="107" y="-89.4" font-family="Times Roman,serif" font-size="14.00">v</text>
</g>
<!-- s&#45;&#45;v -->
<g id="edge4" class="edge"><title>s&#45;&#45;v</title>
<path fill="none" stroke="black" d="M70.2643,-148.104C74.1793,-142.231 86.396,-123.906 95.6759,-109.986"/>
</g>
<!-- write -->
<g id="node7" class="node"><title>write</title>
<ellipse fill="none" stroke="black" cx="62" cy="-19" rx="36.977" ry="18.3848"/>
<text text-anchor="middle" x="62" y="-15.4" font-family="Times Roman,serif" font-size="14.00">write</text>
</g>
<!-- v&#45;&#45;write -->
<g id="edge6" class="edge"><title>v&#45;&#45;write</title>
<path fill="none" stroke="black" d="M96.563,-75.8369C89.4489,-64.1382 80.0505,-48.6831 72.8502,-36.8426"/>
</g>
<!-- code -->
<g id="node9" class="node"><title>code</title>
<ellipse fill="none" stroke="black" cx="151" cy="-19" rx="33.9411" ry="18.3848"/>
<text text-anchor="middle" x="151" y="-15.4" font-family="Times Roman,serif" font-size="14.00">code</text>
</g>
<!-- v&#45;&#45;code -->
<g id="edge8" class="edge"><title>v&#45;&#45;code</title>
<path fill="none" stroke="black" d="M117.205,-75.8369C124.161,-64.1382 133.351,-48.6831 140.391,-36.8426"/>
</g>
</g>
</svg>
