<?xml version="1.0" encoding="UTF-8" standalone="no"?>
<!DOCTYPE svg PUBLIC "-//W3C//DTD SVG 1.1//EN"
 "http://www.w3.org/Graphics/SVG/1.1/DTD/svg11.dtd">
<!-- Generated by graphviz version 2.26.3 (20100126.1600)
 -->
<!-- Title: lisa Pages: 1 -->
<svg width="189pt" height="270pt"
 viewBox="0.00 0.00 189.00 270.00" xmlns="http://www.w3.org/2000/svg" xmlns:xlink="http://www.w3.org/1999/xlink">
<g id="graph1" class="graph" transform="scale(1 1) rotate(0) translate(4 266)">
<title>lisa</title>
<polygon fill="white" stroke="white" points="-4,5 -4,-266 186,-266 186,5 -4,5"/>
<!-- s -->
<g id="node1" class="node"><title>s</title>
<ellipse fill="none" stroke="black" cx="122" cy="-243" rx="17.8879" ry="18.3848"/>
<text text-anchor="middle" x="122" y="-239.4" font-family="Times Roman,serif" font-size="14.00">s</text>
</g>
<!-- p -->
<g id="node2" class="node"><title>p</title>
<ellipse fill="none" stroke="black" cx="91" cy="-169" rx="17.8879" ry="18.3848"/>
<text text-anchor="middle" x="91" y="-165.4" font-family="Times Roman,serif" font-size="14.00">p</text>
</g>
<!-- s&#45;&#45;p -->
<g id="edge4" class="edge"><title>s&#45;&#45;p</title>
<path fill="none" stroke="black" d="M114.81,-225.837C109.802,-213.882 103.151,-198.004 98.151,-186.07"/>
</g>
<!-- LISA -->
<g id="node4" class="node"><title>LISA</title>
<text text-anchor="middle" x="154" y="-165.4" font-family="Times Roman,serif" font-size="14.00">LISA</text>
</g>
<!-- s&#45;&#45;LISA -->
<g id="edge2" class="edge"><title>s&#45;&#45;LISA</title>
<path fill="none" stroke="black" d="M129.422,-225.837C134.444,-214.224 141.067,-198.909 146.172,-187.102"/>
</g>
<!-- m -->
<g id="node3" class="node"><title>m</title>
<ellipse fill="none" stroke="black" cx="56" cy="-93" rx="20.0059" ry="20.5061"/>
<text text-anchor="middle" x="56" y="-89.4" font-family="Times Roman,serif" font-size="14.00">m</text>
</g>
<!-- p&#45;&#45;m -->
<g id="edge8" class="edge"><title>p&#45;&#45;m</title>
<path fill="none" stroke="black" d="M83.2324,-152.133C77.7142,-140.151 70.3031,-124.058 64.6054,-111.686"/>
</g>
<!-- WRITE -->
<g id="node5" class="node"><title>WRITE</title>
<text text-anchor="middle" x="126" y="-89.4" font-family="Times Roman,serif" font-size="14.00">WRITE</text>
</g>
<!-- p&#45;&#45;WRITE -->
<g id="edge6" class="edge"><title>p&#45;&#45;WRITE</title>
<path fill="none" stroke="black" d="M98.7676,-152.133C104.366,-139.976 111.914,-123.587 117.643,-111.147"/>
</g>
<!-- GOOD -->
<g id="node6" class="node"><title>GOOD</title>
<text text-anchor="middle" x="31" y="-14.4" font-family="Times Roman,serif" font-size="14.00">GOOD</text>
</g>
<!-- m&#45;&#45;GOOD -->
<g id="edge10" class="edge"><title>m&#45;&#45;GOOD</title>
<path fill="none" stroke="black" d="M49.4315,-73.2946C45.5833,-61.75 40.7588,-47.2763 37.011,-36.033"/>
</g>
<!-- CODE -->
<g id="node7" class="node"><title>CODE</title>
<ellipse fill="black" stroke="black" cx="82" cy="-18" rx="1.8" ry="1.8"/>
</g>
<!-- m&#45;&#45;CODE -->
<g id="edge12" class="edge"><title>m&#45;&#45;CODE</title>
<path fill="none" stroke="black" d="M62.8312,-73.2946C69.4513,-54.1983 78.8497,-27.0873 81.3621,-19.84"/>
</g>
</g>
</svg>
