<?xml version="1.0" encoding="UTF-8" standalone="no"?>
<!DOCTYPE svg PUBLIC "-//W3C//DTD SVG 1.1//EN"
 "http://www.w3.org/Graphics/SVG/1.1/DTD/svg11.dtd">
<!-- Generated by graphviz version 2.26.3 (20100126.1600)
 -->
<!-- Title: lisa Pages: 1 -->
<svg width="203pt" height="270pt"
 viewBox="0.00 0.00 203.00 270.00" xmlns="http://www.w3.org/2000/svg" xmlns:xlink="http://www.w3.org/1999/xlink">
<g id="graph1" class="graph" transform="scale(1 1) rotate(0) translate(4 266)">
<title>lisa</title>
<polygon fill="white" stroke="white" points="-4,5 -4,-266 200,-266 200,5 -4,5"/>
<!-- s -->
<g id="node1" class="node"><title>s</title>
<ellipse fill="none" stroke="black" cx="136" cy="-243" rx="17.8879" ry="18.3848"/>
<text text-anchor="middle" x="136" y="-239.4" font-family="Times Roman,serif" font-size="14.00">s</text>
</g>
<!-- p -->
<g id="node2" class="node"><title>p</title>
<ellipse fill="none" stroke="black" cx="105" cy="-169" rx="17.8879" ry="18.3848"/>
<text text-anchor="middle" x="105" y="-165.4" font-family="Times Roman,serif" font-size="14.00">p</text>
</g>
<!-- s&#45;&#45;p -->
<g id="edge4" class="edge"><title>s&#45;&#45;p</title>
<path fill="none" stroke="black" d="M128.81,-225.837C123.802,-213.882 117.151,-198.004 112.151,-186.07"/>
</g>
<!-- LISA -->
<g id="node4" class="node"><title>LISA</title>
<text text-anchor="middle" x="168" y="-165.4" font-family="Times Roman,serif" font-size="14.00">LISA</text>
</g>
<!-- s&#45;&#45;LISA -->
<g id="edge2" class="edge"><title>s&#45;&#45;LISA</title>
<path fill="none" stroke="black" d="M143.422,-225.837C148.444,-214.224 155.067,-198.909 160.172,-187.102"/>
</g>
<!-- m -->
<g id="node3" class="node"><title>m</title>
<ellipse fill="none" stroke="black" cx="70" cy="-93" rx="20.0059" ry="20.5061"/>
<text text-anchor="middle" x="70" y="-89.4" font-family="Times Roman,serif" font-size="14.00">m</text>
</g>
<!-- p&#45;&#45;m -->
<g id="edge8" class="edge"><title>p&#45;&#45;m</title>
<path fill="none" stroke="black" d="M97.2324,-152.133C91.7142,-140.151 84.3031,-124.058 78.6054,-111.686"/>
</g>
<!-- WRITE -->
<g id="node5" class="node"><title>WRITE</title>
<text text-anchor="middle" x="140" y="-89.4" font-family="Times Roman,serif" font-size="14.00">WRITE</text>
</g>
<!-- p&#45;&#45;WRITE -->
<g id="edge6" class="edge"><title>p&#45;&#45;WRITE</title>
<path fill="none" stroke="black" d="M112.768,-152.133C118.366,-139.976 125.914,-123.587 131.643,-111.147"/>
</g>
<!-- GOOD -->
<g id="node6" class="node"><title>GOOD</title>
<text text-anchor="middle" x="31" y="-14.4" font-family="Times Roman,serif" font-size="14.00">GOOD</text>
</g>
<!-- m&#45;&#45;GOOD -->
<g id="edge10" class="edge"><title>m&#45;&#45;GOOD</title>
<path fill="none" stroke="black" d="M60.5592,-74.8446C54.4725,-63.1394 46.5852,-47.9716 40.489,-36.2482"/>
</g>
<!-- CODE -->
<g id="node7" class="node"><title>CODE</title>
<text text-anchor="middle" x="109" y="-14.4" font-family="Times Roman,serif" font-size="14.00">CODE</text>
</g>
<!-- m&#45;&#45;CODE -->
<g id="edge12" class="edge"><title>m&#45;&#45;CODE</title>
<path fill="none" stroke="black" d="M79.4408,-74.8446C85.5275,-63.1394 93.4148,-47.9716 99.511,-36.2482"/>
</g>
</g>
</svg>
