<?xml version="1.0" encoding="UTF-8" standalone="no"?>
<!-- Created with Inkscape (http://www.inkscape.org/) -->

<svg
   xmlns:dc="http://purl.org/dc/elements/1.1/"
   xmlns:cc="http://creativecommons.org/ns#"
   xmlns:rdf="http://www.w3.org/1999/02/22-rdf-syntax-ns#"
   xmlns:svg="http://www.w3.org/2000/svg"
   xmlns="http://www.w3.org/2000/svg"
   version="1.1"
   width="190"
   height="170"
   id="svg2">
  <metadata
     id="metadata8">
    <rdf:RDF>
      <cc:Work
         rdf:about="">
        <dc:format>image/svg+xml</dc:format>
        <dc:type
           rdf:resource="http://purl.org/dc/dcmitype/StillImage" />
        <dc:title></dc:title>
      </cc:Work>
    </rdf:RDF>
  </metadata>
  <defs
     id="defs6" />
  <g
     transform="matrix(1.058333,0,0,1.058333,56.132335,310.49909)"
     id="g3807">
    <path
       d="m -40.347042,-183.09194 c 23.31536,4.15003 28.053793,1.05374 27.792156,-23.71862 -0.296149,-28.04007 2.27388,-39.23497 21.9396295,-47.00735 16.8366135,-6.65423 32.2168015,5.09357 32.2168015,5.09357 l -4.838885,-10.69649 5.214505,-4.07485 0.37429,-6.36696 37.49686,-22.63679 2.75644,3.28124 6.75802,0 c 0,0 7.15829,28.16298 13.256065,41.25789 5.24464,11.26278 19.82121,31.56465 19.82121,31.56465 l -1.63356,4.59966 1.19614,5.02162 -22.874685,14.70955 -5.31735,-3.68644 -5.31735,1.43935 c 0,0 -12.76481,-10.60776 -18.11305,-15.95601 -5.34824,-5.34824 -17.76966,-20.12356 -17.76966,-20.12356 0,0 4.57566,34.73061 -8.68864,50.93963 -12.869565,15.72666 -27.466628,19.35555 -27.466628,19.35555 l 0,24.6729 c 0,0 -0.283039,1.78275 -2.572493,1.78275 -2.212665,0 -2.707557,-1.78275 -2.707557,-1.78275 l 0,-24.37453 c 0,0 -16.7637465,2.9661 -30.007017,-0.09 -13.243271,-3.05614 -30.15753,-18.90534 -30.15753,-18.90534 0,0 6.664533,3.43102 12.404643,4.59834 7.74849,1.57574 10.951166,-1.18203 10.951166,-1.18203 z"
       id="path2987"
       style="fill:#000000;stroke:none" />
    <path
       d="m 41.105425,-258.08888 c 1.35784,-1.97503 3.95007,-3.57975 3.95007,-3.57975 l 0.12344,-6.04854 33.94591,-20.49099 2.71568,2.59223 5.9251,-0.6172 c 4.19695,36.90847 31.353685,70.97783 31.353685,70.97783 l -1.48128,3.45631 1.23439,3.70319 -18.63939,11.85021 -3.209425,-1.97503 -7.7767,0 c 0,0 -30.73648,-22.21915 -48.14148,-59.86826 z"
       id="path3014"
       style="fill:#ffffff;stroke:none" />
    <path
       d="m -13.126303,-178.47015 c 17.7906295,-7.87985 10.2804655,-44.83558 36.534097,-49.58759 12.626087,-1.54783 18.473421,19.79084 12.826302,37.65467 -4.19174,13.25996 -17.466723,25.16797 -32.7637855,24.92124 2.650428,-2.33039 6.6240405,-3.94474 7.9512855,-6.99114 -9.3972715,4.72843 -23.998337,2.86361 -23.998337,2.86361 0,0 11.3539215,-6.11754 14.3715005,-8.99795 -3.747036,0.34913 -9.784092,0.41656 -14.9210625,0.13716 z"
       id="path3008"
       style="fill:#e00079;fill-opacity:1;stroke:none" />
    <path
       d="m 95.568614,53.618664 a 5.6633253,5.8049088 0 1 1 -11.326651,0 5.6633253,5.8049088 0 1 1 11.326651,0 z"
       transform="matrix(0.37651248,0,0,0.37651248,0.52060251,-260.23698)"
       id="path3012"
       style="color:#000000;fill:#ffffff;fill-opacity:1;fill-rule:nonzero;stroke:none;stroke-width:19.79999924;marker:none;visibility:visible;display:inline;overflow:visible;enable-background:accumulate" />
    <path
       d="m 47.771165,-257.47168 0.37032,-3.70319 c 0.20332,-2.03315 26.7065,-17.58233 29.87241,-19.38003 1.26503,-0.71832 4.76492,0.057 5.06102,1.48127 1.69158,8.13692 15.84183,46.62793 28.884885,61.34954 0.99173,1.11936 1.63991,3.61923 0.74064,4.81414 -2.31996,3.08269 -13.480485,9.37639 -15.676835,10.59085 -1.44079,0.79668 -3.90736,1.50763 -5.30791,0.64217 -11.05892,-6.83384 -44.62899,-48.95018 -43.94453,-55.79475 z"
       id="path3016"
       style="fill:none;stroke:#666666;stroke-width:2.0999999;stroke-linecap:butt;stroke-linejoin:round;stroke-miterlimit:4;stroke-opacity:1;stroke-dasharray:none" />
    <path
       d="m 61.954245,-243.86609 3.99608,6.92652 13.68076,-7.98237 z"
       id="path3805"
       style="fill:#e00079;fill-opacity:1;stroke:none" />
  </g>
</svg>
