<?xml version="1.0" encoding="UTF-8" standalone="no"?>
<svg
   viewBox="0 0 324 80"
   class="svg-eleven-logo"
   version="1.1"
   id="svg2064"
   sodipodi:docname="eeleven.svg"
   xml:space="preserve"
   inkscape:version="1.2.2 (b0a8486, 2022-12-01)"
   xmlns:inkscape="http://www.inkscape.org/namespaces/inkscape"
   xmlns:sodipodi="http://sodipodi.sourceforge.net/DTD/sodipodi-0.dtd"
   xmlns="http://www.w3.org/2000/svg"
   xmlns:svg="http://www.w3.org/2000/svg"><defs
     id="defs2068" /><sodipodi:namedview
     id="namedview2066"
     pagecolor="#ffffff"
     bordercolor="#666666"
     borderopacity="1.0"
     inkscape:showpageshadow="2"
     inkscape:pageopacity="0.0"
     inkscape:pagecheckerboard="0"
     inkscape:deskcolor="#d1d1d1"
     showgrid="false"
     inkscape:zoom="2.4195682"
     inkscape:cx="81.832784"
     inkscape:cy="15.91193"
     inkscape:window-width="1920"
     inkscape:window-height="1013"
     inkscape:window-x="0"
     inkscape:window-y="0"
     inkscape:window-maximized="1"
     inkscape:current-layer="svg2064" /><path
     class="text"
     fill="#FFF"
     d="M0 80V32.3h32.9v7H8.5V52h21.4v7H8.5v14h24.7v7H0zm46.1 0V36.1l8.5-3.8V73h24.7v7H46.1zM88 80V32.3h32.9v7H96.4V52h21.4v7H96.4v14h24.8v7H88zm59 0l-19-47.6h8.7l15.3 38h.1l15.3-38h8l-19 47.5H147zm37.2 0V32.3h32.9v7h-24.5V52h21.5v7h-21.5v14h24.8v7h-33.2zm82.6 0l-28-35.2V80h-8.5V32.3h8.8L265.8 66l.1-33.6h8.4v47.5h-7.5z"
     id="path2060"
     style="fill:#2d2b41;fill-opacity:1" /><path
     fill="#FCBF31"
     d="M297.1 13.3l11.4-5.7v41.9l-11.4 5.7zm15.2-7.6L323.8 0v41.9l-11.5 5.7z"
     id="path2062" /></svg>
