<?xml version="1.0" encoding="UTF-8" standalone="no"?>
<!DOCTYPE svg PUBLIC "-//W3C//DTD SVG 1.1//EN"
 "http://www.w3.org/Graphics/SVG/1.1/DTD/svg11.dtd">
<!-- Generated by graphviz version 2.40.1 (20161225.0304)
 -->
<!-- Title: %3 Pages: 1 -->
<svg width="523pt" height="505pt"
 viewBox="0.00 0.00 523.34 505.17" xmlns="http://www.w3.org/2000/svg" xmlns:xlink="http://www.w3.org/1999/xlink">
<g id="graph0" class="graph" transform="scale(1 1) rotate(0) translate(4 501.1665)">
<title>%3</title>
<polygon fill="#ffffff" stroke="transparent" points="-4,4 -4,-501.1665 519.3391,-501.1665 519.3391,4 -4,4"/>
<!-- G__37335 -->
<g id="node1" class="node">
<title>G__37335</title>
<ellipse fill="#000000" stroke="#000000" cx="1.8" cy="-342.1665" rx="1.8" ry="1.8"/>
</g>
<!-- G__37336 -->
<g id="node2" class="node">
<title>G__37336</title>
<polygon fill="none" stroke="#000000" points="109.8,-497.1665 33.7193,-479.1665 109.8,-461.1665 185.8807,-479.1665 109.8,-497.1665"/>
<text text-anchor="middle" x="109.8" y="-475.4665" font-family="Times,serif" font-size="14.00" fill="#000000">&quot;Chocolate&quot;</text>
</g>
<!-- G__37336&#45;&gt;G__37335 -->
<g id="edge1" class="edge">
<title>G__37336&#45;&gt;G__37335</title>
<path fill="none" stroke="#000000" d="M82.9953,-467.4626C60.4766,-456.1643 29.3911,-436.8404 12.8,-410.1665 2.078,-392.9286 .7387,-368.6527 1.0533,-354.2516"/>
<polygon fill="#000000" stroke="#000000" points="4.5613,-354.1974 1.6094,-344.0221 -2.4283,-353.8174 4.5613,-354.1974"/>
<text text-anchor="middle" x="48.3" y="-431.9665" font-family="Times,serif" font-size="14.00" fill="#000000">L</text>
</g>
<!-- G__37337 -->
<g id="node3" class="node">
<title>G__37337</title>
<polygon fill="none" stroke="#000000" points="109.8,-410.1665 21.8,-342.1665 109.8,-274.1665 197.8,-342.1665 109.8,-410.1665"/>
<text text-anchor="middle" x="109.8" y="-360.9665" font-family="Times,serif" font-size="14.00" fill="#000000">&lt;product</text>
<text text-anchor="middle" x="109.8" y="-345.9665" font-family="Times,serif" font-size="14.00" fill="#000000"> price=2.5</text>
<text text-anchor="middle" x="109.8" y="-330.9665" font-family="Times,serif" font-size="14.00" fill="#000000"> qty=1</text>
<text text-anchor="middle" x="109.8" y="-315.9665" font-family="Times,serif" font-size="14.00" fill="#000000"> sku=CH56&gt;</text>
</g>
<!-- G__37336&#45;&gt;G__37337 -->
<g id="edge2" class="edge">
<title>G__37336&#45;&gt;G__37337</title>
<path fill="none" stroke="#000000" d="M109.8,-460.974C109.8,-450.1669 109.8,-435.6365 109.8,-420.4512"/>
<polygon fill="#000000" stroke="#000000" points="113.3001,-420.4101 109.8,-410.4102 106.3001,-420.4102 113.3001,-420.4101"/>
<text text-anchor="middle" x="113.8" y="-431.9665" font-family="Times,serif" font-size="14.00" fill="#000000">P</text>
</g>
<!-- G__37345 -->
<g id="node11" class="node">
<title>G__37345</title>
<ellipse fill="#000000" stroke="#000000" cx="217.8" cy="-342.1665" rx="1.8" ry="1.8"/>
</g>
<!-- G__37336&#45;&gt;G__37345 -->
<g id="edge10" class="edge">
<title>G__37336&#45;&gt;G__37345</title>
<path fill="none" stroke="#000000" d="M136.6047,-467.4626C159.1234,-456.1643 190.2089,-436.8404 206.8,-410.1665 217.522,-392.9286 218.8613,-368.6527 218.5467,-354.2516"/>
<polygon fill="#000000" stroke="#000000" points="222.0283,-353.8174 217.9906,-344.0221 215.0387,-354.1974 222.0283,-353.8174"/>
<text text-anchor="middle" x="195.8" y="-431.9665" font-family="Times,serif" font-size="14.00" fill="#000000">R</text>
</g>
<!-- G__37338 -->
<g id="node4" class="node">
<title>G__37338</title>
<ellipse fill="#000000" stroke="#000000" cx="8.8" cy="-175.0833" rx="1.8" ry="1.8"/>
</g>
<!-- G__37337&#45;&gt;G__37338 -->
<g id="edge3" class="edge">
<title>G__37337&#45;&gt;G__37338</title>
<path fill="none" stroke="#000000" d="M72.8391,-302.2973C54.3907,-280.4104 33.2067,-251.9263 19.8,-223.1665 14.366,-211.5096 11.522,-196.9809 10.0992,-186.962"/>
<polygon fill="#000000" stroke="#000000" points="13.5741,-186.5424 8.9493,-177.0102 6.6204,-187.3459 13.5741,-186.5424"/>
<text text-anchor="middle" x="42.3" y="-244.9665" font-family="Times,serif" font-size="14.00" fill="#000000">L</text>
</g>
<!-- G__37339 -->
<g id="node5" class="node">
<title>G__37339</title>
<polygon fill="none" stroke="#000000" points="109.8,-193.0833 29.0282,-175.0833 109.8,-157.0833 190.5718,-175.0833 109.8,-193.0833"/>
<text text-anchor="middle" x="109.8" y="-171.3833" font-family="Times,serif" font-size="14.00" fill="#000000">&lt;line&#45;items&gt;</text>
</g>
<!-- G__37337&#45;&gt;G__37339 -->
<g id="edge4" class="edge">
<title>G__37337&#45;&gt;G__37339</title>
<path fill="none" stroke="#000000" d="M109.8,-273.7253C109.8,-249.2023 109.8,-222.8837 109.8,-203.6047"/>
<polygon fill="#000000" stroke="#000000" points="113.3001,-203.4045 109.8,-193.4045 106.3001,-203.4046 113.3001,-203.4045"/>
<text text-anchor="middle" x="113.8" y="-244.9665" font-family="Times,serif" font-size="14.00" fill="#000000">P</text>
</g>
<!-- G__37343 -->
<g id="node9" class="node">
<title>G__37343</title>
<ellipse fill="none" stroke="#000000" cx="270.8" cy="-175.0833" rx="62.4516" ry="48.1667"/>
<text text-anchor="middle" x="270.8" y="-193.8833" font-family="Times,serif" font-size="14.00" fill="#000000">&lt;product</text>
<text text-anchor="middle" x="270.8" y="-178.8833" font-family="Times,serif" font-size="14.00" fill="#000000"> price=1.7</text>
<text text-anchor="middle" x="270.8" y="-163.8833" font-family="Times,serif" font-size="14.00" fill="#000000"> qty=1</text>
<text text-anchor="middle" x="270.8" y="-148.8833" font-family="Times,serif" font-size="14.00" fill="#000000"> sku=CA94&gt;</text>
</g>
<!-- G__37337&#45;&gt;G__37343 -->
<g id="edge8" class="edge">
<title>G__37337&#45;&gt;G__37343</title>
<path fill="none" stroke="#000000" d="M147.5473,-302.9929C171.1487,-278.4998 201.6569,-246.8389 226.4154,-221.1449"/>
<polygon fill="#000000" stroke="#000000" points="229.1486,-223.3525 233.5671,-213.723 224.108,-218.4954 229.1486,-223.3525"/>
<text text-anchor="middle" x="209.8" y="-244.9665" font-family="Times,serif" font-size="14.00" fill="#000000">R</text>
</g>
<!-- G__37340 -->
<g id="node6" class="node">
<title>G__37340</title>
<ellipse fill="#000000" stroke="#000000" cx="36.8" cy="-38" rx="1.8" ry="1.8"/>
</g>
<!-- G__37339&#45;&gt;G__37340 -->
<g id="edge5" class="edge">
<title>G__37339&#45;&gt;G__37340</title>
<path fill="none" stroke="#000000" d="M98.0351,-159.378C84.334,-140.46 61.7977,-107.3068 47.8,-76 43.9927,-67.4847 41.1291,-57.3094 39.2795,-49.632"/>
<polygon fill="#000000" stroke="#000000" points="42.6867,-48.8285 37.1365,-39.8038 35.8474,-50.3199 42.6867,-48.8285"/>
<text text-anchor="middle" x="69.3" y="-97.8" font-family="Times,serif" font-size="14.00" fill="#000000">L</text>
</g>
<!-- G__37341 -->
<g id="node7" class="node">
<title>G__37341</title>
<polygon fill="none" stroke="#000000" points="109.8,-76 56.8,-38 109.8,0 162.8,-38 109.8,-76"/>
<text text-anchor="middle" x="109.8" y="-41.8" font-family="Times,serif" font-size="14.00" fill="#000000">&lt;cart&gt;</text>
<text text-anchor="middle" x="109.8" y="-26.8" font-family="Times,serif" font-size="14.00" fill="#000000">Top</text>
</g>
<!-- G__37339&#45;&gt;G__37341 -->
<g id="edge6" class="edge">
<title>G__37339&#45;&gt;G__37341</title>
<path fill="none" stroke="#000000" d="M109.8,-156.8797C109.8,-138.9724 109.8,-110.8486 109.8,-86.4505"/>
<polygon fill="#000000" stroke="#000000" points="113.3001,-86.2629 109.8,-76.2629 106.3001,-86.2629 113.3001,-86.2629"/>
<text text-anchor="middle" x="113.8" y="-97.8" font-family="Times,serif" font-size="14.00" fill="#000000">P</text>
</g>
<!-- G__37342 -->
<g id="node8" class="node">
<title>G__37342</title>
<ellipse fill="none" stroke="#000000" cx="234.8" cy="-38" rx="53.8905" ry="18"/>
<text text-anchor="middle" x="234.8" y="-34.3" font-family="Times,serif" font-size="14.00" fill="#000000">&lt;customer&gt;</text>
</g>
<!-- G__37339&#45;&gt;G__37342 -->
<g id="edge7" class="edge">
<title>G__37339&#45;&gt;G__37342</title>
<path fill="none" stroke="#000000" d="M123.6548,-159.8892C145.0365,-136.4406 186.2965,-91.1921 212.0866,-62.909"/>
<polygon fill="#000000" stroke="#000000" points="214.7694,-65.1614 218.9211,-55.4139 209.5969,-60.4448 214.7694,-65.1614"/>
<text text-anchor="middle" x="188.8" y="-97.8" font-family="Times,serif" font-size="14.00" fill="#000000">R</text>
</g>
<!-- G__37344 -->
<g id="node10" class="node">
<title>G__37344</title>
<ellipse fill="none" stroke="#000000" cx="441.8" cy="-175.0833" rx="73.5782" ry="26.7407"/>
<text text-anchor="middle" x="441.8" y="-178.8833" font-family="Times,serif" font-size="14.00" fill="#000000">&lt;discount</text>
<text text-anchor="middle" x="441.8" y="-163.8833" font-family="Times,serif" font-size="14.00" fill="#000000"> amount=10%&gt;</text>
</g>
<!-- G__37343&#45;&gt;G__37344 -->
<g id="edge9" class="edge">
<title>G__37343&#45;&gt;G__37344</title>
<path fill="none" stroke="#000000" d="M333.2551,-175.0833C344.8445,-175.0833 356.4339,-175.0833 368.0234,-175.0833"/>
</g>
</g>
</svg>
