<?xml version="1.0" encoding="UTF-8" standalone="no"?>
<!DOCTYPE svg PUBLIC "-//W3C//DTD SVG 1.1//EN"
 "http://www.w3.org/Graphics/SVG/1.1/DTD/svg11.dtd">
<!-- Generated by graphviz version 2.40.1 (20161225.0304)
 -->
<!-- Title: %3 Pages: 1 -->
<svg width="653pt" height="338pt"
 viewBox="0.00 0.00 653.32 337.91" xmlns="http://www.w3.org/2000/svg" xmlns:xlink="http://www.w3.org/1999/xlink">
<g id="graph0" class="graph" transform="scale(1 1) rotate(0) translate(4 333.9066)">
<title>%3</title>
<polygon fill="#ffffff" stroke="transparent" points="-4,4 -4,-333.9066 649.3211,-333.9066 649.3211,4 -4,4"/>
<!-- G__231725 -->
<g id="node1" class="node">
<title>G__231725</title>
<ellipse fill="#ba55d3" stroke="#ba55d3" cx="422.2254" cy="-303.0366" rx="37.4533" ry="26.7407"/>
<text text-anchor="middle" x="422.2254" y="-306.8366" font-family="Times,serif" font-size="14.00" fill="#000000">&lt;cart&gt;</text>
<text text-anchor="middle" x="422.2254" y="-291.8366" font-family="Times,serif" font-size="14.00" fill="#000000">:end</text>
</g>
<!-- G__231726 -->
<g id="node2" class="node">
<title>G__231726</title>
<ellipse fill="none" stroke="#000000" cx="358.2254" cy="-222.1665" rx="57.3905" ry="18"/>
<text text-anchor="middle" x="358.2254" y="-218.4665" font-family="Times,serif" font-size="14.00" fill="#000000">&lt;line&#45;items&gt;</text>
</g>
<!-- G__231725&#45;&#45;G__231726 -->
<g id="edge1" class="edge">
<title>G__231725&#45;&#45;G__231726</title>
<path fill="none" stroke="#000000" d="M403.7139,-279.6456C393.6725,-266.9572 381.462,-251.5281 372.221,-239.8513"/>
</g>
<!-- G__231732 -->
<g id="node8" class="node">
<title>G__231732</title>
<ellipse fill="none" stroke="#000000" cx="488.2254" cy="-222.1665" rx="53.8905" ry="18"/>
<text text-anchor="middle" x="488.2254" y="-218.4665" font-family="Times,serif" font-size="14.00" fill="#000000">&lt;customer&gt;</text>
</g>
<!-- G__231725&#45;&#45;G__231732 -->
<g id="edge7" class="edge">
<title>G__231725&#45;&#45;G__231732</title>
<path fill="none" stroke="#000000" d="M441.3153,-279.6456C451.7468,-266.8639 464.448,-251.3011 474.0021,-239.5944"/>
</g>
<!-- G__231727 -->
<g id="node3" class="node">
<title>G__231727</title>
<ellipse fill="none" stroke="#000000" cx="62.2254" cy="-120.0833" rx="62.4516" ry="48.1667"/>
<text text-anchor="middle" x="62.2254" y="-138.8833" font-family="Times,serif" font-size="14.00" fill="#000000">&lt;product</text>
<text text-anchor="middle" x="62.2254" y="-123.8833" font-family="Times,serif" font-size="14.00" fill="#000000"> price=2.5</text>
<text text-anchor="middle" x="62.2254" y="-108.8833" font-family="Times,serif" font-size="14.00" fill="#000000"> qty=1</text>
<text text-anchor="middle" x="62.2254" y="-93.8833" font-family="Times,serif" font-size="14.00" fill="#000000"> sku=CH56&gt;</text>
</g>
<!-- G__231726&#45;&#45;G__231727 -->
<g id="edge2" class="edge">
<title>G__231726&#45;&#45;G__231727</title>
<path fill="none" stroke="#000000" d="M305.5755,-215.0221C258.8457,-207.4147 189.4608,-192.9709 133.2254,-168.1665 124.3718,-164.2614 115.4369,-159.2394 107.0328,-153.9196"/>
</g>
<!-- G__231729 -->
<g id="node5" class="node">
<title>G__231729</title>
<ellipse fill="none" stroke="#000000" cx="204.2254" cy="-120.0833" rx="62.4516" ry="48.1667"/>
<text text-anchor="middle" x="204.2254" y="-138.8833" font-family="Times,serif" font-size="14.00" fill="#000000">&lt;product</text>
<text text-anchor="middle" x="204.2254" y="-123.8833" font-family="Times,serif" font-size="14.00" fill="#000000"> price=1.7</text>
<text text-anchor="middle" x="204.2254" y="-108.8833" font-family="Times,serif" font-size="14.00" fill="#000000"> qty=1</text>
<text text-anchor="middle" x="204.2254" y="-93.8833" font-family="Times,serif" font-size="14.00" fill="#000000"> sku=CA94&gt;</text>
</g>
<!-- G__231726&#45;&#45;G__231729 -->
<g id="edge4" class="edge">
<title>G__231726&#45;&#45;G__231729</title>
<path fill="none" stroke="#000000" d="M333.0851,-205.9816C316.5849,-195.317 294.5607,-181.002 275.2254,-168.1665 267.4115,-162.9794 259.1436,-157.4333 251.1184,-152.019"/>
</g>
<!-- G__231731 -->
<g id="node7" class="node">
<title>G__231731</title>
<ellipse fill="none" stroke="#000000" cx="358.2254" cy="-120.0833" rx="73.5782" ry="26.7407"/>
<text text-anchor="middle" x="358.2254" y="-123.8833" font-family="Times,serif" font-size="14.00" fill="#000000">&lt;discount</text>
<text text-anchor="middle" x="358.2254" y="-108.8833" font-family="Times,serif" font-size="14.00" fill="#000000"> amount=10%&gt;</text>
</g>
<!-- G__231726&#45;&#45;G__231731 -->
<g id="edge6" class="edge">
<title>G__231726&#45;&#45;G__231731</title>
<path fill="none" stroke="#000000" d="M358.2254,-203.9161C358.2254,-188.0877 358.2254,-164.9635 358.2254,-147.0087"/>
</g>
<!-- G__231726&#45;&#45;G__231732 -->
<!-- G__231728 -->
<g id="node4" class="node">
<title>G__231728</title>
<ellipse fill="none" stroke="#000000" cx="62.2254" cy="-18" rx="53.8905" ry="18"/>
<text text-anchor="middle" x="62.2254" y="-14.3" font-family="Times,serif" font-size="14.00" fill="#000000">&quot;Chocolate&quot;</text>
</g>
<!-- G__231727&#45;&#45;G__231728 -->
<g id="edge3" class="edge">
<title>G__231727&#45;&#45;G__231728</title>
<path fill="none" stroke="#000000" d="M62.2254,-71.7322C62.2254,-59.1579 62.2254,-46.3653 62.2254,-36.4182"/>
</g>
<!-- G__231727&#45;&#45;G__231729 -->
<!-- G__231730 -->
<g id="node6" class="node">
<title>G__231730</title>
<ellipse fill="none" stroke="#000000" cx="204.2254" cy="-18" rx="41.6928" ry="18"/>
<text text-anchor="middle" x="204.2254" y="-14.3" font-family="Times,serif" font-size="14.00" fill="#000000">&quot;Candy&quot;</text>
</g>
<!-- G__231729&#45;&#45;G__231730 -->
<g id="edge5" class="edge">
<title>G__231729&#45;&#45;G__231730</title>
<path fill="none" stroke="#000000" d="M204.2254,-71.7322C204.2254,-59.1579 204.2254,-46.3653 204.2254,-36.4182"/>
</g>
<!-- G__231729&#45;&#45;G__231731 -->
<!-- G__231733 -->
<g id="node9" class="node">
<title>G__231733</title>
<ellipse fill="none" stroke="#000000" cx="490.2254" cy="-120.0833" rx="40.8928" ry="18"/>
<text text-anchor="middle" x="490.2254" y="-116.3833" font-family="Times,serif" font-size="14.00" fill="#000000">&lt;name&gt;</text>
</g>
<!-- G__231732&#45;&#45;G__231733 -->
<g id="edge8" class="edge">
<title>G__231732&#45;&#45;G__231733</title>
<path fill="none" stroke="#000000" d="M488.583,-203.9161C488.947,-185.335 489.508,-156.6996 489.8709,-138.1757"/>
</g>
<!-- G__231735 -->
<g id="node11" class="node">
<title>G__231735</title>
<ellipse fill="none" stroke="#000000" cx="597.2254" cy="-120.0833" rx="48.1917" ry="18"/>
<text text-anchor="middle" x="597.2254" y="-116.3833" font-family="Times,serif" font-size="14.00" fill="#000000">&lt;address&gt;</text>
</g>
<!-- G__231732&#45;&#45;G__231735 -->
<g id="edge10" class="edge">
<title>G__231732&#45;&#45;G__231735</title>
<path fill="none" stroke="#000000" d="M506.7158,-204.8495C527.0025,-185.8501 559.338,-155.5665 579.3693,-136.8063"/>
</g>
<!-- G__231734 -->
<g id="node10" class="node">
<title>G__231734</title>
<ellipse fill="none" stroke="#000000" cx="490.2254" cy="-18" rx="36.2938" ry="18"/>
<text text-anchor="middle" x="490.2254" y="-14.3" font-family="Times,serif" font-size="14.00" fill="#000000">&quot;Arne&quot;</text>
</g>
<!-- G__231733&#45;&#45;G__231734 -->
<g id="edge9" class="edge">
<title>G__231733&#45;&#45;G__231734</title>
<path fill="none" stroke="#000000" d="M490.2254,-101.8328C490.2254,-83.2517 490.2254,-54.6163 490.2254,-36.0924"/>
</g>
<!-- G__231733&#45;&#45;G__231735 -->
<!-- G__231736 -->
<g id="node12" class="node">
<title>G__231736</title>
<ellipse fill="none" stroke="#000000" cx="597.2254" cy="-18" rx="40.0939" ry="18"/>
<text text-anchor="middle" x="597.2254" y="-14.3" font-family="Times,serif" font-size="14.00" fill="#000000">&quot;Berlin&quot;</text>
</g>
<!-- G__231735&#45;&#45;G__231736 -->
<g id="edge11" class="edge">
<title>G__231735&#45;&#45;G__231736</title>
<path fill="none" stroke="#000000" d="M597.2254,-101.8328C597.2254,-83.2517 597.2254,-54.6163 597.2254,-36.0924"/>
</g>
</g>
</svg>
