<?xml version="1.0" encoding="UTF-8" standalone="no"?>
<!DOCTYPE svg PUBLIC "-//W3C//DTD SVG 1.1//EN"
 "http://www.w3.org/Graphics/SVG/1.1/DTD/svg11.dtd">
<!-- Generated by graphviz version 2.40.1 (20161225.0304)
 -->
<!-- Title: %3 Pages: 1 -->
<svg width="156pt" height="171pt"
 viewBox="0.00 0.00 155.60 171.00" xmlns="http://www.w3.org/2000/svg" xmlns:xlink="http://www.w3.org/1999/xlink">
<g id="graph0" class="graph" transform="scale(1 1) rotate(0) translate(4 167)">
<title>%3</title>
<polygon fill="#ffffff" stroke="transparent" points="-4,4 -4,-167 151.6,-167 151.6,4 -4,4"/>
<!-- G__234157 -->
<g id="node1" class="node">
<title>G__234157</title>
<ellipse fill="#000000" stroke="#000000" cx="1.8" cy="-38" rx="1.8" ry="1.8"/>
</g>
<!-- G__234158 -->
<g id="node2" class="node">
<title>G__234158</title>
<polygon fill="#f0706a" stroke="#f0706a" points="73.8,-163 44.4737,-145 73.8,-127 103.1263,-145 73.8,-163"/>
<text text-anchor="middle" x="73.8" y="-141.3" font-family="Times,serif" font-size="14.00" fill="#000000">[2]</text>
</g>
<!-- G__234158&#45;&gt;G__234157 -->
<g id="edge1" class="edge">
<title>G__234158&#45;&gt;G__234157</title>
<path fill="none" stroke="#000000" d="M61.4741,-134.2631C47.7063,-121.631 25.6684,-99.3965 12.8,-76 8.3047,-67.827 5.4831,-57.6308 3.8246,-49.8583"/>
<polygon fill="#000000" stroke="#000000" points="7.2415,-49.082 2.0413,-39.8512 .3501,-50.3101 7.2415,-49.082"/>
<text text-anchor="middle" x="41.3" y="-97.8" font-family="Times,serif" font-size="14.00" fill="#000000">L</text>
</g>
<!-- G__234159 -->
<g id="node3" class="node">
<title>G__234159</title>
<polygon fill="none" stroke="#000000" points="73.8,-76 21.8,-38 73.8,0 125.8,-38 73.8,-76"/>
<text text-anchor="middle" x="73.8" y="-41.8" font-family="Times,serif" font-size="14.00" fill="#000000">[[1 2]]</text>
<text text-anchor="middle" x="73.8" y="-26.8" font-family="Times,serif" font-size="14.00" fill="#000000">Top</text>
</g>
<!-- G__234158&#45;&gt;G__234159 -->
<g id="edge2" class="edge">
<title>G__234158&#45;&gt;G__234159</title>
<path fill="none" stroke="#000000" d="M73.8,-126.8489C73.8,-115.7178 73.8,-100.8915 73.8,-86.5447"/>
<polygon fill="#000000" stroke="#000000" points="77.3001,-86.2423 73.8,-76.2423 70.3001,-86.2423 77.3001,-86.2423"/>
<text text-anchor="middle" x="77.8" y="-97.8" font-family="Times,serif" font-size="14.00" fill="#000000">P</text>
</g>
<!-- G__234160 -->
<g id="node4" class="node">
<title>G__234160</title>
<ellipse fill="#000000" stroke="#000000" cx="145.8" cy="-38" rx="1.8" ry="1.8"/>
</g>
<!-- G__234158&#45;&gt;G__234160 -->
<g id="edge3" class="edge">
<title>G__234158&#45;&gt;G__234160</title>
<path fill="none" stroke="#000000" d="M86.1259,-134.2631C99.8937,-121.631 121.9316,-99.3965 134.8,-76 139.2953,-67.827 142.1169,-57.6308 143.7754,-49.8583"/>
<polygon fill="#000000" stroke="#000000" points="147.2499,-50.3101 145.5587,-39.8512 140.3585,-49.082 147.2499,-50.3101"/>
<text text-anchor="middle" x="126.8" y="-97.8" font-family="Times,serif" font-size="14.00" fill="#000000">R</text>
</g>
</g>
</svg>
