<?xml version="1.0" encoding="UTF-8" standalone="no"?>
<!DOCTYPE svg PUBLIC "-//W3C//DTD SVG 1.1//EN"
 "http://www.w3.org/Graphics/SVG/1.1/DTD/svg11.dtd">
<!-- Generated by graphviz version 2.40.1 (20161225.0304)
 -->
<!-- Title: %3 Pages: 1 -->
<svg width="372pt" height="258pt"
 viewBox="0.00 0.00 371.80 258.00" xmlns="http://www.w3.org/2000/svg" xmlns:xlink="http://www.w3.org/1999/xlink">
<g id="graph0" class="graph" transform="scale(1 1) rotate(0) translate(4 254)">
<title>%3</title>
<polygon fill="#ffffff" stroke="transparent" points="-4,4 -4,-254 367.8,-254 367.8,4 -4,4"/>
<!-- G__26889 -->
<g id="node1" class="node">
<title>G__26889</title>
<ellipse fill="none" stroke="#000000" cx="27" cy="-145" rx="27" ry="18"/>
<text text-anchor="middle" x="27" y="-141.3" font-family="Times,serif" font-size="14.00" fill="#000000">3</text>
</g>
<!-- G__26890 -->
<g id="node2" class="node">
<title>G__26890</title>
<ellipse fill="none" stroke="#000000" cx="117" cy="-145" rx="27.8951" ry="18"/>
<text text-anchor="middle" x="117" y="-141.3" font-family="Times,serif" font-size="14.00" fill="#000000">[4 5]</text>
</g>
<!-- G__26889&#45;&gt;G__26890 -->
<g id="edge1" class="edge">
<title>G__26889&#45;&gt;G__26890</title>
<path fill="none" stroke="#000000" d="M54.0703,-145C65.7057,-145 77.3412,-145 88.9766,-145"/>
</g>
<!-- G__26891 -->
<g id="node3" class="node">
<title>G__26891</title>
<polygon fill="none" stroke="#000000" points="230,-250 203,-232 230,-214 257,-232 230,-250"/>
<text text-anchor="middle" x="230" y="-228.3" font-family="Times,serif" font-size="14.00" fill="#000000">6</text>
</g>
<!-- G__26891&#45;&gt;G__26890 -->
<g id="edge2" class="edge">
<title>G__26891&#45;&gt;G__26890</title>
<path fill="none" stroke="#000000" d="M217.0375,-222.02C199.0699,-208.1866 166.1974,-182.8776 143.0493,-165.0557"/>
<polygon fill="#000000" stroke="#000000" points="145.0655,-162.1908 135.0067,-158.8636 140.7951,-167.7374 145.0655,-162.1908"/>
<text text-anchor="middle" x="185.5" y="-184.8" font-family="Times,serif" font-size="14.00" fill="#000000">L</text>
</g>
<!-- G__26892 -->
<g id="node4" class="node">
<title>G__26892</title>
<polygon fill="none" stroke="#000000" points="230,-163 162.8029,-145 230,-127 297.1971,-145 230,-163"/>
<text text-anchor="middle" x="230" y="-141.3" font-family="Times,serif" font-size="14.00" fill="#000000">[3 [4 5] 6]</text>
</g>
<!-- G__26891&#45;&gt;G__26892 -->
<g id="edge3" class="edge">
<title>G__26891&#45;&gt;G__26892</title>
<path fill="none" stroke="#000000" d="M230,-213.9735C230,-202.1918 230,-186.5607 230,-173.1581"/>
<polygon fill="#000000" stroke="#000000" points="233.5001,-173.0033 230,-163.0034 226.5001,-173.0034 233.5001,-173.0033"/>
<text text-anchor="middle" x="234" y="-184.8" font-family="Times,serif" font-size="14.00" fill="#000000">P</text>
</g>
<!-- G__26896 -->
<g id="node8" class="node">
<title>G__26896</title>
<ellipse fill="#000000" stroke="#000000" cx="317" cy="-145" rx="1.8" ry="1.8"/>
</g>
<!-- G__26891&#45;&gt;G__26896 -->
<g id="edge7" class="edge">
<title>G__26891&#45;&gt;G__26896</title>
<path fill="none" stroke="#000000" d="M242.8675,-222.2173C258.8711,-209.6478 286.4628,-186.6192 306,-163 307.8208,-160.7988 309.5532,-158.268 311.082,-155.8127"/>
<polygon fill="#000000" stroke="#000000" points="314.2976,-157.2332 316.1216,-146.7966 308.1873,-153.8179 314.2976,-157.2332"/>
<text text-anchor="middle" x="294" y="-184.8" font-family="Times,serif" font-size="14.00" fill="#000000">R</text>
</g>
<!-- G__26893 -->
<g id="node5" class="node">
<title>G__26893</title>
<ellipse fill="none" stroke="#000000" cx="72" cy="-38" rx="27.8951" ry="18"/>
<text text-anchor="middle" x="72" y="-34.3" font-family="Times,serif" font-size="14.00" fill="#000000">[1 2]</text>
</g>
<!-- G__26892&#45;&gt;G__26893 -->
<g id="edge4" class="edge">
<title>G__26892&#45;&gt;G__26893</title>
<path fill="none" stroke="#000000" d="M205.0998,-133.3889C179.7127,-120.9734 139.7933,-99.8246 109,-76 103.324,-71.6086 97.6747,-66.3689 92.5619,-61.2046"/>
<polygon fill="#000000" stroke="#000000" points="94.9438,-58.6305 85.5143,-53.7997 89.8732,-63.4564 94.9438,-58.6305"/>
<text text-anchor="middle" x="161.5" y="-97.8" font-family="Times,serif" font-size="14.00" fill="#000000">L</text>
</g>
<!-- G__26894 -->
<g id="node6" class="node">
<title>G__26894</title>
<polygon fill="none" stroke="#000000" points="230,-76 118,-38 230,0 342,-38 230,-76"/>
<text text-anchor="middle" x="230" y="-41.8" font-family="Times,serif" font-size="14.00" fill="#000000">[[1 2] [3 [4 5] 6]]</text>
<text text-anchor="middle" x="230" y="-26.8" font-family="Times,serif" font-size="14.00" fill="#000000">Top</text>
</g>
<!-- G__26892&#45;&gt;G__26894 -->
<g id="edge5" class="edge">
<title>G__26892&#45;&gt;G__26894</title>
<path fill="none" stroke="#000000" d="M230,-126.8489C230,-115.7178 230,-100.8915 230,-86.5447"/>
<polygon fill="#000000" stroke="#000000" points="233.5001,-86.2423 230,-76.2423 226.5001,-86.2423 233.5001,-86.2423"/>
<text text-anchor="middle" x="234" y="-97.8" font-family="Times,serif" font-size="14.00" fill="#000000">P</text>
</g>
<!-- G__26895 -->
<g id="node7" class="node">
<title>G__26895</title>
<ellipse fill="#000000" stroke="#000000" cx="362" cy="-38" rx="1.8" ry="1.8"/>
</g>
<!-- G__26892&#45;&gt;G__26895 -->
<g id="edge6" class="edge">
<title>G__26892&#45;&gt;G__26895</title>
<path fill="none" stroke="#000000" d="M260.5451,-135.1054C288.0871,-124.6526 327.7325,-105.5409 351,-76 356.8419,-68.5829 359.5817,-58.1741 360.8664,-50.1253"/>
<polygon fill="#000000" stroke="#000000" points="364.3694,-50.2795 361.9353,-39.9681 357.4078,-49.5468 364.3694,-50.2795"/>
<text text-anchor="middle" x="338" y="-97.8" font-family="Times,serif" font-size="14.00" fill="#000000">R</text>
</g>
</g>
</svg>
