<?xml version="1.0" encoding="UTF-8" standalone="no"?>
<!DOCTYPE svg PUBLIC "-//W3C//DTD SVG 1.1//EN"
 "http://www.w3.org/Graphics/SVG/1.1/DTD/svg11.dtd">
<!-- Generated by graphviz version 2.40.1 (20161225.0304)
 -->
<!-- Title: %3 Pages: 1 -->
<svg width="370pt" height="260pt"
 viewBox="0.00 0.00 370.00 260.00" xmlns="http://www.w3.org/2000/svg" xmlns:xlink="http://www.w3.org/1999/xlink">
<g id="graph0" class="graph" transform="scale(1 1) rotate(0) translate(4 256)">
<title>%3</title>
<polygon fill="#ffffff" stroke="transparent" points="-4,4 -4,-256 366,-256 366,4 -4,4"/>
<!-- G__217274 -->
<g id="node1" class="node">
<title>G__217274</title>
<ellipse fill="none" stroke="#000000" cx="99" cy="-90" rx="27" ry="18"/>
<text text-anchor="middle" x="99" y="-86.3" font-family="Times,serif" font-size="14.00" fill="#000000">2</text>
</g>
<!-- G__217275 -->
<g id="node2" class="node">
<title>G__217275</title>
<ellipse fill="none" stroke="#000000" cx="27" cy="-90" rx="27" ry="18"/>
<text text-anchor="middle" x="27" y="-86.3" font-family="Times,serif" font-size="14.00" fill="#000000">1</text>
</g>
<!-- G__217275&#45;&#45;G__217274 -->
<!-- G__217273 -->
<g id="node3" class="node">
<title>G__217273</title>
<ellipse fill="none" stroke="#000000" cx="99" cy="-162" rx="27.8951" ry="18"/>
<text text-anchor="middle" x="99" y="-158.3" font-family="Times,serif" font-size="14.00" fill="#000000">[1 2]</text>
</g>
<!-- G__217273&#45;&#45;G__217274 -->
<g id="edge1" class="edge">
<title>G__217273&#45;&#45;G__217274</title>
<path fill="none" stroke="#000000" d="M99,-143.8314C99,-133 99,-119.2876 99,-108.4133"/>
</g>
<!-- G__217273&#45;&#45;G__217275 -->
<g id="edge2" class="edge">
<title>G__217273&#45;&#45;G__217275</title>
<path fill="none" stroke="#000000" d="M83.7307,-146.7307C71.512,-134.512 54.4602,-117.4602 42.2473,-105.2473"/>
</g>
<!-- G__217272 -->
<g id="node5" class="node">
<title>G__217272</title>
<ellipse fill="#3388ff" stroke="#3388ff" cx="201" cy="-162" rx="56.59" ry="18"/>
<text text-anchor="middle" x="201" y="-158.3" font-family="Times,serif" font-size="14.00" fill="#000000">[3 [4 5 :x] 6]</text>
</g>
<!-- G__217273&#45;&#45;G__217272 -->
<!-- G__217276 -->
<g id="node4" class="node">
<title>G__217276</title>
<ellipse fill="none" stroke="#000000" cx="150" cy="-234" rx="81.7856" ry="18"/>
<text text-anchor="middle" x="150" y="-230.3" font-family="Times,serif" font-size="14.00" fill="#000000">[[1 2] [3 [4 5 :x] 6]]</text>
</g>
<!-- G__217276&#45;&#45;G__217273 -->
<g id="edge3" class="edge">
<title>G__217276&#45;&#45;G__217273</title>
<path fill="none" stroke="#000000" d="M137.3933,-216.2022C129.252,-204.7088 118.7314,-189.8561 110.7625,-178.6058"/>
</g>
<!-- G__217276&#45;&#45;G__217272 -->
<g id="edge4" class="edge">
<title>G__217276&#45;&#45;G__217272</title>
<path fill="none" stroke="#000000" d="M162.6067,-216.2022C170.512,-205.0419 180.6607,-190.7143 188.5383,-179.593"/>
</g>
<!-- G__217277 -->
<g id="node6" class="node">
<title>G__217277</title>
<ellipse fill="none" stroke="#000000" cx="171" cy="-90" rx="27" ry="18"/>
<text text-anchor="middle" x="171" y="-86.3" font-family="Times,serif" font-size="14.00" fill="#000000">3</text>
</g>
<!-- G__217272&#45;&#45;G__217277 -->
<g id="edge5" class="edge">
<title>G__217272&#45;&#45;G__217277</title>
<path fill="none" stroke="#000000" d="M193.4297,-143.8314C188.7778,-132.6667 182.8504,-118.441 178.2574,-107.4177"/>
</g>
<!-- G__217278 -->
<g id="node7" class="node">
<title>G__217278</title>
<ellipse fill="none" stroke="#000000" cx="253" cy="-90" rx="37.0935" ry="18"/>
<text text-anchor="middle" x="253" y="-86.3" font-family="Times,serif" font-size="14.00" fill="#000000">[4 5 :x]</text>
</g>
<!-- G__217272&#45;&#45;G__217278 -->
<g id="edge6" class="edge">
<title>G__217272&#45;&#45;G__217278</title>
<path fill="none" stroke="#000000" d="M213.8539,-144.2022C222.0345,-132.8753 232.5713,-118.2859 240.652,-107.0972"/>
</g>
<!-- G__217282 -->
<g id="node11" class="node">
<title>G__217282</title>
<ellipse fill="none" stroke="#000000" cx="335" cy="-90" rx="27" ry="18"/>
<text text-anchor="middle" x="335" y="-86.3" font-family="Times,serif" font-size="14.00" fill="#000000">6</text>
</g>
<!-- G__217272&#45;&#45;G__217282 -->
<g id="edge10" class="edge">
<title>G__217272&#45;&#45;G__217282</title>
<path fill="none" stroke="#000000" d="M230.076,-146.3771C255.3233,-132.8113 291.2834,-113.4895 313.8689,-101.354"/>
</g>
<!-- G__217277&#45;&#45;G__217278 -->
<!-- G__217279 -->
<g id="node8" class="node">
<title>G__217279</title>
<ellipse fill="none" stroke="#000000" cx="181" cy="-18" rx="27" ry="18"/>
<text text-anchor="middle" x="181" y="-14.3" font-family="Times,serif" font-size="14.00" fill="#000000">4</text>
</g>
<!-- G__217278&#45;&#45;G__217279 -->
<g id="edge7" class="edge">
<title>G__217278&#45;&#45;G__217279</title>
<path fill="none" stroke="#000000" d="M236.6621,-73.6621C224.5469,-61.5469 208.1462,-45.1462 196.2886,-33.2886"/>
</g>
<!-- G__217280 -->
<g id="node9" class="node">
<title>G__217280</title>
<ellipse fill="none" stroke="#000000" cx="253" cy="-18" rx="27" ry="18"/>
<text text-anchor="middle" x="253" y="-14.3" font-family="Times,serif" font-size="14.00" fill="#000000">5</text>
</g>
<!-- G__217278&#45;&#45;G__217280 -->
<g id="edge8" class="edge">
<title>G__217278&#45;&#45;G__217280</title>
<path fill="none" stroke="#000000" d="M253,-71.8314C253,-61 253,-47.2876 253,-36.4133"/>
</g>
<!-- G__217281 -->
<g id="node10" class="node">
<title>G__217281</title>
<ellipse fill="none" stroke="#000000" cx="325" cy="-18" rx="27" ry="18"/>
<text text-anchor="middle" x="325" y="-14.3" font-family="Times,serif" font-size="14.00" fill="#000000">:x</text>
</g>
<!-- G__217278&#45;&#45;G__217281 -->
<g id="edge9" class="edge">
<title>G__217278&#45;&#45;G__217281</title>
<path fill="none" stroke="#000000" d="M269.3379,-73.6621C281.4531,-61.5469 297.8538,-45.1462 309.7114,-33.2886"/>
</g>
<!-- G__217278&#45;&#45;G__217282 -->
<!-- G__217279&#45;&#45;G__217280 -->
<!-- G__217280&#45;&#45;G__217281 -->
</g>
</svg>
