<?xml version="1.0" encoding="UTF-8" standalone="no"?>
<!DOCTYPE svg PUBLIC "-//W3C//DTD SVG 1.1//EN"
 "http://www.w3.org/Graphics/SVG/1.1/DTD/svg11.dtd">
<!-- Generated by graphviz version 2.40.1 (20161225.0304)
 -->
<!-- Title: %3 Pages: 1 -->
<svg width="269pt" height="171pt"
 viewBox="0.00 0.00 269.48 171.00" xmlns="http://www.w3.org/2000/svg" xmlns:xlink="http://www.w3.org/1999/xlink">
<g id="graph0" class="graph" transform="scale(1 1) rotate(0) translate(4 167)">
<title>%3</title>
<polygon fill="#ffffff" stroke="transparent" points="-4,4 -4,-167 265.485,-167 265.485,4 -4,4"/>
<!-- G__229063 -->
<g id="node1" class="node">
<title>G__229063</title>
<ellipse fill="none" stroke="#000000" cx="57.1949" cy="-38" rx="57.3905" ry="18"/>
<text text-anchor="middle" x="57.1949" y="-34.3" font-family="Times,serif" font-size="14.00" fill="#000000">&lt;line&#45;items&gt;</text>
</g>
<!-- G__229064 -->
<g id="node2" class="node">
<title>G__229064</title>
<polygon fill="none" stroke="#000000" points="185.1949,-163 109.1142,-145 185.1949,-127 261.2756,-145 185.1949,-163"/>
<text text-anchor="middle" x="185.1949" y="-141.3" font-family="Times,serif" font-size="14.00" fill="#000000">&lt;customer&gt;</text>
</g>
<!-- G__229064&#45;&gt;G__229063 -->
<g id="edge1" class="edge">
<title>G__229064&#45;&gt;G__229063</title>
<path fill="none" stroke="#000000" d="M168.1975,-130.7912C147.0884,-113.1453 110.7751,-82.7897 85.4519,-61.6211"/>
<polygon fill="#000000" stroke="#000000" points="87.5666,-58.827 77.6495,-55.0987 83.0771,-64.1977 87.5666,-58.827"/>
<text text-anchor="middle" x="144.6949" y="-97.8" font-family="Times,serif" font-size="14.00" fill="#000000">L</text>
</g>
<!-- G__229065 -->
<g id="node3" class="node">
<title>G__229065</title>
<polygon fill="none" stroke="#000000" points="185.1949,-76 132.1949,-38 185.1949,0 238.1949,-38 185.1949,-76"/>
<text text-anchor="middle" x="185.1949" y="-41.8" font-family="Times,serif" font-size="14.00" fill="#000000">&lt;cart&gt;</text>
<text text-anchor="middle" x="185.1949" y="-26.8" font-family="Times,serif" font-size="14.00" fill="#000000">Top</text>
</g>
<!-- G__229064&#45;&gt;G__229065 -->
<g id="edge2" class="edge">
<title>G__229064&#45;&gt;G__229065</title>
<path fill="none" stroke="#000000" d="M185.1949,-126.8489C185.1949,-115.7178 185.1949,-100.8915 185.1949,-86.5447"/>
<polygon fill="#000000" stroke="#000000" points="188.695,-86.2423 185.1949,-76.2423 181.695,-86.2423 188.695,-86.2423"/>
<text text-anchor="middle" x="189.1949" y="-97.8" font-family="Times,serif" font-size="14.00" fill="#000000">P</text>
</g>
<!-- G__229066 -->
<g id="node4" class="node">
<title>G__229066</title>
<ellipse fill="#000000" stroke="#000000" cx="258.1949" cy="-38" rx="1.8" ry="1.8"/>
</g>
<!-- G__229064&#45;&gt;G__229066 -->
<g id="edge3" class="edge">
<title>G__229064&#45;&gt;G__229066</title>
<path fill="none" stroke="#000000" d="M201.6945,-130.6855C215.682,-117.7136 235.3112,-97.4011 247.1949,-76 251.7232,-67.8452 254.5427,-57.6479 256.1921,-49.8704"/>
<polygon fill="#000000" stroke="#000000" points="259.6686,-50.3095 257.9582,-39.8537 252.7749,-49.094 259.6686,-50.3095"/>
<text text-anchor="middle" x="239.1949" y="-97.8" font-family="Times,serif" font-size="14.00" fill="#000000">R</text>
</g>
</g>
</svg>
