<?xml version="1.0" encoding="UTF-8" standalone="no"?>
<!DOCTYPE svg PUBLIC "-//W3C//DTD SVG 1.1//EN"
 "http://www.w3.org/Graphics/SVG/1.1/DTD/svg11.dtd">
<!-- Generated by graphviz version 2.40.1 (20161225.0304)
 -->
<!-- Title: %3 Pages: 1 -->
<svg width="477pt" height="505pt"
 viewBox="0.00 0.00 476.76 505.17" xmlns="http://www.w3.org/2000/svg" xmlns:xlink="http://www.w3.org/1999/xlink">
<g id="graph0" class="graph" transform="scale(1 1) rotate(0) translate(4 501.1665)">
<title>%3</title>
<polygon fill="#ffffff" stroke="transparent" points="-4,4 -4,-501.1665 472.7645,-501.1665 472.7645,4 -4,4"/>
<!-- G__227917 -->
<g id="node1" class="node">
<title>G__227917</title>
<ellipse fill="#000000" stroke="#000000" cx="115.2254" cy="-342.1665" rx="1.8" ry="1.8"/>
</g>
<!-- G__227918 -->
<g id="node2" class="node">
<title>G__227918</title>
<polygon fill="none" stroke="#000000" points="223.2254,-497.1665 164.5728,-479.1665 223.2254,-461.1665 281.878,-479.1665 223.2254,-497.1665"/>
<text text-anchor="middle" x="223.2254" y="-475.4665" font-family="Times,serif" font-size="14.00" fill="#000000">&quot;Candy&quot;</text>
</g>
<!-- G__227918&#45;&gt;G__227917 -->
<g id="edge1" class="edge">
<title>G__227918&#45;&gt;G__227917</title>
<path fill="none" stroke="#000000" d="M198.6143,-468.5515C175.9627,-457.4276 143.3623,-437.7178 126.2254,-410.1665 115.5034,-392.9286 114.1641,-368.6527 114.4787,-354.2516"/>
<polygon fill="#000000" stroke="#000000" points="117.9867,-354.1974 115.0348,-344.0221 110.9971,-353.8174 117.9867,-354.1974"/>
<text text-anchor="middle" x="161.7254" y="-431.9665" font-family="Times,serif" font-size="14.00" fill="#000000">L</text>
</g>
<!-- G__227919 -->
<g id="node3" class="node">
<title>G__227919</title>
<polygon fill="none" stroke="#000000" points="223.2254,-410.1665 135.2254,-342.1665 223.2254,-274.1665 311.2254,-342.1665 223.2254,-410.1665"/>
<text text-anchor="middle" x="223.2254" y="-360.9665" font-family="Times,serif" font-size="14.00" fill="#000000">&lt;product</text>
<text text-anchor="middle" x="223.2254" y="-345.9665" font-family="Times,serif" font-size="14.00" fill="#000000"> price=1.7</text>
<text text-anchor="middle" x="223.2254" y="-330.9665" font-family="Times,serif" font-size="14.00" fill="#000000"> qty=1</text>
<text text-anchor="middle" x="223.2254" y="-315.9665" font-family="Times,serif" font-size="14.00" fill="#000000"> sku=CA94&gt;</text>
</g>
<!-- G__227918&#45;&gt;G__227919 -->
<g id="edge2" class="edge">
<title>G__227918&#45;&gt;G__227919</title>
<path fill="none" stroke="#000000" d="M223.2254,-460.974C223.2254,-450.1669 223.2254,-435.6365 223.2254,-420.4512"/>
<polygon fill="#000000" stroke="#000000" points="226.7255,-420.4101 223.2254,-410.4102 219.7255,-420.4102 226.7255,-420.4101"/>
<text text-anchor="middle" x="227.2254" y="-431.9665" font-family="Times,serif" font-size="14.00" fill="#000000">P</text>
</g>
<!-- G__227926 -->
<g id="node10" class="node">
<title>G__227926</title>
<ellipse fill="#000000" stroke="#000000" cx="331.2254" cy="-342.1665" rx="1.8" ry="1.8"/>
</g>
<!-- G__227918&#45;&gt;G__227926 -->
<g id="edge9" class="edge">
<title>G__227918&#45;&gt;G__227926</title>
<path fill="none" stroke="#000000" d="M247.8365,-468.5515C270.4881,-457.4276 303.0885,-437.7178 320.2254,-410.1665 330.9474,-392.9286 332.2867,-368.6527 331.9721,-354.2516"/>
<polygon fill="#000000" stroke="#000000" points="335.4537,-353.8174 331.416,-344.0221 328.4641,-354.1974 335.4537,-353.8174"/>
<text text-anchor="middle" x="309.2254" y="-431.9665" font-family="Times,serif" font-size="14.00" fill="#000000">R</text>
</g>
<!-- G__227920 -->
<g id="node4" class="node">
<title>G__227920</title>
<ellipse fill="none" stroke="#000000" cx="62.2254" cy="-175.0833" rx="62.4516" ry="48.1667"/>
<text text-anchor="middle" x="62.2254" y="-193.8833" font-family="Times,serif" font-size="14.00" fill="#000000">&lt;product</text>
<text text-anchor="middle" x="62.2254" y="-178.8833" font-family="Times,serif" font-size="14.00" fill="#000000"> price=2.5</text>
<text text-anchor="middle" x="62.2254" y="-163.8833" font-family="Times,serif" font-size="14.00" fill="#000000"> qty=1</text>
<text text-anchor="middle" x="62.2254" y="-148.8833" font-family="Times,serif" font-size="14.00" fill="#000000"> sku=CH56&gt;</text>
</g>
<!-- G__227919&#45;&gt;G__227920 -->
<g id="edge3" class="edge">
<title>G__227919&#45;&gt;G__227920</title>
<path fill="none" stroke="#000000" d="M185.478,-302.9929C161.8767,-278.4998 131.3685,-246.8389 106.61,-221.1449"/>
<polygon fill="#000000" stroke="#000000" points="108.9174,-218.4954 99.4583,-213.723 103.8767,-223.3525 108.9174,-218.4954"/>
<text text-anchor="middle" x="142.7254" y="-244.9665" font-family="Times,serif" font-size="14.00" fill="#000000">L</text>
</g>
<!-- G__227921 -->
<g id="node5" class="node">
<title>G__227921</title>
<polygon fill="none" stroke="#000000" points="223.2254,-193.0833 142.4536,-175.0833 223.2254,-157.0833 303.9972,-175.0833 223.2254,-193.0833"/>
<text text-anchor="middle" x="223.2254" y="-171.3833" font-family="Times,serif" font-size="14.00" fill="#000000">&lt;line&#45;items&gt;</text>
</g>
<!-- G__227919&#45;&gt;G__227921 -->
<g id="edge4" class="edge">
<title>G__227919&#45;&gt;G__227921</title>
<path fill="none" stroke="#000000" d="M223.2254,-273.7253C223.2254,-249.2023 223.2254,-222.8837 223.2254,-203.6047"/>
<polygon fill="#000000" stroke="#000000" points="226.7255,-203.4045 223.2254,-193.4045 219.7255,-203.4046 226.7255,-203.4045"/>
<text text-anchor="middle" x="227.2254" y="-244.9665" font-family="Times,serif" font-size="14.00" fill="#000000">P</text>
</g>
<!-- G__227925 -->
<g id="node9" class="node">
<title>G__227925</title>
<ellipse fill="none" stroke="#000000" cx="395.2254" cy="-175.0833" rx="73.5782" ry="26.7407"/>
<text text-anchor="middle" x="395.2254" y="-178.8833" font-family="Times,serif" font-size="14.00" fill="#000000">&lt;discount</text>
<text text-anchor="middle" x="395.2254" y="-163.8833" font-family="Times,serif" font-size="14.00" fill="#000000"> amount=10%&gt;</text>
</g>
<!-- G__227919&#45;&gt;G__227925 -->
<g id="edge8" class="edge">
<title>G__227919&#45;&gt;G__227925</title>
<path fill="none" stroke="#000000" d="M262.2549,-304.2527C292.2799,-275.086 333.3236,-235.2156 361.8367,-207.5175"/>
<polygon fill="#000000" stroke="#000000" points="364.4295,-209.8784 369.1636,-200.4 359.552,-204.8574 364.4295,-209.8784"/>
<text text-anchor="middle" x="330.2254" y="-244.9665" font-family="Times,serif" font-size="14.00" fill="#000000">R</text>
</g>
<!-- G__227922 -->
<g id="node6" class="node">
<title>G__227922</title>
<ellipse fill="#000000" stroke="#000000" cx="150.2254" cy="-38" rx="1.8" ry="1.8"/>
</g>
<!-- G__227921&#45;&gt;G__227922 -->
<g id="edge5" class="edge">
<title>G__227921&#45;&gt;G__227922</title>
<path fill="none" stroke="#000000" d="M211.4605,-159.378C197.7594,-140.46 175.2231,-107.3068 161.2254,-76 157.4181,-67.4847 154.5545,-57.3094 152.7049,-49.632"/>
<polygon fill="#000000" stroke="#000000" points="156.1121,-48.8285 150.5619,-39.8038 149.2728,-50.3199 156.1121,-48.8285"/>
<text text-anchor="middle" x="182.7254" y="-97.8" font-family="Times,serif" font-size="14.00" fill="#000000">L</text>
</g>
<!-- G__227923 -->
<g id="node7" class="node">
<title>G__227923</title>
<polygon fill="none" stroke="#000000" points="223.2254,-76 170.2254,-38 223.2254,0 276.2254,-38 223.2254,-76"/>
<text text-anchor="middle" x="223.2254" y="-41.8" font-family="Times,serif" font-size="14.00" fill="#000000">&lt;cart&gt;</text>
<text text-anchor="middle" x="223.2254" y="-26.8" font-family="Times,serif" font-size="14.00" fill="#000000">Top</text>
</g>
<!-- G__227921&#45;&gt;G__227923 -->
<g id="edge6" class="edge">
<title>G__227921&#45;&gt;G__227923</title>
<path fill="none" stroke="#000000" d="M223.2254,-156.8797C223.2254,-138.9724 223.2254,-110.8486 223.2254,-86.4505"/>
<polygon fill="#000000" stroke="#000000" points="226.7255,-86.2629 223.2254,-76.2629 219.7255,-86.2629 226.7255,-86.2629"/>
<text text-anchor="middle" x="227.2254" y="-97.8" font-family="Times,serif" font-size="14.00" fill="#000000">P</text>
</g>
<!-- G__227924 -->
<g id="node8" class="node">
<title>G__227924</title>
<ellipse fill="none" stroke="#000000" cx="348.2254" cy="-38" rx="53.8905" ry="18"/>
<text text-anchor="middle" x="348.2254" y="-34.3" font-family="Times,serif" font-size="14.00" fill="#000000">&lt;customer&gt;</text>
</g>
<!-- G__227921&#45;&gt;G__227924 -->
<g id="edge7" class="edge">
<title>G__227921&#45;&gt;G__227924</title>
<path fill="none" stroke="#000000" d="M237.0802,-159.8892C258.4619,-136.4406 299.7219,-91.1921 325.512,-62.909"/>
<polygon fill="#000000" stroke="#000000" points="328.1948,-65.1614 332.3465,-55.4139 323.0223,-60.4448 328.1948,-65.1614"/>
<text text-anchor="middle" x="302.2254" y="-97.8" font-family="Times,serif" font-size="14.00" fill="#000000">R</text>
</g>
</g>
</svg>
