<?xml version="1.0" encoding="UTF-8" standalone="no"?>
<!DOCTYPE svg PUBLIC "-//W3C//DTD SVG 1.1//EN"
 "http://www.w3.org/Graphics/SVG/1.1/DTD/svg11.dtd">
<!-- Generated by graphviz version 2.40.1 (20161225.0304)
 -->
<!-- Title: %3 Pages: 1 -->
<svg width="383pt" height="345pt"
 viewBox="0.00 0.00 383.29 345.00" xmlns="http://www.w3.org/2000/svg" xmlns:xlink="http://www.w3.org/1999/xlink">
<g id="graph0" class="graph" transform="scale(1 1) rotate(0) translate(4 341)">
<title>%3</title>
<polygon fill="#ffffff" stroke="transparent" points="-4,4 -4,-341 379.2907,-341 379.2907,4 -4,4"/>
<!-- G__230202 -->
<g id="node1" class="node">
<title>G__230202</title>
<ellipse fill="#000000" stroke="#000000" cx="107.1949" cy="-232" rx="1.8" ry="1.8"/>
</g>
<!-- G__230203 -->
<g id="node2" class="node">
<title>G__230203</title>
<polygon fill="none" stroke="#000000" points="185.1949,-337 133.7493,-319 185.1949,-301 236.6406,-319 185.1949,-337"/>
<text text-anchor="middle" x="185.1949" y="-315.3" font-family="Times,serif" font-size="14.00" fill="#000000">&quot;Arne&quot;</text>
</g>
<!-- G__230203&#45;&gt;G__230202 -->
<g id="edge1" class="edge">
<title>G__230203&#45;&gt;G__230202</title>
<path fill="none" stroke="#000000" d="M170.6344,-305.8243C156.37,-292.5158 134.4645,-270.9795 118.1949,-250 116.4443,-247.7426 114.7393,-245.1898 113.2147,-242.7312"/>
<polygon fill="#000000" stroke="#000000" points="116.0994,-240.7242 108.1057,-233.7706 110.0183,-244.1914 116.0994,-240.7242"/>
<text text-anchor="middle" x="150.6949" y="-271.8" font-family="Times,serif" font-size="14.00" fill="#000000">L</text>
</g>
<!-- G__230204 -->
<g id="node3" class="node">
<title>G__230204</title>
<polygon fill="none" stroke="#000000" points="185.1949,-250 127.381,-232 185.1949,-214 243.0089,-232 185.1949,-250"/>
<text text-anchor="middle" x="185.1949" y="-228.3" font-family="Times,serif" font-size="14.00" fill="#000000">&lt;name&gt;</text>
</g>
<!-- G__230203&#45;&gt;G__230204 -->
<g id="edge2" class="edge">
<title>G__230203&#45;&gt;G__230204</title>
<path fill="none" stroke="#000000" d="M185.1949,-300.9735C185.1949,-289.1918 185.1949,-273.5607 185.1949,-260.1581"/>
<polygon fill="#000000" stroke="#000000" points="188.695,-260.0033 185.1949,-250.0034 181.695,-260.0034 188.695,-260.0033"/>
<text text-anchor="middle" x="189.1949" y="-271.8" font-family="Times,serif" font-size="14.00" fill="#000000">P</text>
</g>
<!-- G__230211 -->
<g id="node10" class="node">
<title>G__230211</title>
<ellipse fill="#000000" stroke="#000000" cx="263.1949" cy="-232" rx="1.8" ry="1.8"/>
</g>
<!-- G__230203&#45;&gt;G__230211 -->
<g id="edge9" class="edge">
<title>G__230203&#45;&gt;G__230211</title>
<path fill="none" stroke="#000000" d="M199.7555,-305.8243C214.0199,-292.5158 235.9253,-270.9795 252.1949,-250 253.9455,-247.7426 255.6505,-245.1898 257.1752,-242.7312"/>
<polygon fill="#000000" stroke="#000000" points="260.3715,-244.1914 262.2841,-233.7706 254.2905,-240.7242 260.3715,-244.1914"/>
<text text-anchor="middle" x="242.1949" y="-271.8" font-family="Times,serif" font-size="14.00" fill="#000000">R</text>
</g>
<!-- G__230205 -->
<g id="node4" class="node">
<title>G__230205</title>
<ellipse fill="#000000" stroke="#000000" cx="89.1949" cy="-145" rx="1.8" ry="1.8"/>
</g>
<!-- G__230204&#45;&gt;G__230205 -->
<g id="edge3" class="edge">
<title>G__230204&#45;&gt;G__230205</title>
<path fill="none" stroke="#000000" d="M166.4031,-219.5849C148.0638,-206.8542 120.0936,-185.7456 100.1949,-163 98.2417,-160.7673 96.4232,-158.1455 94.8498,-155.6042"/>
<polygon fill="#000000" stroke="#000000" points="97.9149,-153.9142 90.0456,-146.8202 91.7734,-157.2732 97.9149,-153.9142"/>
<text text-anchor="middle" x="139.6949" y="-184.8" font-family="Times,serif" font-size="14.00" fill="#000000">L</text>
</g>
<!-- G__230206 -->
<g id="node5" class="node">
<title>G__230206</title>
<polygon fill="none" stroke="#000000" points="185.1949,-163 109.1142,-145 185.1949,-127 261.2756,-145 185.1949,-163"/>
<text text-anchor="middle" x="185.1949" y="-141.3" font-family="Times,serif" font-size="14.00" fill="#000000">&lt;customer&gt;</text>
</g>
<!-- G__230204&#45;&gt;G__230206 -->
<g id="edge4" class="edge">
<title>G__230204&#45;&gt;G__230206</title>
<path fill="none" stroke="#000000" d="M185.1949,-213.9735C185.1949,-202.1918 185.1949,-186.5607 185.1949,-173.1581"/>
<polygon fill="#000000" stroke="#000000" points="188.695,-173.0033 185.1949,-163.0034 181.695,-173.0034 188.695,-173.0033"/>
<text text-anchor="middle" x="189.1949" y="-184.8" font-family="Times,serif" font-size="14.00" fill="#000000">P</text>
</g>
<!-- G__230210 -->
<g id="node9" class="node">
<title>G__230210</title>
<ellipse fill="none" stroke="#000000" cx="327.1949" cy="-145" rx="48.1917" ry="18"/>
<text text-anchor="middle" x="327.1949" y="-141.3" font-family="Times,serif" font-size="14.00" fill="#000000">&lt;address&gt;</text>
</g>
<!-- G__230204&#45;&gt;G__230210 -->
<g id="edge8" class="edge">
<title>G__230204&#45;&gt;G__230210</title>
<path fill="none" stroke="#000000" d="M204.9394,-219.903C227.7692,-205.9158 265.7381,-182.6531 293.3139,-165.7581"/>
<polygon fill="#000000" stroke="#000000" points="295.1712,-168.7249 301.8696,-160.5162 291.5142,-162.7561 295.1712,-168.7249"/>
<text text-anchor="middle" x="270.1949" y="-184.8" font-family="Times,serif" font-size="14.00" fill="#000000">R</text>
</g>
<!-- G__230207 -->
<g id="node6" class="node">
<title>G__230207</title>
<ellipse fill="none" stroke="#000000" cx="57.1949" cy="-38" rx="57.3905" ry="18"/>
<text text-anchor="middle" x="57.1949" y="-34.3" font-family="Times,serif" font-size="14.00" fill="#000000">&lt;line&#45;items&gt;</text>
</g>
<!-- G__230206&#45;&gt;G__230207 -->
<g id="edge5" class="edge">
<title>G__230206&#45;&gt;G__230207</title>
<path fill="none" stroke="#000000" d="M168.1975,-130.7912C147.0884,-113.1453 110.7751,-82.7897 85.4519,-61.6211"/>
<polygon fill="#000000" stroke="#000000" points="87.5666,-58.827 77.6495,-55.0987 83.0771,-64.1977 87.5666,-58.827"/>
<text text-anchor="middle" x="144.6949" y="-97.8" font-family="Times,serif" font-size="14.00" fill="#000000">L</text>
</g>
<!-- G__230208 -->
<g id="node7" class="node">
<title>G__230208</title>
<polygon fill="none" stroke="#000000" points="185.1949,-76 132.1949,-38 185.1949,0 238.1949,-38 185.1949,-76"/>
<text text-anchor="middle" x="185.1949" y="-41.8" font-family="Times,serif" font-size="14.00" fill="#000000">&lt;cart&gt;</text>
<text text-anchor="middle" x="185.1949" y="-26.8" font-family="Times,serif" font-size="14.00" fill="#000000">Top</text>
</g>
<!-- G__230206&#45;&gt;G__230208 -->
<g id="edge6" class="edge">
<title>G__230206&#45;&gt;G__230208</title>
<path fill="none" stroke="#000000" d="M185.1949,-126.8489C185.1949,-115.7178 185.1949,-100.8915 185.1949,-86.5447"/>
<polygon fill="#000000" stroke="#000000" points="188.695,-86.2423 185.1949,-76.2423 181.695,-86.2423 188.695,-86.2423"/>
<text text-anchor="middle" x="189.1949" y="-97.8" font-family="Times,serif" font-size="14.00" fill="#000000">P</text>
</g>
<!-- G__230209 -->
<g id="node8" class="node">
<title>G__230209</title>
<ellipse fill="#000000" stroke="#000000" cx="258.1949" cy="-38" rx="1.8" ry="1.8"/>
</g>
<!-- G__230206&#45;&gt;G__230209 -->
<g id="edge7" class="edge">
<title>G__230206&#45;&gt;G__230209</title>
<path fill="none" stroke="#000000" d="M201.6945,-130.6855C215.682,-117.7136 235.3112,-97.4011 247.1949,-76 251.7232,-67.8452 254.5427,-57.6479 256.1921,-49.8704"/>
<polygon fill="#000000" stroke="#000000" points="259.6686,-50.3095 257.9582,-39.8537 252.7749,-49.094 259.6686,-50.3095"/>
<text text-anchor="middle" x="240.1949" y="-97.8" font-family="Times,serif" font-size="14.00" fill="#000000">R</text>
</g>
</g>
</svg>
