<?xml version="1.0" encoding="UTF-8" standalone="no"?>
<!DOCTYPE svg PUBLIC "-//W3C//DTD SVG 1.1//EN"
 "http://www.w3.org/Graphics/SVG/1.1/DTD/svg11.dtd">
<!-- Generated by graphviz version 2.40.1 (20161225.0304)
 -->
<!-- Title: %3 Pages: 1 -->
<svg width="570pt" height="358pt"
 viewBox="0.00 0.00 570.17 358.17" xmlns="http://www.w3.org/2000/svg" xmlns:xlink="http://www.w3.org/1999/xlink">
<g id="graph0" class="graph" transform="scale(1 1) rotate(0) translate(4 354.1665)">
<title>%3</title>
<polygon fill="#ffffff" stroke="transparent" points="-4,4 -4,-354.1665 566.1706,-354.1665 566.1706,4 -4,4"/>
<!-- G__31627 -->
<g id="node1" class="node">
<title>G__31627</title>
<ellipse fill="none" stroke="#000000" cx="62.2254" cy="-175.0833" rx="62.4516" ry="48.1667"/>
<text text-anchor="middle" x="62.2254" y="-193.8833" font-family="Times,serif" font-size="14.00" fill="#000000">&lt;product</text>
<text text-anchor="middle" x="62.2254" y="-178.8833" font-family="Times,serif" font-size="14.00" fill="#000000"> price=2.5</text>
<text text-anchor="middle" x="62.2254" y="-163.8833" font-family="Times,serif" font-size="14.00" fill="#000000"> qty=1</text>
<text text-anchor="middle" x="62.2254" y="-148.8833" font-family="Times,serif" font-size="14.00" fill="#000000"> sku=CH56&gt;</text>
</g>
<!-- G__31628 -->
<g id="node2" class="node">
<title>G__31628</title>
<ellipse fill="none" stroke="#000000" cx="222.2254" cy="-175.0833" rx="62.4516" ry="48.1667"/>
<text text-anchor="middle" x="222.2254" y="-193.8833" font-family="Times,serif" font-size="14.00" fill="#000000">&lt;product</text>
<text text-anchor="middle" x="222.2254" y="-178.8833" font-family="Times,serif" font-size="14.00" fill="#000000"> price=1.7</text>
<text text-anchor="middle" x="222.2254" y="-163.8833" font-family="Times,serif" font-size="14.00" fill="#000000"> qty=1</text>
<text text-anchor="middle" x="222.2254" y="-148.8833" font-family="Times,serif" font-size="14.00" fill="#000000"> sku=CA94&gt;</text>
</g>
<!-- G__31627&#45;&gt;G__31628 -->
<g id="edge1" class="edge">
<title>G__31627&#45;&gt;G__31628</title>
<path fill="none" stroke="#000000" d="M124.7254,-175.0833C136.4051,-175.0833 148.0848,-175.0833 159.7645,-175.0833"/>
</g>
<!-- G__31629 -->
<g id="node3" class="node">
<title>G__31629</title>
<polygon fill="none" stroke="#000000" points="383.2254,-350.1665 279.2254,-312.1665 383.2254,-274.1665 487.2254,-312.1665 383.2254,-350.1665"/>
<text text-anchor="middle" x="383.2254" y="-315.9665" font-family="Times,serif" font-size="14.00" fill="#000000">&lt;discount</text>
<text text-anchor="middle" x="383.2254" y="-300.9665" font-family="Times,serif" font-size="14.00" fill="#000000"> amount=10%&gt;</text>
</g>
<!-- G__31629&#45;&gt;G__31628 -->
<g id="edge2" class="edge">
<title>G__31629&#45;&gt;G__31628</title>
<path fill="none" stroke="#000000" d="M351.8008,-285.4101C329.1602,-266.1328 298.1447,-239.7247 272.1346,-217.5784"/>
<polygon fill="#000000" stroke="#000000" points="274.121,-214.6729 264.238,-210.8548 269.5829,-220.0026 274.121,-214.6729"/>
<text text-anchor="middle" x="321.7254" y="-244.9665" font-family="Times,serif" font-size="14.00" fill="#000000">L</text>
</g>
<!-- G__31630 -->
<g id="node4" class="node">
<title>G__31630</title>
<polygon fill="none" stroke="#000000" points="383.2254,-193.0833 302.4536,-175.0833 383.2254,-157.0833 463.9972,-175.0833 383.2254,-193.0833"/>
<text text-anchor="middle" x="383.2254" y="-171.3833" font-family="Times,serif" font-size="14.00" fill="#000000">&lt;line&#45;items&gt;</text>
</g>
<!-- G__31629&#45;&gt;G__31630 -->
<g id="edge3" class="edge">
<title>G__31629&#45;&gt;G__31630</title>
<path fill="none" stroke="#000000" d="M383.2254,-273.9812C383.2254,-251.6863 383.2254,-224.0215 383.2254,-203.6256"/>
<polygon fill="#000000" stroke="#000000" points="386.7255,-203.4065 383.2254,-193.4065 379.7255,-203.4065 386.7255,-203.4065"/>
<text text-anchor="middle" x="387.2254" y="-244.9665" font-family="Times,serif" font-size="14.00" fill="#000000">P</text>
</g>
<!-- G__31634 -->
<g id="node8" class="node">
<title>G__31634</title>
<ellipse fill="#000000" stroke="#000000" cx="484.2254" cy="-175.0833" rx="1.8" ry="1.8"/>
</g>
<!-- G__31629&#45;&gt;G__31634 -->
<g id="edge7" class="edge">
<title>G__31629&#45;&gt;G__31634</title>
<path fill="none" stroke="#000000" d="M417.5183,-286.4752C436.6926,-270.3404 459.4378,-247.9349 473.2254,-223.1665 479.4808,-211.9291 482.1825,-197.3276 483.3472,-187.177"/>
<polygon fill="#000000" stroke="#000000" points="486.8483,-187.3032 484.1626,-177.0544 479.8709,-186.7411 486.8483,-187.3032"/>
<text text-anchor="middle" x="465.2254" y="-244.9665" font-family="Times,serif" font-size="14.00" fill="#000000">R</text>
</g>
<!-- G__31631 -->
<g id="node5" class="node">
<title>G__31631</title>
<ellipse fill="#000000" stroke="#000000" cx="310.2254" cy="-38" rx="1.8" ry="1.8"/>
</g>
<!-- G__31630&#45;&gt;G__31631 -->
<g id="edge4" class="edge">
<title>G__31630&#45;&gt;G__31631</title>
<path fill="none" stroke="#000000" d="M371.4605,-159.378C357.7594,-140.46 335.2231,-107.3068 321.2254,-76 317.4181,-67.4847 314.5545,-57.3094 312.7049,-49.632"/>
<polygon fill="#000000" stroke="#000000" points="316.1121,-48.8285 310.5619,-39.8038 309.2728,-50.3199 316.1121,-48.8285"/>
<text text-anchor="middle" x="342.7254" y="-97.8" font-family="Times,serif" font-size="14.00" fill="#000000">L</text>
</g>
<!-- G__31632 -->
<g id="node6" class="node">
<title>G__31632</title>
<polygon fill="none" stroke="#000000" points="383.2254,-76 330.2254,-38 383.2254,0 436.2254,-38 383.2254,-76"/>
<text text-anchor="middle" x="383.2254" y="-41.8" font-family="Times,serif" font-size="14.00" fill="#000000">&lt;cart&gt;</text>
<text text-anchor="middle" x="383.2254" y="-26.8" font-family="Times,serif" font-size="14.00" fill="#000000">Top</text>
</g>
<!-- G__31630&#45;&gt;G__31632 -->
<g id="edge5" class="edge">
<title>G__31630&#45;&gt;G__31632</title>
<path fill="none" stroke="#000000" d="M383.2254,-156.8797C383.2254,-138.9724 383.2254,-110.8486 383.2254,-86.4505"/>
<polygon fill="#000000" stroke="#000000" points="386.7255,-86.2629 383.2254,-76.2629 379.7255,-86.2629 386.7255,-86.2629"/>
<text text-anchor="middle" x="387.2254" y="-97.8" font-family="Times,serif" font-size="14.00" fill="#000000">P</text>
</g>
<!-- G__31633 -->
<g id="node7" class="node">
<title>G__31633</title>
<ellipse fill="none" stroke="#000000" cx="508.2254" cy="-38" rx="53.8905" ry="18"/>
<text text-anchor="middle" x="508.2254" y="-34.3" font-family="Times,serif" font-size="14.00" fill="#000000">&lt;customer&gt;</text>
</g>
<!-- G__31630&#45;&gt;G__31633 -->
<g id="edge6" class="edge">
<title>G__31630&#45;&gt;G__31633</title>
<path fill="none" stroke="#000000" d="M397.0802,-159.8892C418.4619,-136.4406 459.7219,-91.1921 485.512,-62.909"/>
<polygon fill="#000000" stroke="#000000" points="488.1948,-65.1614 492.3465,-55.4139 483.0223,-60.4448 488.1948,-65.1614"/>
<text text-anchor="middle" x="462.2254" y="-97.8" font-family="Times,serif" font-size="14.00" fill="#000000">R</text>
</g>
</g>
</svg>
