<?xml version="1.0" encoding="UTF-8" standalone="no"?>
<!-- Created with Inkscape (http://www.inkscape.org/) -->

<svg
   xmlns:dc="http://purl.org/dc/elements/1.1/"
   xmlns:cc="http://creativecommons.org/ns#"
   xmlns:rdf="http://www.w3.org/1999/02/22-rdf-syntax-ns#"
   xmlns:svg="http://www.w3.org/2000/svg"
   xmlns="http://www.w3.org/2000/svg"
   xmlns:xlink="http://www.w3.org/1999/xlink"
   xmlns:sodipodi="http://sodipodi.sourceforge.net/DTD/sodipodi-0.dtd"
   xmlns:inkscape="http://www.inkscape.org/namespaces/inkscape"
   version="1.1"
   width="1024"
   height="768"
   id="svg2"
   inkscape:version="0.48.4 r9939"
   sodipodi:docname="ts.svg">
  <sodipodi:namedview
     pagecolor="#ffffff"
     bordercolor="#666666"
     borderopacity="1"
     objecttolerance="10"
     gridtolerance="10"
     guidetolerance="10"
     inkscape:pageopacity="0"
     inkscape:pageshadow="2"
     inkscape:window-width="1916"
     inkscape:window-height="1076"
     id="namedview12"
     showgrid="false"
     inkscape:zoom="0.83600646"
     inkscape:cx="232.01895"
     inkscape:cy="354.74366"
     inkscape:window-x="0"
     inkscape:window-y="0"
     inkscape:window-maximized="0"
     inkscape:current-layer="svg2" />
  <metadata
     id="metadata8">
    <rdf:RDF>
      <cc:Work
         rdf:about="">
        <dc:format>image/svg+xml</dc:format>
        <dc:type
           rdf:resource="http://purl.org/dc/dcmitype/StillImage" />
        <dc:title />
      </cc:Work>
    </rdf:RDF>
  </metadata>
  <defs
     id="defs6" />
  <g
     transform="matrix(3.4257741,0,0,3.4257741,386.18721,1039.0797)"
     id="g3807">
    <path
       d="m -40.347042,-183.09194 c 23.31536,4.15003 28.053793,1.05374 27.792156,-23.71862 -0.296149,-28.04007 2.27388,-39.23497 21.9396295,-47.00735 16.8366135,-6.65423 32.2168015,5.09357 32.2168015,5.09357 l -4.838885,-10.69649 5.214505,-4.07485 0.37429,-6.36696 37.49686,-22.63679 2.75644,3.28124 6.75802,0 c 0,0 7.15829,28.16298 13.256065,41.25789 5.24464,11.26278 19.82121,31.56465 19.82121,31.56465 l -1.63356,4.59966 1.19614,5.02162 -22.874685,14.70955 -5.31735,-3.68644 -5.31735,1.43935 c 0,0 -12.76481,-10.60776 -18.11305,-15.95601 -5.34824,-5.34824 -17.76966,-20.12356 -17.76966,-20.12356 0,0 4.57566,34.73061 -8.68864,50.93963 -12.869565,15.72666 -27.466628,19.35555 -27.466628,19.35555 l 0,24.6729 c 0,0 -0.283039,1.78275 -2.572493,1.78275 -2.212665,0 -2.707557,-1.78275 -2.707557,-1.78275 l 0,-24.37453 c 0,0 -16.7637465,2.9661 -30.007017,-0.09 -13.243271,-3.05614 -30.15753,-18.90534 -30.15753,-18.90534 0,0 6.664533,3.43102 12.404643,4.59834 7.74849,1.57574 10.951166,-1.18203 10.951166,-1.18203 z"
       id="path2987"
       style="fill:#000000;stroke:none"
       inkscape:connector-curvature="0" />
    <path
       d="m 41.105425,-258.08888 c 1.35784,-1.97503 3.95007,-3.57975 3.95007,-3.57975 l 0.12344,-6.04854 33.94591,-20.49099 2.71568,2.59223 5.9251,-0.6172 c 4.19695,36.90847 31.353685,70.97783 31.353685,70.97783 l -1.48128,3.45631 1.23439,3.70319 -18.63939,11.85021 -3.209425,-1.97503 -7.7767,0 c 0,0 -30.73648,-22.21915 -48.14148,-59.86826 z"
       id="path3014"
       style="fill:#ffffff;stroke:none"
       inkscape:connector-curvature="0" />
    <path
       d="m -13.126303,-178.47015 c 17.7906295,-7.87985 10.2804655,-44.83558 36.534097,-49.58759 12.626087,-1.54783 18.473421,19.79084 12.826302,37.65467 -4.19174,13.25996 -17.466723,25.16797 -32.7637855,24.92124 2.650428,-2.33039 6.6240405,-3.94474 7.9512855,-6.99114 -9.3972715,4.72843 -23.998337,2.86361 -23.998337,2.86361 0,0 11.3539215,-6.11754 14.3715005,-8.99795 -3.747036,0.34913 -9.784092,0.41656 -14.9210625,0.13716 z"
       id="path3008"
       style="fill:#e00079;fill-opacity:1;stroke:none"
       inkscape:connector-curvature="0" />
    <path
       d="m 95.568614,53.618664 a 5.6633255,5.804909 0 1 1 -11.326651,0 5.6633255,5.804909 0 1 1 11.326651,0 z"
       transform="matrix(0.37651248,0,0,0.37651248,0.52060251,-260.23698)"
       id="path3012"
       style="color:#000000;fill:#ffffff;fill-opacity:1;fill-rule:nonzero;stroke:none;stroke-width:19.79999924;marker:none;visibility:visible;display:inline;overflow:visible;enable-background:accumulate"
       inkscape:connector-curvature="0" />
    <path
       d="m 47.771165,-257.47168 0.37032,-3.70319 c 0.20332,-2.03315 26.7065,-17.58233 29.87241,-19.38003 1.26503,-0.71832 4.76492,0.057 5.06102,1.48127 1.69158,8.13692 15.84183,46.62793 28.884885,61.34954 0.99173,1.11936 1.63991,3.61923 0.74064,4.81414 -2.31996,3.08269 -13.480485,9.37639 -15.676835,10.59085 -1.44079,0.79668 -3.90736,1.50763 -5.30791,0.64217 -11.05892,-6.83384 -44.62899,-48.95018 -43.94453,-55.79475 z"
       id="path3016"
       style="fill:none;stroke:#666666;stroke-width:0.64875823;stroke-linecap:butt;stroke-linejoin:round;stroke-miterlimit:4;stroke-opacity:1;stroke-dasharray:none"
       inkscape:connector-curvature="0" />
    <path
       d="m 61.954245,-243.86609 3.99608,6.92652 13.68076,-7.98237 z"
       id="path3805"
       style="fill:#e00079;fill-opacity:1;stroke:none"
       inkscape:connector-curvature="0" />
  </g>
  <image
     y="252.23569"
     x="-1985.2753"
     id="image3051"
     xlink:href="file:///home/arne/2015-07-02-183049_929x431_scrot.png"
     height="431"
     width="929" />
  <path
     style="fill:#000000"
     d="m 907.38328,687.09765 c -31.5723,0 -32.5,0.0557 -32.5,1.95295 0,5.50641 5.4005,12.84306 12.2457,16.63576 5.0827,2.8162 5.6789,2.90803 18.2543,2.81142 11.0974,-0.0853 14.0976,-0.47019 20.5,-2.63028 5.772,-1.94741 7.6678,-2.24171 8.2285,-1.27733 1.0324,1.77581 -0.3011,17.2245 -1.6455,19.06307 -0.6152,0.84135 -4.7106,2.48233 -9.1008,3.64662 -9.7242,2.57887 -36.2297,3.18011 -42.9822,0.97499 -17.8855,-5.84074 -27.7839,-15.34152 -32.5071,-31.20103 -2.9763,-9.99375 -2.7644,-24.35746 0.5071,-34.37942 1.375,-4.2122 2.5,-7.86964 2.5,-8.12765 0,-1.03106 -6.7176,-0.38817 -8.1596,0.7809 -0.848,0.6875 -4.3479,8 -7.7776,16.25 -3.4297,8.25 -7.0558,16.8 -8.0578,19 -2.5979,5.70343 -4.1362,9.27923 -10.5394,24.5 -3.1236,7.425 -6.1937,13.83061 -6.8225,14.23469 -0.6287,0.40408 -7.1338,0.74158 -14.4558,0.75 l -13.3127,0.0153 -3.0415,-6.75 c -1.6728,-3.7125 -4.1667,-9.225 -5.5419,-12.25 -1.3753,-3.025 -4.0853,-9.325 -6.0223,-14 -1.937,-4.675 -4.8636,-11.425 -6.5036,-15 -1.6399,-3.575 -3.8566,-8.71399 -4.9259,-11.41998 -1.0693,-2.70599 -3.1241,-7.32961 -4.5662,-10.27471 -2.5871,-5.28353 -3.4146,-5.86577 -9.2732,-6.5243 l -2.5,-0.28101 -0.2656,28.25 -0.2656,28.25 4.3932,0 c 6.0641,0 6.7769,1.23643 6.43,11.15308 l -0.292,8.34692 -22.7048,0.26866 c -26.6379,0.3152 -25.3512,0.89757 -24.3617,-11.02624 0.324,-3.90412 0.7533,-7.26255 0.9539,-7.46318 0.2006,-0.20062 2.1081,-0.64011 4.2387,-0.97664 2.1306,-0.33653 4.2045,-1.10478 4.6086,-1.70723 0.8791,-1.31066 1.0316,-94.73796 0.1583,-97.01358 -0.4481,-1.16765 -1.9976,-1.58179 -5.9182,-1.58179 -8.3035,0 -8.4748,-0.17012 -8.4748,-8.41586 0,-11.07036 -0.815,-10.67782 21.5034,-10.35711 l 18.9966,0.27297 0.5,21.85635 0.5,21.85635 23,-0.11815 c 12.65,-0.065 23.5819,0.26321 24.2931,0.72931 0.9291,0.60891 1.2106,3.21381 1,9.25459 l -0.2931,8.40714 -2.9878,0.51491 c -3.9735,0.68479 -4.1882,2.64298 -1.1809,10.77404 1.3681,3.699 4.3595,11.90046 6.6477,18.22546 2.2881,6.325 4.9022,13.25396 5.8091,15.39769 l 1.6488,3.8977 1.4019,-3.3977 c 0.771,-1.86873 3.1064,-8.12269 5.1896,-13.89769 2.0833,-5.775 5.1769,-14.325 6.8747,-19 4.1921,-11.54282 4.1386,-12 -1.4031,-12 l -4.5,0 0,-8.98095 c 0,-8.48327 0.1247,-9.01155 2.25,-9.53321 1.2375,-0.30375 11.475,-0.42482 22.75,-0.26905 l 20.5,0.28321 0.2558,6.5 c 0.1407,3.575 0.5149,7.62455 0.8315,8.99901 l 0.5758,2.49901 1.251,-2.33758 c 2.357,-4.40405 11.0853,-12.37204 16.5859,-15.14113 13.4655,-6.77872 33.6637,-6.84192 46.7601,-0.14632 13.8782,7.0953 17.73707,17.94046 18.18563,50.76018 z m 2.25,-18.95899 c 1.7532,-0.0575 1.5562,-4.5342 -0.367,-8.34067 -2.6724,-5.28934 -5.5153,-7.68294 -11.0288,-9.28575 -8.7933,-2.55629 -17.4538,0.93991 -21.3768,8.62979 -1.8114,3.55062 -2.5826,8.01692 -1.5608,9.03895 0.3142,0.31433 24.3667,0.28468 34.3334,-0.0423 z m -359.25,61.28928 c -7.0546,-0.58819 -20.9279,-3.56846 -23.25,-4.99458 -2.1361,-1.31188 -2.25,-2.00321 -2.25,-13.65876 0,-8.21541 0.397,-12.67394 1.2,-13.47695 1.6956,-1.69563 20.1932,-1.63603 21.6088,0.0696 0.5795,0.69829 1.1971,3.23862 1.3724,5.64518 0.3088,4.23891 0.4593,4.41741 4.8188,5.7152 6.4918,1.9326 16.6808,1.69873 21.5,-0.49348 5.0287,-2.28753 6.6067,-4.18328 6.7172,-8.07021 0.1648,-5.79616 -4.0015,-7.99343 -19.0704,-10.05752 -19.1318,-2.62062 -27.0591,-4.84098 -31.5265,-8.83027 -8.5444,-7.62986 -10.1764,-24.46685 -3.368,-34.74574 9.994,-15.08821 35.7875,-19.67409 66.6166,-11.84391 8.1346,2.06607 8.1311,2.05957 8.1311,15.06531 l 0,11.40929 -11.75,-0.28173 -11.75,-0.28174 -0.3064,-4.22663 c -0.3282,-4.52862 -0.8459,-4.85383 -10.9407,-6.87278 -7.5763,-1.51525 -19.2529,4.02287 -19.2529,9.13153 0,4.21503 5.1003,6.59229 17,7.92375 26.366,2.9501 38.1653,9.08585 40.4686,21.04415 0.6427,3.33643 0.9049,3.66821 1.5807,2 0.4456,-1.1 0.8578,-5.15 0.916,-9 0.3638,-24.04622 15.4862,-43.78526 37.095,-48.4195 11.5666,-2.48061 29.2727,-0.86179 38.5637,3.52578 10.3281,4.87731 17.1162,12.76728 21.4861,24.97363 2.9643,8.28045 3.2257,29.30863 0.4651,37.42009 -4.7674,14.00788 -14.1294,23.50427 -28.7853,29.19856 -7.4477,2.89369 -29.6686,3.13264 -37.7899,0.40637 -8.2677,-2.77543 -15.4621,-7.18696 -19.8498,-12.17168 -4.1583,-4.72402 -9.1502,-14.2051 -9.1502,-17.3788 0,-2.80485 -1.0853,-5.11979 -2.1048,-4.48969 -0.4924,0.3043 -0.8952,1.90245 -0.8952,3.55144 0,4.67432 -2.1096,12.02846 -4.5862,15.98763 -8.2107,13.12581 -25.7164,18.49409 -52.9138,16.22646 z m 117.7997,-22.95088 c 6.9348,-3.51168 9.3327,-7.28341 11.3538,-17.85896 1.1334,-5.93065 1.1151,-8.23311 -0.122,-15.32088 -2.42,-13.86447 -7.1122,-19.07514 -17.9613,-19.946 -8.2057,-0.65867 -12.7037,0.91624 -17.0205,5.95938 -4.699,5.48977 -6.8412,12.41583 -6.8801,22.24457 -0.05,12.61849 3.5236,20.48259 11.1341,24.50193 4.7298,2.49799 14.9572,2.7183 19.496,0.41996 z m -549.2997,20.66705 c -1.375,-0.47933 -3.7014,-1.13538 -5.1697,-1.45788 -4.4166,-0.97005 -10.4208,-7.72234 -11.3222,-12.73282 -0.431,-2.39567 -1.0591,-16.73076 -1.3959,-31.85576 l -0.6122,-27.5 -5.542193,-0.2937 -5.5421,-0.2937 -0.064,-6.9563 -0.064,-6.9563 5.2968,0 c 2.913996,0 5.616693,-0.51749 6.007793,-1.15033 0.391,-0.63268 0.7551,-4.79518 0.809,-9.25 l 0.098,-8.09967 6.5,-0.61946 c 3.575,-0.34071 8.1875,-0.96209 10.25,-1.38085 l 3.75,-0.76137 0,8.69658 c 0,13.73933 -3.1328,12.5651 33.523,12.5651 l 31.4527,0 0.2621,37.25 0.2622,37.25 5.25,0.30226 5.25,0.30226 0,6.94774 0,6.94774 -21,0 -21,0 0,-6 c 0,-3.3 -0.1125,-6.3375 -0.25,-6.75 -0.1375,-0.4125 1.55,-0.88546 3.75,-1.05102 2.2325,-0.168 4.5524,-1.02575 5.25,-1.94113 0.9292,-1.21924 1.25,-8.62692 1.25,-28.86719 0,-14.9749 -0.2731,-27.93889 -0.607,-28.80887 -0.5265,-1.37219 -3.3614,-1.58179 -21.393,-1.58179 -18.0316,0 -20.8665,0.2096 -21.393,1.58179 -0.3339,0.86998 -0.607,11.66689 -0.607,23.99314 0,19.06931 0.2589,23.00886 1.7359,26.41821 0.9547,2.20377 2.2566,4.00686 2.893,4.00686 0.6364,0 1.4395,0.73583 1.7846,1.63519 0.5386,1.40344 1.9586,1.56556 10.0199,1.1439 l 9.3924,-0.49129 -0.535,5.6061 c -0.2942,3.08336 -1.0531,6.16316 -1.6865,6.84401 -2.5521,2.7435 -21.4748,5.09675 -26.6043,3.30855 z m 116.5386,0.016 c -0.3612,-0.58438 -2.1191,-1.06246 -3.9065,-1.06246 -1.7874,0 -4.1234,-0.66069 -5.191,-1.4682 -1.0676,-0.8075 -2.9536,-1.4825 -4.1911,-1.5 -1.2375,-0.0175 -2.25,-0.45148 -2.25,-0.96441 0,-0.51294 -0.8788,-1.21152 -1.9528,-1.55241 -5.3811,-1.70788 -13.4192,-13.02432 -17.0581,-24.01498 -1.6974,-5.12686 -1.6882,-23.79316 0.014,-29.03891 3.9667,-12.22176 10.0386,-20.20246 18.9016,-24.84354 6.5219,-3.41518 7.0479,-3.61755 9.4032,-3.61755 1.2845,0 4.4691,-0.72702 7.077,-1.6156 5.0551,-1.72246 9.3154,-1.60849 24.6147,0.65849 4.675,0.69271 9.0392,1.67724 9.6983,2.18783 0.8266,0.64036 1.1368,4.39349 1,12.09881 l -0.1983,11.17047 -8.5,0 -8.5,0 0.3271,-4.33605 c 0.4719,-6.25512 -1.578,-8.16815 -8.7321,-8.14889 -3.0772,0.008 -7.3927,0.64065 -9.5899,1.40527 -4.104,1.42817 -12.5051,8.8464 -12.5051,11.04203 0,0.6767 -0.7661,2.762 -1.7025,4.634 -2.3969,4.79177 -2.4181,19.14014 -0.035,23.80728 0.9557,1.872 1.7378,3.85452 1.7378,4.40561 0,1.90089 5.1694,7.77249 8.8296,10.02898 5.9816,3.68757 12.064,5.18043 20.099,4.9331 4.0858,-0.12577 7.8883,-0.68827 8.45,-1.25 0.5618,-0.56173 2.4164,-1.02133 4.1214,-1.02133 1.705,0 3.64,-0.54 4.3,-1.2 0.9333,-0.93333 1.2,0.59666 1.2,6.88499 0,7.31769 -0.2169,8.22708 -2.2851,9.58221 -2.745,1.79862 -8.7825,2.70705 -22.3673,3.36552 -6.6037,0.32009 -10.3819,0.12074 -10.809,-0.57031 z m 43.7218,-6.06246 0.1212,-7 4.2022,0 c 2.9094,0 4.389,-0.48665 4.8092,-1.58179 1.1352,-2.95827 0.6851,-96.40377 -0.4748,-98.57104 -0.9279,-1.73373 -1.8883,-1.97338 -6.75,-1.68426 l -5.6682,0.33709 0,-6.82685 0,-6.82684 17.2504,-0.17316 17.2503,-0.17315 -3e-4,39.28138 c -4e-4,34.85837 0.1773,39.34958 1.5777,39.88696 0.8794,0.33746 2.761,-0.32582 4.25,-1.49819 1.4695,-1.15706 7.7339,-5.78569 13.9208,-10.28584 12.4925,-9.08667 13.1744,-10.88431 4.1287,-10.88431 l -4.8776,0 0,-7 0,-7 21,0 21,0 0,7 0,7 -3.0845,0 c -2.9984,0 -10.49,4.9964 -18.4011,12.27235 -1.6579,1.52479 -5.3769,4.41209 -8.2644,6.41622 -2.8875,2.00413 -5.25,4.39655 -5.25,5.31649 0,0.91995 3.7125,5.53953 8.25,10.26574 4.5375,4.72622 11.5701,12.22374 15.6279,16.66116 7.0738,7.73549 7.5581,8.06804 11.75,8.06804 l 4.3721,0 0,7 0,7 -23,0 -23,0 0,-6.9425 0,-6.9425 4.25,-0.3075 c 3.8323,-0.27728 4.2237,-0.54519 3.9819,-2.726 -0.1474,-1.33018 -1.1378,-3.02771 -2.2008,-3.77228 -2.1776,-1.52521 -1.9811,-1.32209 -11.5311,-11.92159 -10.5474,-11.70645 -11.4559,-12.56887 -12.7784,-12.1297 -1.3141,0.43637 -2.3209,24.13533 -1.2149,28.5962 0.4997,2.01562 1.0805,2.29613 4.0385,1.9508 l 3.4548,-0.40333 0,7.2992 0,7.2992 -19.4304,0 -19.4304,0 z m 134.2396,6.05611 c -1.1,-0.50355 -3.426,-0.94717 -5.169,-0.98582 -1.7429,-0.0387 -4.4429,-0.71776 -6,-1.50911 -1.557,-0.79135 -4.6111,-2.20639 -6.7867,-3.14453 -8.0371,-3.4656 -17.1307,-15.77705 -19.1429,-25.91665 -1.9264,-9.70709 -0.5086,-30.53566 2.2675,-33.31172 0.7321,-0.73212 1.3311,-2.04402 1.3311,-2.91532 0,-1.91544 4.116,-7.65422 8.4773,-11.81955 4.3305,-4.13593 12.6221,-8.08653 20.8347,-9.9269 8.5196,-1.90914 11.4322,-1.87084 20.1896,0.26548 12.2794,2.99552 20.3745,9.34761 25.3514,19.89299 1.2499,2.64826 2.6942,5.59641 3.2097,6.55145 0.5155,0.95504 0.9533,3.20504 0.9729,5 0.02,1.79496 0.6238,5.73857 1.3428,8.76357 0.7189,3.025 1.1154,6.0625 0.881,6.75 -0.3283,0.96312 -7.3788,1.25 -30.7203,1.25 -23.0166,0 -30.5429,0.30029 -31.3294,1.25 -2.3949,2.89177 1.9634,13.87968 6.9502,17.52228 0.958,0.69975 2.4068,1.93725 3.2195,2.75 0.8128,0.81274 2.3724,1.47772 3.4658,1.47772 1.0935,0 2.175,0.5625 2.4033,1.25 0.2952,0.88851 4.093,1.34619 13.1329,1.58261 12.5738,0.32885 15.3575,-0.10791 25.5132,-4.00305 2.3829,-0.91396 2.3914,-0.89278 1.7586,4.37602 -0.3497,2.91193 -0.6397,6.47718 -0.6445,7.92278 -0.01,2.23119 -0.6509,2.81309 -4.2587,3.85083 -9.8254,2.82619 -33.5218,4.78356 -37.25,3.07692 z m 23.3961,-56.30611 c 1.6235,-4.31448 -0.4696,-11.22663 -4.7509,-15.68915 -5.2347,-5.45644 -16.5592,-6.74153 -23.6452,-2.68325 -5.7376,3.28598 -9.4255,9.01491 -9.4668,14.70573 -0.018,2.52084 0.2668,4.88334 0.6335,5.25 0.3666,0.36667 8.7028,0.66667 18.5247,0.66667 17.602,0 17.8702,-0.0323 18.7047,-2.25 z m 51.889,55.81133 c -7.3791,-2.09124 -11.0792,-4.70083 -13.5351,-9.5461 -2.1805,-4.30193 -2.25,-5.34016 -2.25,-33.62013 0,-32.74598 0.6061,-30.3951 -7.8365,-30.3951 l -4.6729,0 0.063,-7.21296 0.063,-7.21296 4.7439,0.29172 c 6.8916,0.4238 7.6387,-0.60194 7.6387,-10.48824 l 0,-8.37756 5.25,-0.0245 c 2.8875,-0.0134 7.2219,-0.47905 9.632,-1.03469 2.4101,-0.55563 4.6308,-0.76141 4.9349,-0.45729 0.3041,0.30412 0.4887,4.26144 0.4103,8.79405 -0.079,4.53262 0.2705,8.9119 0.7756,9.73175 0.6986,1.13405 3.7384,1.61024 12.7077,1.99063 l 11.7895,0.5 0.046,6.75 0.047,6.75 -11.6741,0 c -8.2473,0 -11.985,0.37462 -12.7333,1.27623 -0.6663,0.80292 -1.0903,9.18298 -1.1433,22.59593 -0.1288,32.6601 1.5717,35.98841 17.8184,34.87484 l 8.1393,-0.55783 0,5.25045 c 0,3.98458 -0.4833,5.68787 -2.0047,7.06469 -3.8442,3.47893 -20.3934,5.27233 -28.2102,3.05707 z"
     id="path3054"
     inkscape:connector-curvature="0"
     sodipodi:nodetypes="csssscsssssssscscscscscssscccsscsscscsssscccssscssccccccscssscscccsscccssscccsssscsssssssssccccssscccsscssssscssssssssssscssscccccssscsscsscccccccccssscscscssscsccccccsssscscsssssscccscssscssscscsssccccsccscccccsscsscccccccssssssscccccccsccsscsccccccsccsscsssscscccscccscssccssscsccsscssscccssccssccscccscsscsscc" />
</svg>
