<?xml version="1.0" encoding="UTF-8" standalone="no"?>
<!DOCTYPE svg PUBLIC "-//W3C//DTD SVG 1.1//EN"
 "http://www.w3.org/Graphics/SVG/1.1/DTD/svg11.dtd">
<!-- Generated by graphviz version 2.26.3 (20100126.1600)
 -->
<!-- Title: foo Pages: 1 -->
<svg width="274pt" height="152pt"
 viewBox="0.00 0.00 274.00 152.00" xmlns="http://www.w3.org/2000/svg" xmlns:xlink="http://www.w3.org/1999/xlink">
<g id="graph1" class="graph" transform="scale(1 1) rotate(0) translate(4 148)">
<title>foo</title>
<polygon fill="white" stroke="white" points="-4,5 -4,-148 271,-148 271,5 -4,5"/>
<!-- d1 -->
<g id="node1" class="node"><title>d1</title>
<ellipse fill="none" stroke="black" cx="239" cy="-126" rx="27" ry="18.3848"/>
<text text-anchor="middle" x="239" y="-122.4" font-family="Times Roman,serif" font-size="14.00">div</text>
</g>
<!-- d2 -->
<g id="node2" class="node"><title>d2</title>
<ellipse fill="none" stroke="black" cx="239" cy="-72" rx="27" ry="18.3848"/>
<text text-anchor="middle" x="239" y="-68.4" font-family="Times Roman,serif" font-size="14.00">div</text>
</g>
<!-- d3 -->
<g id="node3" class="node"><title>d3</title>
<ellipse fill="none" stroke="black" cx="239" cy="-18" rx="27" ry="18.3848"/>
<text text-anchor="middle" x="239" y="-14.4" font-family="Times Roman,serif" font-size="14.00">div</text>
</g>
<!-- html -->
<g id="node4" class="node"><title>html</title>
<ellipse fill="none" stroke="black" cx="34" cy="-99" rx="33.9411" ry="18.3848"/>
<text text-anchor="middle" x="34" y="-95.4" font-family="Times Roman,serif" font-size="14.00">html</text>
</g>
<!-- head -->
<g id="node6" class="node"><title>head</title>
<ellipse fill="none" stroke="black" cx="140" cy="-126" rx="34.8574" ry="18.3848"/>
<text text-anchor="middle" x="140" y="-122.4" font-family="Times Roman,serif" font-size="14.00">head</text>
</g>
<!-- html&#45;&#45;head -->
<g id="edge2" class="edge"><title>html&#45;&#45;head</title>
<path fill="none" stroke="black" d="M64.6596,-106.81C78.2336,-110.267 94.2007,-114.334 107.934,-117.832"/>
</g>
<!-- body -->
<g id="node8" class="node"><title>body</title>
<ellipse fill="none" stroke="black" cx="140" cy="-72" rx="34.8574" ry="18.3848"/>
<text text-anchor="middle" x="140" y="-68.4" font-family="Times Roman,serif" font-size="14.00">body</text>
</g>
<!-- html&#45;&#45;body -->
<g id="edge4" class="edge"><title>html&#45;&#45;body</title>
<path fill="none" stroke="black" d="M64.6596,-91.1905C78.2336,-87.7329 94.2007,-83.6659 107.934,-80.1679"/>
</g>
<!-- body&#45;&#45;d1 -->
<g id="edge6" class="edge"><title>body&#45;&#45;d1</title>
<path fill="none" stroke="black" d="M164.218,-85.2099C180.704,-94.2024 202.305,-105.985 218.05,-114.573"/>
</g>
<!-- body&#45;&#45;d2 -->
<g id="edge8" class="edge"><title>body&#45;&#45;d2</title>
<path fill="none" stroke="black" d="M175.741,-72C187.594,-72 200.589,-72 211.702,-72"/>
</g>
<!-- body&#45;&#45;d3 -->
<g id="edge10" class="edge"><title>body&#45;&#45;d3</title>
<path fill="none" stroke="black" d="M164.218,-58.7901C180.704,-49.7976 202.305,-38.0155 218.05,-29.4273"/>
</g>
</g>
</svg>
