<?xml version="1.0" encoding="UTF-8" standalone="no"?>
<!DOCTYPE svg PUBLIC "-//W3C//DTD SVG 1.1//EN"
 "http://www.w3.org/Graphics/SVG/1.1/DTD/svg11.dtd">
<!-- Generated by graphviz version 2.40.1 (20161225.0304)
 -->
<!-- Title: %3 Pages: 1 -->
<svg width="206pt" height="218pt"
 viewBox="0.00 0.00 206.00 218.00" xmlns="http://www.w3.org/2000/svg" xmlns:xlink="http://www.w3.org/1999/xlink">
<g id="graph0" class="graph" transform="scale(1 1) rotate(0) translate(4 214)">
<title>%3</title>
<polygon fill="#ffffff" stroke="transparent" points="-4,4 -4,-214 202,-214 202,4 -4,4"/>
<!-- G__21135 -->
<g id="node1" class="node">
<title>G__21135</title>
<ellipse fill="none" stroke="#000000" cx="27" cy="-105" rx="27" ry="18"/>
<text text-anchor="middle" x="27" y="-101.3" font-family="Times,serif" font-size="14.00" fill="#000000">3</text>
</g>
<!-- G__21136 -->
<g id="node2" class="node">
<title>G__21136</title>
<polygon fill="none" stroke="#000000" points="99,-210 59.4525,-192 99,-174 138.5475,-192 99,-210"/>
<text text-anchor="middle" x="99" y="-188.3" font-family="Times,serif" font-size="14.00" fill="#000000">[4 5]</text>
</g>
<!-- G__21136&#45;&#45;G__21135 -->
<g id="edge1" class="edge">
<title>G__21136&#45;&#45;G__21135</title>
<path fill="none" stroke="#000000" d="M88.0647,-178.7866C75.2401,-163.2901 53.9905,-137.6136 40.2439,-121.0031"/>
<text text-anchor="middle" x="72.5" y="-144.8" font-family="Times,serif" font-size="14.00" fill="#000000">L</text>
</g>
<!-- G__21137 -->
<g id="node3" class="node">
<title>G__21137</title>
<polygon fill="none" stroke="#000000" points="99,-123 72,-105 99,-87 126,-105 99,-123"/>
</g>
<!-- G__21136&#45;&#45;G__21137 -->
<g id="edge2" class="edge">
<title>G__21136&#45;&#45;G__21137</title>
<path fill="none" stroke="#000000" d="M99,-173.9735C99,-159.0422 99,-137.9283 99,-123.0034"/>
<text text-anchor="middle" x="103" y="-144.8" font-family="Times,serif" font-size="14.00" fill="#000000">P</text>
</g>
<!-- G__21140 -->
<g id="node6" class="node">
<title>G__21140</title>
<ellipse fill="none" stroke="#000000" cx="171" cy="-105" rx="27" ry="18"/>
<text text-anchor="middle" x="171" y="-101.3" font-family="Times,serif" font-size="14.00" fill="#000000">6</text>
</g>
<!-- G__21136&#45;&#45;G__21140 -->
<g id="edge5" class="edge">
<title>G__21136&#45;&#45;G__21140</title>
<path fill="none" stroke="#000000" d="M109.9353,-178.7866C122.7599,-163.2901 144.0095,-137.6136 157.7561,-121.0031"/>
<text text-anchor="middle" x="145" y="-144.8" font-family="Times,serif" font-size="14.00" fill="#000000">R</text>
</g>
<!-- G__21138 -->
<g id="node4" class="node">
<title>G__21138</title>
<ellipse fill="none" stroke="#000000" cx="75" cy="-18" rx="27.8951" ry="18"/>
<text text-anchor="middle" x="75" y="-14.3" font-family="Times,serif" font-size="14.00" fill="#000000">[1 2]</text>
</g>
<!-- G__21137&#45;&#45;G__21138 -->
<g id="edge3" class="edge">
<title>G__21137&#45;&#45;G__21138</title>
<path fill="none" stroke="#000000" d="M94.7093,-89.4461C90.5565,-74.3925 84.2677,-51.5955 79.9156,-35.819"/>
<text text-anchor="middle" x="93.5" y="-57.8" font-family="Times,serif" font-size="14.00" fill="#000000">L</text>
</g>
<!-- G__21139 -->
<g id="node5" class="node">
<title>G__21139</title>
<ellipse fill="#000000" stroke="#000000" cx="123" cy="-18" rx="1.8" ry="1.8"/>
</g>
<!-- G__21137&#45;&#45;G__21139 -->
<g id="edge4" class="edge">
<title>G__21137&#45;&#45;G__21139</title>
<path fill="none" stroke="#000000" d="M103.2907,-89.4461C109.3311,-67.5499 119.8907,-29.2711 122.4363,-20.0436"/>
<text text-anchor="middle" x="118" y="-57.8" font-family="Times,serif" font-size="14.00" fill="#000000">R</text>
</g>
</g>
</svg>
