<?xml version="1.0" encoding="UTF-8" standalone="no"?>
<!DOCTYPE svg PUBLIC "-//W3C//DTD SVG 1.1//EN"
 "http://www.w3.org/Graphics/SVG/1.1/DTD/svg11.dtd">
<!-- Generated by graphviz version 2.40.1 (20161225.0304)
 -->
<!-- Title: %3 Pages: 1 -->
<svg width="281pt" height="188pt"
 viewBox="0.00 0.00 281.00 188.00" xmlns="http://www.w3.org/2000/svg" xmlns:xlink="http://www.w3.org/1999/xlink">
<g id="graph0" class="graph" transform="scale(1 1) rotate(0) translate(4 184)">
<title>%3</title>
<polygon fill="#ffffff" stroke="transparent" points="-4,4 -4,-184 277,-184 277,4 -4,4"/>
<!-- G__234531 -->
<g id="node1" class="node">
<title>G__234531</title>
<ellipse fill="none" stroke="#000000" cx="99" cy="-18" rx="27" ry="18"/>
<text text-anchor="middle" x="99" y="-14.3" font-family="Times,serif" font-size="14.00" fill="#000000">:y</text>
</g>
<!-- G__234532 -->
<g id="node2" class="node">
<title>G__234532</title>
<ellipse fill="none" stroke="#000000" cx="27" cy="-18" rx="27" ry="18"/>
<text text-anchor="middle" x="27" y="-14.3" font-family="Times,serif" font-size="14.00" fill="#000000">:x</text>
</g>
<!-- G__234532&#45;&#45;G__234531 -->
<!-- G__234530 -->
<g id="node3" class="node">
<title>G__234530</title>
<ellipse fill="none" stroke="#000000" cx="97" cy="-90" rx="32.4942" ry="18"/>
<text text-anchor="middle" x="97" y="-86.3" font-family="Times,serif" font-size="14.00" fill="#000000">[:x :y]</text>
</g>
<!-- G__234530&#45;&#45;G__234531 -->
<g id="edge1" class="edge">
<title>G__234530&#45;&#45;G__234531</title>
<path fill="none" stroke="#000000" d="M97.5047,-71.8314C97.8056,-61 98.1865,-47.2876 98.4885,-36.4133"/>
</g>
<!-- G__234530&#45;&#45;G__234532 -->
<g id="edge2" class="edge">
<title>G__234530&#45;&#45;G__234532</title>
<path fill="none" stroke="#000000" d="M81.4647,-74.0209C69.7034,-61.9235 53.6424,-45.4036 42.0114,-33.4403"/>
</g>
<!-- G__234529 -->
<g id="node5" class="node">
<title>G__234529</title>
<ellipse fill="#3388ff" stroke="#3388ff" cx="175" cy="-90" rx="27.8951" ry="18"/>
<text text-anchor="middle" x="175" y="-86.3" font-family="Times,serif" font-size="14.00" fill="#000000">[1 2]</text>
</g>
<!-- G__234530&#45;&#45;G__234529 -->
<!-- G__234533 -->
<g id="node4" class="node">
<title>G__234533</title>
<ellipse fill="none" stroke="#000000" cx="136" cy="-162" rx="57.6901" ry="18"/>
<text text-anchor="middle" x="136" y="-158.3" font-family="Times,serif" font-size="14.00" fill="#000000">[[:x :y] [1 2]]</text>
</g>
<!-- G__234533&#45;&#45;G__234530 -->
<g id="edge3" class="edge">
<title>G__234533&#45;&#45;G__234530</title>
<path fill="none" stroke="#000000" d="M126.3595,-144.2022C120.2692,-132.9586 112.4377,-118.5003 106.395,-107.3446"/>
</g>
<!-- G__234533&#45;&#45;G__234529 -->
<g id="edge4" class="edge">
<title>G__234533&#45;&#45;G__234529</title>
<path fill="none" stroke="#000000" d="M145.6405,-144.2022C151.7759,-132.8753 159.6784,-118.2859 165.739,-107.0972"/>
</g>
<!-- G__234534 -->
<g id="node6" class="node">
<title>G__234534</title>
<ellipse fill="none" stroke="#000000" cx="174" cy="-18" rx="27" ry="18"/>
<text text-anchor="middle" x="174" y="-14.3" font-family="Times,serif" font-size="14.00" fill="#000000">1</text>
</g>
<!-- G__234529&#45;&#45;G__234534 -->
<g id="edge5" class="edge">
<title>G__234529&#45;&#45;G__234534</title>
<path fill="none" stroke="#000000" d="M174.7477,-71.8314C174.5972,-61 174.4068,-47.2876 174.2557,-36.4133"/>
</g>
<!-- G__234535 -->
<g id="node7" class="node">
<title>G__234535</title>
<ellipse fill="none" stroke="#000000" cx="246" cy="-18" rx="27" ry="18"/>
<text text-anchor="middle" x="246" y="-14.3" font-family="Times,serif" font-size="14.00" fill="#000000">2</text>
</g>
<!-- G__234529&#45;&#45;G__234535 -->
<g id="edge6" class="edge">
<title>G__234529&#45;&#45;G__234535</title>
<path fill="none" stroke="#000000" d="M190.0573,-74.7307C202.1062,-62.512 218.9212,-45.4602 230.9644,-33.2473"/>
</g>
<!-- G__234534&#45;&#45;G__234535 -->
</g>
</svg>
