<?xml version="1.0" encoding="UTF-8" standalone="no"?>
<!DOCTYPE svg PUBLIC "-//W3C//DTD SVG 1.1//EN"
 "http://www.w3.org/Graphics/SVG/1.1/DTD/svg11.dtd">
<!-- Generated by graphviz version 2.40.1 (20161225.0304)
 -->
<!-- Title: %3 Pages: 1 -->
<svg width="291pt" height="345pt"
 viewBox="0.00 0.00 290.99 345.00" xmlns="http://www.w3.org/2000/svg" xmlns:xlink="http://www.w3.org/1999/xlink">
<g id="graph0" class="graph" transform="scale(1 1) rotate(0) translate(4 341)">
<title>%3</title>
<polygon fill="#ffffff" stroke="transparent" points="-4,4 -4,-341 286.9949,-341 286.9949,4 -4,4"/>
<!-- G__41911 -->
<g id="node1" class="node">
<title>G__41911</title>
<ellipse fill="#000000" stroke="#000000" cx="97.1949" cy="-232" rx="1.8" ry="1.8"/>
</g>
<!-- G__41912 -->
<g id="node2" class="node">
<title>G__41912</title>
<polygon fill="none" stroke="#000000" points="185.1949,-337 128.2194,-319 185.1949,-301 242.1704,-319 185.1949,-337"/>
<text text-anchor="middle" x="185.1949" y="-315.3" font-family="Times,serif" font-size="14.00" fill="#000000">&quot;Berlin&quot;</text>
</g>
<!-- G__41912&#45;&gt;G__41911 -->
<g id="edge1" class="edge">
<title>G__41912&#45;&gt;G__41911</title>
<path fill="none" stroke="#000000" d="M168.2737,-306.2348C151.7379,-293.2382 126.4575,-271.9327 108.1949,-250 106.367,-247.8048 104.6318,-245.2762 103.1025,-242.8213"/>
<polygon fill="#000000" stroke="#000000" points="105.9981,-240.8275 98.07,-233.7993 99.8849,-244.2376 105.9981,-240.8275"/>
<text text-anchor="middle" x="144.6949" y="-271.8" font-family="Times,serif" font-size="14.00" fill="#000000">L</text>
</g>
<!-- G__41913 -->
<g id="node3" class="node">
<title>G__41913</title>
<polygon fill="none" stroke="#000000" points="185.1949,-250 117.1596,-232 185.1949,-214 253.2302,-232 185.1949,-250"/>
<text text-anchor="middle" x="185.1949" y="-228.3" font-family="Times,serif" font-size="14.00" fill="#000000">&lt;address&gt;</text>
</g>
<!-- G__41912&#45;&gt;G__41913 -->
<g id="edge2" class="edge">
<title>G__41912&#45;&gt;G__41913</title>
<path fill="none" stroke="#000000" d="M185.1949,-300.9735C185.1949,-289.1918 185.1949,-273.5607 185.1949,-260.1581"/>
<polygon fill="#000000" stroke="#000000" points="188.695,-260.0033 185.1949,-250.0034 181.695,-260.0034 188.695,-260.0033"/>
<text text-anchor="middle" x="189.1949" y="-271.8" font-family="Times,serif" font-size="14.00" fill="#000000">P</text>
</g>
<!-- G__41920 -->
<g id="node10" class="node">
<title>G__41920</title>
<ellipse fill="#000000" stroke="#000000" cx="273.1949" cy="-232" rx="1.8" ry="1.8"/>
</g>
<!-- G__41912&#45;&gt;G__41920 -->
<g id="edge9" class="edge">
<title>G__41912&#45;&gt;G__41920</title>
<path fill="none" stroke="#000000" d="M202.1162,-306.2348C218.652,-293.2382 243.9323,-271.9327 262.1949,-250 264.0228,-247.8048 265.758,-245.2762 267.2873,-242.8213"/>
<polygon fill="#000000" stroke="#000000" points="270.505,-244.2376 272.3198,-233.7993 264.3917,-240.8275 270.505,-244.2376"/>
<text text-anchor="middle" x="250.1949" y="-271.8" font-family="Times,serif" font-size="14.00" fill="#000000">R</text>
</g>
<!-- G__41914 -->
<g id="node4" class="node">
<title>G__41914</title>
<ellipse fill="none" stroke="#000000" cx="50.1949" cy="-145" rx="40.8928" ry="18"/>
<text text-anchor="middle" x="50.1949" y="-141.3" font-family="Times,serif" font-size="14.00" fill="#000000">&lt;name&gt;</text>
</g>
<!-- G__41913&#45;&gt;G__41914 -->
<g id="edge3" class="edge">
<title>G__41913&#45;&gt;G__41914</title>
<path fill="none" stroke="#000000" d="M165.2752,-219.1629C143.3617,-205.0408 107.8359,-182.1464 82.0464,-165.5265"/>
<polygon fill="#000000" stroke="#000000" points="83.6704,-162.4092 73.3687,-159.9342 79.8784,-168.2933 83.6704,-162.4092"/>
<text text-anchor="middle" x="130.6949" y="-184.8" font-family="Times,serif" font-size="14.00" fill="#000000">L</text>
</g>
<!-- G__41915 -->
<g id="node5" class="node">
<title>G__41915</title>
<polygon fill="none" stroke="#000000" points="185.1949,-163 109.1142,-145 185.1949,-127 261.2756,-145 185.1949,-163"/>
<text text-anchor="middle" x="185.1949" y="-141.3" font-family="Times,serif" font-size="14.00" fill="#000000">&lt;customer&gt;</text>
</g>
<!-- G__41913&#45;&gt;G__41915 -->
<g id="edge4" class="edge">
<title>G__41913&#45;&gt;G__41915</title>
<path fill="none" stroke="#000000" d="M185.1949,-213.9735C185.1949,-202.1918 185.1949,-186.5607 185.1949,-173.1581"/>
<polygon fill="#000000" stroke="#000000" points="188.695,-173.0033 185.1949,-163.0034 181.695,-173.0034 188.695,-173.0033"/>
<text text-anchor="middle" x="189.1949" y="-184.8" font-family="Times,serif" font-size="14.00" fill="#000000">P</text>
</g>
<!-- G__41919 -->
<g id="node9" class="node">
<title>G__41919</title>
<ellipse fill="#000000" stroke="#000000" cx="281.1949" cy="-145" rx="1.8" ry="1.8"/>
</g>
<!-- G__41913&#45;&gt;G__41919 -->
<g id="edge8" class="edge">
<title>G__41913&#45;&gt;G__41919</title>
<path fill="none" stroke="#000000" d="M204.6834,-219.1006C223.0285,-206.3229 250.5466,-185.4595 270.1949,-163 272.1482,-160.7673 273.9666,-158.1455 275.54,-155.6042"/>
<polygon fill="#000000" stroke="#000000" points="278.6165,-157.2732 280.3443,-146.8202 272.475,-153.9142 278.6165,-157.2732"/>
<text text-anchor="middle" x="257.1949" y="-184.8" font-family="Times,serif" font-size="14.00" fill="#000000">R</text>
</g>
<!-- G__41916 -->
<g id="node6" class="node">
<title>G__41916</title>
<ellipse fill="none" stroke="#000000" cx="57.1949" cy="-38" rx="57.3905" ry="18"/>
<text text-anchor="middle" x="57.1949" y="-34.3" font-family="Times,serif" font-size="14.00" fill="#000000">&lt;line&#45;items&gt;</text>
</g>
<!-- G__41915&#45;&gt;G__41916 -->
<g id="edge5" class="edge">
<title>G__41915&#45;&gt;G__41916</title>
<path fill="none" stroke="#000000" d="M168.1975,-130.7912C147.0884,-113.1453 110.7751,-82.7897 85.4519,-61.6211"/>
<polygon fill="#000000" stroke="#000000" points="87.5666,-58.827 77.6495,-55.0987 83.0771,-64.1977 87.5666,-58.827"/>
<text text-anchor="middle" x="144.6949" y="-97.8" font-family="Times,serif" font-size="14.00" fill="#000000">L</text>
</g>
<!-- G__41917 -->
<g id="node7" class="node">
<title>G__41917</title>
<polygon fill="none" stroke="#000000" points="185.1949,-76 132.1949,-38 185.1949,0 238.1949,-38 185.1949,-76"/>
<text text-anchor="middle" x="185.1949" y="-41.8" font-family="Times,serif" font-size="14.00" fill="#000000">&lt;cart&gt;</text>
<text text-anchor="middle" x="185.1949" y="-26.8" font-family="Times,serif" font-size="14.00" fill="#000000">Top</text>
</g>
<!-- G__41915&#45;&gt;G__41917 -->
<g id="edge6" class="edge">
<title>G__41915&#45;&gt;G__41917</title>
<path fill="none" stroke="#000000" d="M185.1949,-126.8489C185.1949,-115.7178 185.1949,-100.8915 185.1949,-86.5447"/>
<polygon fill="#000000" stroke="#000000" points="188.695,-86.2423 185.1949,-76.2423 181.695,-86.2423 188.695,-86.2423"/>
<text text-anchor="middle" x="189.1949" y="-97.8" font-family="Times,serif" font-size="14.00" fill="#000000">P</text>
</g>
<!-- G__41918 -->
<g id="node8" class="node">
<title>G__41918</title>
<ellipse fill="#000000" stroke="#000000" cx="258.1949" cy="-38" rx="1.8" ry="1.8"/>
</g>
<!-- G__41915&#45;&gt;G__41918 -->
<g id="edge7" class="edge">
<title>G__41915&#45;&gt;G__41918</title>
<path fill="none" stroke="#000000" d="M201.6945,-130.6855C215.682,-117.7136 235.3112,-97.4011 247.1949,-76 251.7232,-67.8452 254.5427,-57.6479 256.1921,-49.8704"/>
<polygon fill="#000000" stroke="#000000" points="259.6686,-50.3095 257.9582,-39.8537 252.7749,-49.094 259.6686,-50.3095"/>
<text text-anchor="middle" x="240.1949" y="-97.8" font-family="Times,serif" font-size="14.00" fill="#000000">R</text>
</g>
</g>
</svg>
