<?xml version="1.0" encoding="UTF-8" standalone="no"?>
<!DOCTYPE svg PUBLIC "-//W3C//DTD SVG 1.1//EN"
 "http://www.w3.org/Graphics/SVG/1.1/DTD/svg11.dtd">
<!-- Generated by graphviz version 2.40.1 (20161225.0304)
 -->
<!-- Title: %3 Pages: 1 -->
<svg width="352pt" height="260pt"
 viewBox="0.00 0.00 352.00 260.00" xmlns="http://www.w3.org/2000/svg" xmlns:xlink="http://www.w3.org/1999/xlink">
<g id="graph0" class="graph" transform="scale(1 1) rotate(0) translate(4 256)">
<title>%3</title>
<polygon fill="#ffffff" stroke="transparent" points="-4,4 -4,-256 348,-256 348,4 -4,4"/>
<!-- G__29746 -->
<g id="node1" class="node">
<title>G__29746</title>
<ellipse fill="none" stroke="#000000" cx="171" cy="-90" rx="27" ry="18"/>
<text text-anchor="middle" x="171" y="-86.3" font-family="Times,serif" font-size="14.00" fill="#000000">3</text>
</g>
<!-- G__29745 -->
<g id="node7" class="node">
<title>G__29745</title>
<ellipse fill="#3388ff" stroke="#3388ff" cx="244" cy="-90" rx="27.8951" ry="18"/>
<text text-anchor="middle" x="244" y="-86.3" font-family="Times,serif" font-size="14.00" fill="#000000">[4 5]</text>
</g>
<!-- G__29746&#45;&#45;G__29745 -->
<!-- G__29747 -->
<g id="node2" class="node">
<title>G__29747</title>
<ellipse fill="none" stroke="#000000" cx="192" cy="-162" rx="47.3916" ry="18"/>
<text text-anchor="middle" x="192" y="-158.3" font-family="Times,serif" font-size="14.00" fill="#000000">[3 [4 5] 6]</text>
</g>
<!-- G__29747&#45;&#45;G__29746 -->
<g id="edge1" class="edge">
<title>G__29747&#45;&#45;G__29746</title>
<path fill="none" stroke="#000000" d="M186.7008,-143.8314C183.4931,-132.8334 179.419,-118.865 176.2247,-107.9134"/>
</g>
<!-- G__29747&#45;&#45;G__29745 -->
<g id="edge6" class="edge">
<title>G__29747&#45;&#45;G__29745</title>
<path fill="none" stroke="#000000" d="M204.5877,-144.5708C212.8837,-133.0841 223.6883,-118.1239 231.8862,-106.7729"/>
</g>
<!-- G__29754 -->
<g id="node10" class="node">
<title>G__29754</title>
<ellipse fill="none" stroke="#000000" cx="317" cy="-90" rx="27" ry="18"/>
<text text-anchor="middle" x="317" y="-86.3" font-family="Times,serif" font-size="14.00" fill="#000000">6</text>
</g>
<!-- G__29747&#45;&#45;G__29754 -->
<g id="edge9" class="edge">
<title>G__29747&#45;&#45;G__29754</title>
<path fill="none" stroke="#000000" d="M218.2041,-146.9064C241.3992,-133.5461 274.801,-114.3066 296.2031,-101.979"/>
</g>
<!-- G__29748 -->
<g id="node3" class="node">
<title>G__29748</title>
<ellipse fill="none" stroke="#000000" cx="99" cy="-90" rx="27" ry="18"/>
<text text-anchor="middle" x="99" y="-86.3" font-family="Times,serif" font-size="14.00" fill="#000000">2</text>
</g>
<!-- G__29749 -->
<g id="node4" class="node">
<title>G__29749</title>
<ellipse fill="none" stroke="#000000" cx="27" cy="-90" rx="27" ry="18"/>
<text text-anchor="middle" x="27" y="-86.3" font-family="Times,serif" font-size="14.00" fill="#000000">1</text>
</g>
<!-- G__29749&#45;&#45;G__29748 -->
<!-- G__29750 -->
<g id="node5" class="node">
<title>G__29750</title>
<ellipse fill="none" stroke="#000000" cx="99" cy="-162" rx="27.8951" ry="18"/>
<text text-anchor="middle" x="99" y="-158.3" font-family="Times,serif" font-size="14.00" fill="#000000">[1 2]</text>
</g>
<!-- G__29750&#45;&#45;G__29747 -->
<!-- G__29750&#45;&#45;G__29748 -->
<g id="edge3" class="edge">
<title>G__29750&#45;&#45;G__29748</title>
<path fill="none" stroke="#000000" d="M99,-143.8314C99,-133 99,-119.2876 99,-108.4133"/>
</g>
<!-- G__29750&#45;&#45;G__29749 -->
<g id="edge4" class="edge">
<title>G__29750&#45;&#45;G__29749</title>
<path fill="none" stroke="#000000" d="M83.7307,-146.7307C71.512,-134.512 54.4602,-117.4602 42.2473,-105.2473"/>
</g>
<!-- G__29751 -->
<g id="node6" class="node">
<title>G__29751</title>
<ellipse fill="none" stroke="#000000" cx="145" cy="-234" rx="72.5877" ry="18"/>
<text text-anchor="middle" x="145" y="-230.3" font-family="Times,serif" font-size="14.00" fill="#000000">[[1 2] [3 [4 5] 6]]</text>
</g>
<!-- G__29751&#45;&#45;G__29747 -->
<g id="edge2" class="edge">
<title>G__29751&#45;&#45;G__29747</title>
<path fill="none" stroke="#000000" d="M156.618,-216.2022C163.9032,-205.0419 173.2559,-190.7143 180.5157,-179.593"/>
</g>
<!-- G__29751&#45;&#45;G__29750 -->
<g id="edge5" class="edge">
<title>G__29751&#45;&#45;G__29750</title>
<path fill="none" stroke="#000000" d="M133.6292,-216.2022C126.3926,-204.8753 117.0716,-190.2859 109.9232,-179.0972"/>
</g>
<!-- G__29752 -->
<g id="node8" class="node">
<title>G__29752</title>
<ellipse fill="none" stroke="#000000" cx="208" cy="-18" rx="27" ry="18"/>
<text text-anchor="middle" x="208" y="-14.3" font-family="Times,serif" font-size="14.00" fill="#000000">4</text>
</g>
<!-- G__29745&#45;&#45;G__29752 -->
<g id="edge7" class="edge">
<title>G__29745&#45;&#45;G__29752</title>
<path fill="none" stroke="#000000" d="M235.2854,-72.5708C229.6253,-61.2506 222.2784,-46.5568 216.6343,-35.2687"/>
</g>
<!-- G__29753 -->
<g id="node9" class="node">
<title>G__29753</title>
<ellipse fill="none" stroke="#000000" cx="280" cy="-18" rx="27" ry="18"/>
<text text-anchor="middle" x="280" y="-14.3" font-family="Times,serif" font-size="14.00" fill="#000000">5</text>
</g>
<!-- G__29745&#45;&#45;G__29753 -->
<g id="edge8" class="edge">
<title>G__29745&#45;&#45;G__29753</title>
<path fill="none" stroke="#000000" d="M252.7146,-72.5708C258.3747,-61.2506 265.7216,-46.5568 271.3657,-35.2687"/>
</g>
<!-- G__29745&#45;&#45;G__29754 -->
<!-- G__29752&#45;&#45;G__29753 -->
</g>
</svg>
