<?xml version="1.0" encoding="UTF-8" standalone="no"?>
<!DOCTYPE svg PUBLIC "-//W3C//DTD SVG 1.1//EN"
 "http://www.w3.org/Graphics/SVG/1.1/DTD/svg11.dtd">
<!-- Generated by graphviz version 2.40.1 (20161225.0304)
 -->
<!-- Title: %3 Pages: 1 -->
<svg width="516pt" height="418pt"
 viewBox="0.00 0.00 516.34 418.17" xmlns="http://www.w3.org/2000/svg" xmlns:xlink="http://www.w3.org/1999/xlink">
<g id="graph0" class="graph" transform="scale(1 1) rotate(0) translate(4 414.1665)">
<title>%3</title>
<polygon fill="#ffffff" stroke="transparent" points="-4,4 -4,-414.1665 512.3391,-414.1665 512.3391,4 -4,4"/>
<!-- G__32199 -->
<g id="node1" class="node">
<title>G__32199</title>
<ellipse fill="#000000" stroke="#000000" cx="1.8" cy="-175.0833" rx="1.8" ry="1.8"/>
</g>
<!-- G__32200 -->
<g id="node2" class="node">
<title>G__32200</title>
<polygon fill="none" stroke="#000000" points="102.8,-410.1665 14.8,-342.1665 102.8,-274.1665 190.8,-342.1665 102.8,-410.1665"/>
<text text-anchor="middle" x="102.8" y="-360.9665" font-family="Times,serif" font-size="14.00" fill="#000000">&lt;product</text>
<text text-anchor="middle" x="102.8" y="-345.9665" font-family="Times,serif" font-size="14.00" fill="#000000"> price=2.5</text>
<text text-anchor="middle" x="102.8" y="-330.9665" font-family="Times,serif" font-size="14.00" fill="#000000"> qty=1</text>
<text text-anchor="middle" x="102.8" y="-315.9665" font-family="Times,serif" font-size="14.00" fill="#000000"> sku=CH56&gt;</text>
</g>
<!-- G__32200&#45;&gt;G__32199 -->
<g id="edge1" class="edge">
<title>G__32200&#45;&gt;G__32199</title>
<path fill="none" stroke="#000000" d="M65.8391,-302.2973C47.3907,-280.4104 26.2067,-251.9263 12.8,-223.1665 7.366,-211.5096 4.522,-196.9809 3.0992,-186.962"/>
<polygon fill="#000000" stroke="#000000" points="6.5741,-186.5424 1.9493,-177.0102 -.3796,-187.3459 6.5741,-186.5424"/>
<text text-anchor="middle" x="35.3" y="-244.9665" font-family="Times,serif" font-size="14.00" fill="#000000">L</text>
</g>
<!-- G__32201 -->
<g id="node3" class="node">
<title>G__32201</title>
<polygon fill="none" stroke="#000000" points="102.8,-193.0833 22.0282,-175.0833 102.8,-157.0833 183.5718,-175.0833 102.8,-193.0833"/>
<text text-anchor="middle" x="102.8" y="-171.3833" font-family="Times,serif" font-size="14.00" fill="#000000">&lt;line&#45;items&gt;</text>
</g>
<!-- G__32200&#45;&gt;G__32201 -->
<g id="edge2" class="edge">
<title>G__32200&#45;&gt;G__32201</title>
<path fill="none" stroke="#000000" d="M102.8,-273.7253C102.8,-249.2023 102.8,-222.8837 102.8,-203.6047"/>
<polygon fill="#000000" stroke="#000000" points="106.3001,-203.4045 102.8,-193.4045 99.3001,-203.4046 106.3001,-203.4045"/>
<text text-anchor="middle" x="106.8" y="-244.9665" font-family="Times,serif" font-size="14.00" fill="#000000">P</text>
</g>
<!-- G__32205 -->
<g id="node7" class="node">
<title>G__32205</title>
<ellipse fill="none" stroke="#000000" cx="263.8" cy="-175.0833" rx="62.4516" ry="48.1667"/>
<text text-anchor="middle" x="263.8" y="-193.8833" font-family="Times,serif" font-size="14.00" fill="#000000">&lt;product</text>
<text text-anchor="middle" x="263.8" y="-178.8833" font-family="Times,serif" font-size="14.00" fill="#000000"> price=1.7</text>
<text text-anchor="middle" x="263.8" y="-163.8833" font-family="Times,serif" font-size="14.00" fill="#000000"> qty=1</text>
<text text-anchor="middle" x="263.8" y="-148.8833" font-family="Times,serif" font-size="14.00" fill="#000000"> sku=CA94&gt;</text>
</g>
<!-- G__32200&#45;&gt;G__32205 -->
<g id="edge6" class="edge">
<title>G__32200&#45;&gt;G__32205</title>
<path fill="none" stroke="#000000" d="M140.5473,-302.9929C164.1487,-278.4998 194.6569,-246.8389 219.4154,-221.1449"/>
<polygon fill="#000000" stroke="#000000" points="222.1486,-223.3525 226.5671,-213.723 217.108,-218.4954 222.1486,-223.3525"/>
<text text-anchor="middle" x="202.8" y="-244.9665" font-family="Times,serif" font-size="14.00" fill="#000000">R</text>
</g>
<!-- G__32202 -->
<g id="node4" class="node">
<title>G__32202</title>
<ellipse fill="#000000" stroke="#000000" cx="29.8" cy="-38" rx="1.8" ry="1.8"/>
</g>
<!-- G__32201&#45;&gt;G__32202 -->
<g id="edge3" class="edge">
<title>G__32201&#45;&gt;G__32202</title>
<path fill="none" stroke="#000000" d="M91.0351,-159.378C77.334,-140.46 54.7977,-107.3068 40.8,-76 36.9927,-67.4847 34.1291,-57.3094 32.2795,-49.632"/>
<polygon fill="#000000" stroke="#000000" points="35.6867,-48.8285 30.1365,-39.8038 28.8474,-50.3199 35.6867,-48.8285"/>
<text text-anchor="middle" x="62.3" y="-97.8" font-family="Times,serif" font-size="14.00" fill="#000000">L</text>
</g>
<!-- G__32203 -->
<g id="node5" class="node">
<title>G__32203</title>
<polygon fill="none" stroke="#000000" points="102.8,-76 49.8,-38 102.8,0 155.8,-38 102.8,-76"/>
<text text-anchor="middle" x="102.8" y="-41.8" font-family="Times,serif" font-size="14.00" fill="#000000">&lt;cart&gt;</text>
<text text-anchor="middle" x="102.8" y="-26.8" font-family="Times,serif" font-size="14.00" fill="#000000">Top</text>
</g>
<!-- G__32201&#45;&gt;G__32203 -->
<g id="edge4" class="edge">
<title>G__32201&#45;&gt;G__32203</title>
<path fill="none" stroke="#000000" d="M102.8,-156.8797C102.8,-138.9724 102.8,-110.8486 102.8,-86.4505"/>
<polygon fill="#000000" stroke="#000000" points="106.3001,-86.2629 102.8,-76.2629 99.3001,-86.2629 106.3001,-86.2629"/>
<text text-anchor="middle" x="106.8" y="-97.8" font-family="Times,serif" font-size="14.00" fill="#000000">P</text>
</g>
<!-- G__32204 -->
<g id="node6" class="node">
<title>G__32204</title>
<ellipse fill="none" stroke="#000000" cx="227.8" cy="-38" rx="53.8905" ry="18"/>
<text text-anchor="middle" x="227.8" y="-34.3" font-family="Times,serif" font-size="14.00" fill="#000000">&lt;customer&gt;</text>
</g>
<!-- G__32201&#45;&gt;G__32204 -->
<g id="edge5" class="edge">
<title>G__32201&#45;&gt;G__32204</title>
<path fill="none" stroke="#000000" d="M116.6548,-159.8892C138.0365,-136.4406 179.2965,-91.1921 205.0866,-62.909"/>
<polygon fill="#000000" stroke="#000000" points="207.7694,-65.1614 211.9211,-55.4139 202.5969,-60.4448 207.7694,-65.1614"/>
<text text-anchor="middle" x="181.8" y="-97.8" font-family="Times,serif" font-size="14.00" fill="#000000">R</text>
</g>
<!-- G__32206 -->
<g id="node8" class="node">
<title>G__32206</title>
<ellipse fill="none" stroke="#000000" cx="434.8" cy="-175.0833" rx="73.5782" ry="26.7407"/>
<text text-anchor="middle" x="434.8" y="-178.8833" font-family="Times,serif" font-size="14.00" fill="#000000">&lt;discount</text>
<text text-anchor="middle" x="434.8" y="-163.8833" font-family="Times,serif" font-size="14.00" fill="#000000"> amount=10%&gt;</text>
</g>
<!-- G__32205&#45;&gt;G__32206 -->
<g id="edge7" class="edge">
<title>G__32205&#45;&gt;G__32206</title>
<path fill="none" stroke="#000000" d="M326.2551,-175.0833C337.8445,-175.0833 349.4339,-175.0833 361.0234,-175.0833"/>
</g>
</g>
</svg>
