<?xml version="1.0" encoding="UTF-8" standalone="no"?>
<!DOCTYPE svg PUBLIC "-//W3C//DTD SVG 1.1//EN"
 "http://www.w3.org/Graphics/SVG/1.1/DTD/svg11.dtd">
<!-- Generated by graphviz version 2.40.1 (20161225.0304)
 -->
<!-- Title: %3 Pages: 1 -->
<svg width="668pt" height="320pt"
 viewBox="0.00 0.00 668.44 320.17" xmlns="http://www.w3.org/2000/svg" xmlns:xlink="http://www.w3.org/1999/xlink">
<g id="graph0" class="graph" transform="scale(1 1) rotate(0) translate(4 316.1665)">
<title>%3</title>
<polygon fill="#ffffff" stroke="transparent" points="-4,4 -4,-316.1665 664.4389,-316.1665 664.4389,4 -4,4"/>
<!-- G__34298 -->
<g id="node1" class="node">
<title>G__34298</title>
<ellipse fill="none" stroke="#000000" cx="373.3431" cy="-222.1665" rx="57.3905" ry="18"/>
<text text-anchor="middle" x="373.3431" y="-218.4665" font-family="Times,serif" font-size="14.00" fill="#000000">&lt;line&#45;items&gt;</text>
</g>
<!-- G__34297 -->
<g id="node3" class="node">
<title>G__34297</title>
<ellipse fill="#3388ff" stroke="#3388ff" cx="77.3431" cy="-120.0833" rx="62.4516" ry="48.1667"/>
<text text-anchor="middle" x="77.3431" y="-138.8833" font-family="Times,serif" font-size="14.00" fill="#000000">&lt;product</text>
<text text-anchor="middle" x="77.3431" y="-123.8833" font-family="Times,serif" font-size="14.00" fill="#000000"> price=2.9</text>
<text text-anchor="middle" x="77.3431" y="-108.8833" font-family="Times,serif" font-size="14.00" fill="#000000"> qty=1</text>
<text text-anchor="middle" x="77.3431" y="-93.8833" font-family="Times,serif" font-size="14.00" fill="#000000"> sku=CH56&gt;</text>
</g>
<!-- G__34298&#45;&#45;G__34297 -->
<g id="edge2" class="edge">
<title>G__34298&#45;&#45;G__34297</title>
<path fill="none" stroke="#000000" d="M320.6933,-215.0221C273.9635,-207.4147 204.5785,-192.9709 148.3431,-168.1665 139.4895,-164.2614 130.5546,-159.2394 122.1505,-153.9196"/>
</g>
<!-- G__34301 -->
<g id="node5" class="node">
<title>G__34301</title>
<ellipse fill="none" stroke="#000000" cx="219.3431" cy="-120.0833" rx="62.4516" ry="48.1667"/>
<text text-anchor="middle" x="219.3431" y="-138.8833" font-family="Times,serif" font-size="14.00" fill="#000000">&lt;product</text>
<text text-anchor="middle" x="219.3431" y="-123.8833" font-family="Times,serif" font-size="14.00" fill="#000000"> price=1.7</text>
<text text-anchor="middle" x="219.3431" y="-108.8833" font-family="Times,serif" font-size="14.00" fill="#000000"> qty=1</text>
<text text-anchor="middle" x="219.3431" y="-93.8833" font-family="Times,serif" font-size="14.00" fill="#000000"> sku=CA94&gt;</text>
</g>
<!-- G__34298&#45;&#45;G__34301 -->
<g id="edge4" class="edge">
<title>G__34298&#45;&#45;G__34301</title>
<path fill="none" stroke="#000000" d="M348.2028,-205.9816C331.7027,-195.317 309.6785,-181.002 290.3431,-168.1665 282.5292,-162.9794 274.2613,-157.4333 266.2361,-152.019"/>
</g>
<!-- G__34303 -->
<g id="node7" class="node">
<title>G__34303</title>
<ellipse fill="none" stroke="#000000" cx="373.3431" cy="-120.0833" rx="73.5782" ry="26.7407"/>
<text text-anchor="middle" x="373.3431" y="-123.8833" font-family="Times,serif" font-size="14.00" fill="#000000">&lt;discount</text>
<text text-anchor="middle" x="373.3431" y="-108.8833" font-family="Times,serif" font-size="14.00" fill="#000000"> amount=10%&gt;</text>
</g>
<!-- G__34298&#45;&#45;G__34303 -->
<g id="edge6" class="edge">
<title>G__34298&#45;&#45;G__34303</title>
<path fill="none" stroke="#000000" d="M373.3431,-203.9161C373.3431,-188.0877 373.3431,-164.9635 373.3431,-147.0087"/>
</g>
<!-- G__34304 -->
<g id="node8" class="node">
<title>G__34304</title>
<ellipse fill="none" stroke="#000000" cx="503.3431" cy="-222.1665" rx="53.8905" ry="18"/>
<text text-anchor="middle" x="503.3431" y="-218.4665" font-family="Times,serif" font-size="14.00" fill="#000000">&lt;customer&gt;</text>
</g>
<!-- G__34298&#45;&#45;G__34304 -->
<!-- G__34299 -->
<g id="node2" class="node">
<title>G__34299</title>
<ellipse fill="none" stroke="#000000" cx="437.3431" cy="-294.1665" rx="34.394" ry="18"/>
<text text-anchor="middle" x="437.3431" y="-290.4665" font-family="Times,serif" font-size="14.00" fill="#000000">&lt;cart&gt;</text>
</g>
<!-- G__34299&#45;&#45;G__34298 -->
<g id="edge1" class="edge">
<title>G__34299&#45;&#45;G__34298</title>
<path fill="none" stroke="#000000" d="M422.8205,-277.8286C412.7154,-266.4603 399.2559,-251.3184 388.9264,-239.6977"/>
</g>
<!-- G__34299&#45;&#45;G__34304 -->
<g id="edge7" class="edge">
<title>G__34299&#45;&#45;G__34304</title>
<path fill="none" stroke="#000000" d="M452.3196,-277.8286C462.8166,-266.3773 476.8234,-251.0972 487.5056,-239.4438"/>
</g>
<!-- G__34300 -->
<g id="node4" class="node">
<title>G__34300</title>
<ellipse fill="none" stroke="#000000" cx="77.3431" cy="-18" rx="77.1866" ry="18"/>
<text text-anchor="middle" x="77.3431" y="-14.3" font-family="Times,serif" font-size="14.00" fill="#000000">&quot;luxury chocolate&quot;</text>
</g>
<!-- G__34297&#45;&#45;G__34300 -->
<g id="edge3" class="edge">
<title>G__34297&#45;&#45;G__34300</title>
<path fill="none" stroke="#000000" d="M77.3431,-71.7322C77.3431,-59.1579 77.3431,-46.3653 77.3431,-36.4182"/>
</g>
<!-- G__34297&#45;&#45;G__34301 -->
<!-- G__34302 -->
<g id="node6" class="node">
<title>G__34302</title>
<ellipse fill="none" stroke="#000000" cx="219.3431" cy="-18" rx="41.6928" ry="18"/>
<text text-anchor="middle" x="219.3431" y="-14.3" font-family="Times,serif" font-size="14.00" fill="#000000">&quot;Candy&quot;</text>
</g>
<!-- G__34301&#45;&#45;G__34302 -->
<g id="edge5" class="edge">
<title>G__34301&#45;&#45;G__34302</title>
<path fill="none" stroke="#000000" d="M219.3431,-71.7322C219.3431,-59.1579 219.3431,-46.3653 219.3431,-36.4182"/>
</g>
<!-- G__34301&#45;&#45;G__34303 -->
<!-- G__34305 -->
<g id="node9" class="node">
<title>G__34305</title>
<ellipse fill="none" stroke="#000000" cx="505.3431" cy="-120.0833" rx="40.8928" ry="18"/>
<text text-anchor="middle" x="505.3431" y="-116.3833" font-family="Times,serif" font-size="14.00" fill="#000000">&lt;name&gt;</text>
</g>
<!-- G__34304&#45;&#45;G__34305 -->
<g id="edge8" class="edge">
<title>G__34304&#45;&#45;G__34305</title>
<path fill="none" stroke="#000000" d="M503.7007,-203.9161C504.0647,-185.335 504.6258,-156.6996 504.9887,-138.1757"/>
</g>
<!-- G__34307 -->
<g id="node11" class="node">
<title>G__34307</title>
<ellipse fill="none" stroke="#000000" cx="612.3431" cy="-120.0833" rx="48.1917" ry="18"/>
<text text-anchor="middle" x="612.3431" y="-116.3833" font-family="Times,serif" font-size="14.00" fill="#000000">&lt;address&gt;</text>
</g>
<!-- G__34304&#45;&#45;G__34307 -->
<g id="edge10" class="edge">
<title>G__34304&#45;&#45;G__34307</title>
<path fill="none" stroke="#000000" d="M521.8335,-204.8495C542.1202,-185.8501 574.4557,-155.5665 594.487,-136.8063"/>
</g>
<!-- G__34306 -->
<g id="node10" class="node">
<title>G__34306</title>
<ellipse fill="none" stroke="#000000" cx="505.3431" cy="-18" rx="36.2938" ry="18"/>
<text text-anchor="middle" x="505.3431" y="-14.3" font-family="Times,serif" font-size="14.00" fill="#000000">&quot;Arne&quot;</text>
</g>
<!-- G__34305&#45;&#45;G__34306 -->
<g id="edge9" class="edge">
<title>G__34305&#45;&#45;G__34306</title>
<path fill="none" stroke="#000000" d="M505.3431,-101.8328C505.3431,-83.2517 505.3431,-54.6163 505.3431,-36.0924"/>
</g>
<!-- G__34305&#45;&#45;G__34307 -->
<!-- G__34308 -->
<g id="node12" class="node">
<title>G__34308</title>
<ellipse fill="none" stroke="#000000" cx="612.3431" cy="-18" rx="40.0939" ry="18"/>
<text text-anchor="middle" x="612.3431" y="-14.3" font-family="Times,serif" font-size="14.00" fill="#000000">&quot;Berlin&quot;</text>
</g>
<!-- G__34307&#45;&#45;G__34308 -->
<g id="edge11" class="edge">
<title>G__34307&#45;&#45;G__34308</title>
<path fill="none" stroke="#000000" d="M612.3431,-101.8328C612.3431,-83.2517 612.3431,-54.6163 612.3431,-36.0924"/>
</g>
</g>
</svg>
