<?xml version="1.0" encoding="UTF-8" standalone="no"?>
<!DOCTYPE svg PUBLIC "-//W3C//DTD SVG 1.1//EN"
 "http://www.w3.org/Graphics/SVG/1.1/DTD/svg11.dtd">
<!-- Generated by graphviz version 2.40.1 (20161225.0304)
 -->
<!-- Title: %3 Pages: 1 -->
<svg width="366pt" height="171pt"
 viewBox="0.00 0.00 366.25 171.00" xmlns="http://www.w3.org/2000/svg" xmlns:xlink="http://www.w3.org/1999/xlink">
<g id="graph0" class="graph" transform="scale(1 1) rotate(0) translate(4 167)">
<title>%3</title>
<polygon fill="#ffffff" stroke="transparent" points="-4,4 -4,-167 362.2458,-167 362.2458,4 -4,4"/>
<!-- G__25187 -->
<g id="node1" class="node">
<title>G__25187</title>
<ellipse fill="#000000" stroke="#000000" cx="1.8" cy="-38" rx="1.8" ry="1.8"/>
</g>
<!-- G__25188 -->
<g id="node2" class="node">
<title>G__25188</title>
<polygon fill="none" stroke="#000000" points="133.8,-163 94.2525,-145 133.8,-127 173.3475,-145 133.8,-163"/>
<text text-anchor="middle" x="133.8" y="-141.3" font-family="Times,serif" font-size="14.00" fill="#000000">[1 2]</text>
</g>
<!-- G__25188&#45;&gt;G__25187 -->
<g id="edge1" class="edge">
<title>G__25188&#45;&gt;G__25187</title>
<path fill="none" stroke="#000000" d="M110.1359,-137.6332C82.7202,-127.8924 38.0875,-108.1056 12.8,-76 6.9581,-68.5829 4.2183,-58.1741 2.9336,-50.1253"/>
<polygon fill="#000000" stroke="#000000" points="6.3922,-49.5468 1.8647,-39.9681 -.5694,-50.2795 6.3922,-49.5468"/>
<text text-anchor="middle" x="54.3" y="-97.8" font-family="Times,serif" font-size="14.00" fill="#000000">L</text>
</g>
<!-- G__25189 -->
<g id="node3" class="node">
<title>G__25189</title>
<polygon fill="none" stroke="#000000" points="133.8,-76 21.8,-38 133.8,0 245.8,-38 133.8,-76"/>
<text text-anchor="middle" x="133.8" y="-41.8" font-family="Times,serif" font-size="14.00" fill="#000000">[[1 2] [3 [4 5] 6]]</text>
<text text-anchor="middle" x="133.8" y="-26.8" font-family="Times,serif" font-size="14.00" fill="#000000">Top</text>
</g>
<!-- G__25188&#45;&gt;G__25189 -->
<g id="edge2" class="edge">
<title>G__25188&#45;&gt;G__25189</title>
<path fill="none" stroke="#000000" d="M133.8,-126.8489C133.8,-115.7178 133.8,-100.8915 133.8,-86.5447"/>
<polygon fill="#000000" stroke="#000000" points="137.3001,-86.2423 133.8,-76.2423 130.3001,-86.2423 137.3001,-86.2423"/>
<text text-anchor="middle" x="137.8" y="-97.8" font-family="Times,serif" font-size="14.00" fill="#000000">P</text>
</g>
<!-- G__25190 -->
<g id="node4" class="node">
<title>G__25190</title>
<ellipse fill="none" stroke="#000000" cx="310.8" cy="-38" rx="47.3916" ry="18"/>
<text text-anchor="middle" x="310.8" y="-34.3" font-family="Times,serif" font-size="14.00" fill="#000000">[3 [4 5] 6]</text>
</g>
<!-- G__25188&#45;&gt;G__25190 -->
<g id="edge3" class="edge">
<title>G__25188&#45;&gt;G__25190</title>
<path fill="none" stroke="#000000" d="M152.0985,-135.1462C176.0229,-122.1315 219.0878,-98.2521 254.8,-76 263.0019,-70.8895 271.7141,-65.1402 279.7621,-59.6903"/>
<polygon fill="#000000" stroke="#000000" points="281.8973,-62.4703 288.1787,-53.9383 277.9477,-56.691 281.8973,-62.4703"/>
<text text-anchor="middle" x="227.8" y="-97.8" font-family="Times,serif" font-size="14.00" fill="#000000">R</text>
</g>
</g>
</svg>
