<?xml version="1.0" encoding="UTF-8" standalone="no"?>
<!DOCTYPE svg PUBLIC "-//W3C//DTD SVG 1.1//EN"
 "http://www.w3.org/Graphics/SVG/1.1/DTD/svg11.dtd">
<!-- Generated by graphviz version 2.40.1 (20161225.0304)
 -->
<!-- Title: %3 Pages: 1 -->
<svg width="328pt" height="171pt"
 viewBox="0.00 0.00 327.75 171.00" xmlns="http://www.w3.org/2000/svg" xmlns:xlink="http://www.w3.org/1999/xlink">
<g id="graph0" class="graph" transform="scale(1 1) rotate(0) translate(4 167)">
<title>%3</title>
<polygon fill="#ffffff" stroke="transparent" points="-4,4 -4,-167 323.7475,-167 323.7475,4 -4,4"/>
<!-- G__214621 -->
<g id="node1" class="node">
<title>G__214621</title>
<ellipse fill="none" stroke="#000000" cx="27.9475" cy="-38" rx="27.8951" ry="18"/>
<text text-anchor="middle" x="27.9475" y="-34.3" font-family="Times,serif" font-size="14.00" fill="#000000">[1 2]</text>
</g>
<!-- G__214622 -->
<g id="node2" class="node">
<title>G__214622</title>
<polygon fill="none" stroke="#000000" points="185.9475,-163 118.7504,-145 185.9475,-127 253.1446,-145 185.9475,-163"/>
<text text-anchor="middle" x="185.9475" y="-141.3" font-family="Times,serif" font-size="14.00" fill="#000000">[3 [4 5] 6]</text>
</g>
<!-- G__214622&#45;&gt;G__214621 -->
<g id="edge1" class="edge">
<title>G__214622&#45;&gt;G__214621</title>
<path fill="none" stroke="#000000" d="M161.0473,-133.3889C135.6602,-120.9734 95.7408,-99.8246 64.9475,-76 59.2716,-71.6086 53.6223,-66.3689 48.5094,-61.2046"/>
<polygon fill="#000000" stroke="#000000" points="50.8913,-58.6305 41.4618,-53.7997 45.8207,-63.4564 50.8913,-58.6305"/>
<text text-anchor="middle" x="117.4475" y="-97.8" font-family="Times,serif" font-size="14.00" fill="#000000">L</text>
</g>
<!-- G__214623 -->
<g id="node3" class="node">
<title>G__214623</title>
<polygon fill="none" stroke="#000000" points="185.9475,-76 73.9475,-38 185.9475,0 297.9475,-38 185.9475,-76"/>
<text text-anchor="middle" x="185.9475" y="-41.8" font-family="Times,serif" font-size="14.00" fill="#000000">[[1 2] [3 [4 5] 6]]</text>
<text text-anchor="middle" x="185.9475" y="-26.8" font-family="Times,serif" font-size="14.00" fill="#000000">Top</text>
</g>
<!-- G__214622&#45;&gt;G__214623 -->
<g id="edge2" class="edge">
<title>G__214622&#45;&gt;G__214623</title>
<path fill="none" stroke="#000000" d="M185.9475,-126.8489C185.9475,-115.7178 185.9475,-100.8915 185.9475,-86.5447"/>
<polygon fill="#000000" stroke="#000000" points="189.4476,-86.2423 185.9475,-76.2423 182.4476,-86.2423 189.4476,-86.2423"/>
<text text-anchor="middle" x="189.9475" y="-97.8" font-family="Times,serif" font-size="14.00" fill="#000000">P</text>
</g>
<!-- G__214624 -->
<g id="node4" class="node">
<title>G__214624</title>
<ellipse fill="#000000" stroke="#000000" cx="317.9475" cy="-38" rx="1.8" ry="1.8"/>
</g>
<!-- G__214622&#45;&gt;G__214624 -->
<g id="edge3" class="edge">
<title>G__214622&#45;&gt;G__214624</title>
<path fill="none" stroke="#000000" d="M216.4926,-135.1054C244.0346,-124.6526 283.68,-105.5409 306.9475,-76 312.7895,-68.5829 315.5292,-58.1741 316.8139,-50.1253"/>
<polygon fill="#000000" stroke="#000000" points="320.3169,-50.2795 317.8828,-39.9681 313.3554,-49.5468 320.3169,-50.2795"/>
<text text-anchor="middle" x="292.9475" y="-97.8" font-family="Times,serif" font-size="14.00" fill="#000000">R</text>
</g>
</g>
</svg>
