<?xml version="1.0" encoding="UTF-8" standalone="no"?>
<!DOCTYPE svg PUBLIC "-//W3C//DTD SVG 1.1//EN"
 "http://www.w3.org/Graphics/SVG/1.1/DTD/svg11.dtd">
<!-- Generated by graphviz version 2.40.1 (20161225.0304)
 -->
<!-- Title: %3 Pages: 1 -->
<svg width="290pt" height="171pt"
 viewBox="0.00 0.00 290.30 171.00" xmlns="http://www.w3.org/2000/svg" xmlns:xlink="http://www.w3.org/1999/xlink">
<g id="graph0" class="graph" transform="scale(1 1) rotate(0) translate(4 167)">
<title>%3</title>
<polygon fill="#ffffff" stroke="transparent" points="-4,4 -4,-167 286.2971,-167 286.2971,4 -4,4"/>
<!-- G__46022 -->
<g id="node1" class="node">
<title>G__46022</title>
<ellipse fill="none" stroke="#000000" cx="32.4971" cy="-38" rx="32.4942" ry="18"/>
<text text-anchor="middle" x="32.4971" y="-34.3" font-family="Times,serif" font-size="14.00" fill="#000000">[:x :y]</text>
</g>
<!-- G__46023 -->
<g id="node2" class="node">
<title>G__46023</title>
<polygon fill="none" stroke="#000000" points="171.4971,-163 131.9496,-145 171.4971,-127 211.0447,-145 171.4971,-163"/>
<text text-anchor="middle" x="171.4971" y="-141.3" font-family="Times,serif" font-size="14.00" fill="#000000">[1 2]</text>
</g>
<!-- G__46023&#45;&gt;G__46022 -->
<g id="edge1" class="edge">
<title>G__46023&#45;&gt;G__46022</title>
<path fill="none" stroke="#000000" d="M155.0577,-134.4058C135.1866,-121.3802 100.9926,-98.2551 73.4971,-76 67.8205,-71.4053 61.9385,-66.2284 56.4624,-61.2086"/>
<polygon fill="#000000" stroke="#000000" points="58.4981,-58.3207 48.8009,-54.0526 53.7199,-63.4363 58.4981,-58.3207"/>
<text text-anchor="middle" x="120.9971" y="-97.8" font-family="Times,serif" font-size="14.00" fill="#000000">L</text>
</g>
<!-- G__46024 -->
<g id="node3" class="node">
<title>G__46024</title>
<polygon fill="none" stroke="#000000" points="171.4971,-76 82.4971,-38 171.4971,0 260.4971,-38 171.4971,-76"/>
<text text-anchor="middle" x="171.4971" y="-41.8" font-family="Times,serif" font-size="14.00" fill="#000000">[[:x :y] [1 2]]</text>
<text text-anchor="middle" x="171.4971" y="-26.8" font-family="Times,serif" font-size="14.00" fill="#000000">Top</text>
</g>
<!-- G__46023&#45;&gt;G__46024 -->
<g id="edge2" class="edge">
<title>G__46023&#45;&gt;G__46024</title>
<path fill="none" stroke="#000000" d="M171.4971,-126.8489C171.4971,-115.7178 171.4971,-100.8915 171.4971,-86.5447"/>
<polygon fill="#000000" stroke="#000000" points="174.9972,-86.2423 171.4971,-76.2423 167.9972,-86.2423 174.9972,-86.2423"/>
<text text-anchor="middle" x="175.4971" y="-97.8" font-family="Times,serif" font-size="14.00" fill="#000000">P</text>
</g>
<!-- G__46025 -->
<g id="node4" class="node">
<title>G__46025</title>
<ellipse fill="#000000" stroke="#000000" cx="280.4971" cy="-38" rx="1.8" ry="1.8"/>
</g>
<!-- G__46023&#45;&gt;G__46025 -->
<g id="edge3" class="edge">
<title>G__46023&#45;&gt;G__46025</title>
<path fill="none" stroke="#000000" d="M191.4792,-136.0377C213.763,-125.034 249.3191,-104.2908 269.4971,-76 274.9795,-68.3134 277.7459,-57.9245 279.1322,-49.952"/>
<polygon fill="#000000" stroke="#000000" points="282.6174,-50.2878 280.3833,-39.9313 275.6713,-49.4206 282.6174,-50.2878"/>
<text text-anchor="middle" x="256.4971" y="-97.8" font-family="Times,serif" font-size="14.00" fill="#000000">R</text>
</g>
</g>
</svg>
