<?xml version="1.0" encoding="UTF-8" standalone="no"?>
<!DOCTYPE svg PUBLIC "-//W3C//DTD SVG 1.1//EN"
 "http://www.w3.org/Graphics/SVG/1.1/DTD/svg11.dtd">
<!-- Generated by graphviz version 2.40.1 (20161225.0304)
 -->
<!-- Title: %3 Pages: 1 -->
<svg width="424pt" height="258pt"
 viewBox="0.00 0.00 423.95 258.00" xmlns="http://www.w3.org/2000/svg" xmlns:xlink="http://www.w3.org/1999/xlink">
<g id="graph0" class="graph" transform="scale(1 1) rotate(0) translate(4 254)">
<title>%3</title>
<polygon fill="#ffffff" stroke="transparent" points="-4,4 -4,-254 419.9475,-254 419.9475,4 -4,4"/>
<!-- G__26319 -->
<g id="node1" class="node">
<title>G__26319</title>
<ellipse fill="#000000" stroke="#000000" cx="98.9475" cy="-145" rx="1.8" ry="1.8"/>
</g>
<!-- G__26320 -->
<g id="node2" class="node">
<title>G__26320</title>
<polygon fill="none" stroke="#000000" points="185.9475,-250 158.9475,-232 185.9475,-214 212.9475,-232 185.9475,-250"/>
<text text-anchor="middle" x="185.9475" y="-228.3" font-family="Times,serif" font-size="14.00" fill="#000000">3</text>
</g>
<!-- G__26320&#45;&gt;G__26319 -->
<g id="edge1" class="edge">
<title>G__26320&#45;&gt;G__26319</title>
<path fill="none" stroke="#000000" d="M173.08,-222.2173C157.0764,-209.6478 129.4847,-186.6192 109.9475,-163 108.1268,-160.7988 106.3944,-158.268 104.8655,-155.8127"/>
<polygon fill="#000000" stroke="#000000" points="107.7602,-153.8179 99.8259,-146.7966 101.6499,-157.2332 107.7602,-153.8179"/>
<text text-anchor="middle" x="146.4475" y="-184.8" font-family="Times,serif" font-size="14.00" fill="#000000">L</text>
</g>
<!-- G__26321 -->
<g id="node3" class="node">
<title>G__26321</title>
<polygon fill="none" stroke="#000000" points="185.9475,-163 118.7504,-145 185.9475,-127 253.1446,-145 185.9475,-163"/>
<text text-anchor="middle" x="185.9475" y="-141.3" font-family="Times,serif" font-size="14.00" fill="#000000">[3 [4 5] 6]</text>
</g>
<!-- G__26320&#45;&gt;G__26321 -->
<g id="edge2" class="edge">
<title>G__26320&#45;&gt;G__26321</title>
<path fill="none" stroke="#000000" d="M185.9475,-213.9735C185.9475,-202.1918 185.9475,-186.5607 185.9475,-173.1581"/>
<polygon fill="#000000" stroke="#000000" points="189.4476,-173.0033 185.9475,-163.0034 182.4476,-173.0034 189.4476,-173.0033"/>
<text text-anchor="middle" x="189.9475" y="-184.8" font-family="Times,serif" font-size="14.00" fill="#000000">P</text>
</g>
<!-- G__26325 -->
<g id="node7" class="node">
<title>G__26325</title>
<ellipse fill="none" stroke="#000000" cx="298.9475" cy="-145" rx="27.8951" ry="18"/>
<text text-anchor="middle" x="298.9475" y="-141.3" font-family="Times,serif" font-size="14.00" fill="#000000">[4 5]</text>
</g>
<!-- G__26320&#45;&gt;G__26325 -->
<g id="edge6" class="edge">
<title>G__26320&#45;&gt;G__26325</title>
<path fill="none" stroke="#000000" d="M198.9101,-222.02C216.8776,-208.1866 249.7502,-182.8776 272.8982,-165.0557"/>
<polygon fill="#000000" stroke="#000000" points="275.1524,-167.7374 280.9408,-158.8636 270.882,-162.1908 275.1524,-167.7374"/>
<text text-anchor="middle" x="254.9475" y="-184.8" font-family="Times,serif" font-size="14.00" fill="#000000">R</text>
</g>
<!-- G__26322 -->
<g id="node4" class="node">
<title>G__26322</title>
<ellipse fill="none" stroke="#000000" cx="27.9475" cy="-38" rx="27.8951" ry="18"/>
<text text-anchor="middle" x="27.9475" y="-34.3" font-family="Times,serif" font-size="14.00" fill="#000000">[1 2]</text>
</g>
<!-- G__26321&#45;&gt;G__26322 -->
<g id="edge3" class="edge">
<title>G__26321&#45;&gt;G__26322</title>
<path fill="none" stroke="#000000" d="M161.0473,-133.3889C135.6602,-120.9734 95.7408,-99.8246 64.9475,-76 59.2716,-71.6086 53.6223,-66.3689 48.5094,-61.2046"/>
<polygon fill="#000000" stroke="#000000" points="50.8913,-58.6305 41.4618,-53.7997 45.8207,-63.4564 50.8913,-58.6305"/>
<text text-anchor="middle" x="117.4475" y="-97.8" font-family="Times,serif" font-size="14.00" fill="#000000">L</text>
</g>
<!-- G__26323 -->
<g id="node5" class="node">
<title>G__26323</title>
<polygon fill="none" stroke="#000000" points="185.9475,-76 73.9475,-38 185.9475,0 297.9475,-38 185.9475,-76"/>
<text text-anchor="middle" x="185.9475" y="-41.8" font-family="Times,serif" font-size="14.00" fill="#000000">[[1 2] [3 [4 5] 6]]</text>
<text text-anchor="middle" x="185.9475" y="-26.8" font-family="Times,serif" font-size="14.00" fill="#000000">Top</text>
</g>
<!-- G__26321&#45;&gt;G__26323 -->
<g id="edge4" class="edge">
<title>G__26321&#45;&gt;G__26323</title>
<path fill="none" stroke="#000000" d="M185.9475,-126.8489C185.9475,-115.7178 185.9475,-100.8915 185.9475,-86.5447"/>
<polygon fill="#000000" stroke="#000000" points="189.4476,-86.2423 185.9475,-76.2423 182.4476,-86.2423 189.4476,-86.2423"/>
<text text-anchor="middle" x="189.9475" y="-97.8" font-family="Times,serif" font-size="14.00" fill="#000000">P</text>
</g>
<!-- G__26324 -->
<g id="node6" class="node">
<title>G__26324</title>
<ellipse fill="#000000" stroke="#000000" cx="317.9475" cy="-38" rx="1.8" ry="1.8"/>
</g>
<!-- G__26321&#45;&gt;G__26324 -->
<g id="edge5" class="edge">
<title>G__26321&#45;&gt;G__26324</title>
<path fill="none" stroke="#000000" d="M216.4926,-135.1054C244.0346,-124.6526 283.68,-105.5409 306.9475,-76 312.7895,-68.5829 315.5292,-58.1741 316.8139,-50.1253"/>
<polygon fill="#000000" stroke="#000000" points="320.3169,-50.2795 317.8828,-39.9681 313.3554,-49.5468 320.3169,-50.2795"/>
<text text-anchor="middle" x="293.9475" y="-97.8" font-family="Times,serif" font-size="14.00" fill="#000000">R</text>
</g>
<!-- G__26326 -->
<g id="node8" class="node">
<title>G__26326</title>
<ellipse fill="none" stroke="#000000" cx="388.9475" cy="-145" rx="27" ry="18"/>
<text text-anchor="middle" x="388.9475" y="-141.3" font-family="Times,serif" font-size="14.00" fill="#000000">6</text>
</g>
<!-- G__26325&#45;&gt;G__26326 -->
<g id="edge7" class="edge">
<title>G__26325&#45;&gt;G__26326</title>
<path fill="none" stroke="#000000" d="M327.0725,-145C338.6741,-145 350.2756,-145 361.8772,-145"/>
</g>
</g>
</svg>
