<?xml version="1.0" encoding="UTF-8" standalone="no"?>
<!DOCTYPE svg PUBLIC "-//W3C//DTD SVG 1.1//EN"
 "http://www.w3.org/Graphics/SVG/1.1/DTD/svg11.dtd">
<!-- Generated by graphviz version 2.40.1 (20161225.0304)
 -->
<!-- Title: %3 Pages: 1 -->
<svg width="291pt" height="258pt"
 viewBox="0.00 0.00 290.99 258.00" xmlns="http://www.w3.org/2000/svg" xmlns:xlink="http://www.w3.org/1999/xlink">
<g id="graph0" class="graph" transform="scale(1 1) rotate(0) translate(4 254)">
<title>%3</title>
<polygon fill="#ffffff" stroke="transparent" points="-4,4 -4,-254 286.9949,-254 286.9949,4 -4,4"/>
<!-- G__41340 -->
<g id="node1" class="node">
<title>G__41340</title>
<ellipse fill="none" stroke="#000000" cx="50.1949" cy="-145" rx="40.8928" ry="18"/>
<text text-anchor="middle" x="50.1949" y="-141.3" font-family="Times,serif" font-size="14.00" fill="#000000">&lt;name&gt;</text>
</g>
<!-- G__41341 -->
<g id="node2" class="node">
<title>G__41341</title>
<polygon fill="none" stroke="#000000" points="185.1949,-250 117.1596,-232 185.1949,-214 253.2302,-232 185.1949,-250"/>
<text text-anchor="middle" x="185.1949" y="-228.3" font-family="Times,serif" font-size="14.00" fill="#000000">&lt;address&gt;</text>
</g>
<!-- G__41341&#45;&gt;G__41340 -->
<g id="edge1" class="edge">
<title>G__41341&#45;&gt;G__41340</title>
<path fill="none" stroke="#000000" d="M165.2752,-219.1629C143.3617,-205.0408 107.8359,-182.1464 82.0464,-165.5265"/>
<polygon fill="#000000" stroke="#000000" points="83.6704,-162.4092 73.3687,-159.9342 79.8784,-168.2933 83.6704,-162.4092"/>
<text text-anchor="middle" x="130.6949" y="-184.8" font-family="Times,serif" font-size="14.00" fill="#000000">L</text>
</g>
<!-- G__41342 -->
<g id="node3" class="node">
<title>G__41342</title>
<polygon fill="none" stroke="#000000" points="185.1949,-163 109.1142,-145 185.1949,-127 261.2756,-145 185.1949,-163"/>
<text text-anchor="middle" x="185.1949" y="-141.3" font-family="Times,serif" font-size="14.00" fill="#000000">&lt;customer&gt;</text>
</g>
<!-- G__41341&#45;&gt;G__41342 -->
<g id="edge2" class="edge">
<title>G__41341&#45;&gt;G__41342</title>
<path fill="none" stroke="#000000" d="M185.1949,-213.9735C185.1949,-202.1918 185.1949,-186.5607 185.1949,-173.1581"/>
<polygon fill="#000000" stroke="#000000" points="188.695,-173.0033 185.1949,-163.0034 181.695,-173.0034 188.695,-173.0033"/>
<text text-anchor="middle" x="189.1949" y="-184.8" font-family="Times,serif" font-size="14.00" fill="#000000">P</text>
</g>
<!-- G__41346 -->
<g id="node7" class="node">
<title>G__41346</title>
<ellipse fill="#000000" stroke="#000000" cx="281.1949" cy="-145" rx="1.8" ry="1.8"/>
</g>
<!-- G__41341&#45;&gt;G__41346 -->
<g id="edge6" class="edge">
<title>G__41341&#45;&gt;G__41346</title>
<path fill="none" stroke="#000000" d="M204.6834,-219.1006C223.0285,-206.3229 250.5466,-185.4595 270.1949,-163 272.1482,-160.7673 273.9666,-158.1455 275.54,-155.6042"/>
<polygon fill="#000000" stroke="#000000" points="278.6165,-157.2732 280.3443,-146.8202 272.475,-153.9142 278.6165,-157.2732"/>
<text text-anchor="middle" x="257.1949" y="-184.8" font-family="Times,serif" font-size="14.00" fill="#000000">R</text>
</g>
<!-- G__41343 -->
<g id="node4" class="node">
<title>G__41343</title>
<ellipse fill="none" stroke="#000000" cx="57.1949" cy="-38" rx="57.3905" ry="18"/>
<text text-anchor="middle" x="57.1949" y="-34.3" font-family="Times,serif" font-size="14.00" fill="#000000">&lt;line&#45;items&gt;</text>
</g>
<!-- G__41342&#45;&gt;G__41343 -->
<g id="edge3" class="edge">
<title>G__41342&#45;&gt;G__41343</title>
<path fill="none" stroke="#000000" d="M168.1975,-130.7912C147.0884,-113.1453 110.7751,-82.7897 85.4519,-61.6211"/>
<polygon fill="#000000" stroke="#000000" points="87.5666,-58.827 77.6495,-55.0987 83.0771,-64.1977 87.5666,-58.827"/>
<text text-anchor="middle" x="144.6949" y="-97.8" font-family="Times,serif" font-size="14.00" fill="#000000">L</text>
</g>
<!-- G__41344 -->
<g id="node5" class="node">
<title>G__41344</title>
<polygon fill="none" stroke="#000000" points="185.1949,-76 132.1949,-38 185.1949,0 238.1949,-38 185.1949,-76"/>
<text text-anchor="middle" x="185.1949" y="-41.8" font-family="Times,serif" font-size="14.00" fill="#000000">&lt;cart&gt;</text>
<text text-anchor="middle" x="185.1949" y="-26.8" font-family="Times,serif" font-size="14.00" fill="#000000">Top</text>
</g>
<!-- G__41342&#45;&gt;G__41344 -->
<g id="edge4" class="edge">
<title>G__41342&#45;&gt;G__41344</title>
<path fill="none" stroke="#000000" d="M185.1949,-126.8489C185.1949,-115.7178 185.1949,-100.8915 185.1949,-86.5447"/>
<polygon fill="#000000" stroke="#000000" points="188.695,-86.2423 185.1949,-76.2423 181.695,-86.2423 188.695,-86.2423"/>
<text text-anchor="middle" x="189.1949" y="-97.8" font-family="Times,serif" font-size="14.00" fill="#000000">P</text>
</g>
<!-- G__41345 -->
<g id="node6" class="node">
<title>G__41345</title>
<ellipse fill="#000000" stroke="#000000" cx="258.1949" cy="-38" rx="1.8" ry="1.8"/>
</g>
<!-- G__41342&#45;&gt;G__41345 -->
<g id="edge5" class="edge">
<title>G__41342&#45;&gt;G__41345</title>
<path fill="none" stroke="#000000" d="M201.6945,-130.6855C215.682,-117.7136 235.3112,-97.4011 247.1949,-76 251.7232,-67.8452 254.5427,-57.6479 256.1921,-49.8704"/>
<polygon fill="#000000" stroke="#000000" points="259.6686,-50.3095 257.9582,-39.8537 252.7749,-49.094 259.6686,-50.3095"/>
<text text-anchor="middle" x="240.1949" y="-97.8" font-family="Times,serif" font-size="14.00" fill="#000000">R</text>
</g>
</g>
</svg>
