<?xml version="1.0" encoding="UTF-8" standalone="no"?>
<!DOCTYPE svg PUBLIC "-//W3C//DTD SVG 1.1//EN"
 "http://www.w3.org/Graphics/SVG/1.1/DTD/svg11.dtd">
<!-- Generated by graphviz version 2.40.1 (20161225.0304)
 -->
<!-- Title: %3 Pages: 1 -->
<svg width="653pt" height="320pt"
 viewBox="0.00 0.00 653.32 320.17" xmlns="http://www.w3.org/2000/svg" xmlns:xlink="http://www.w3.org/1999/xlink">
<g id="graph0" class="graph" transform="scale(1 1) rotate(0) translate(4 316.1665)">
<title>%3</title>
<polygon fill="#ffffff" stroke="transparent" points="-4,4 -4,-316.1665 649.3211,-316.1665 649.3211,4 -4,4"/>
<!-- G__30289 -->
<g id="node1" class="node">
<title>G__30289</title>
<ellipse fill="none" stroke="#000000" cx="358.2254" cy="-222.1665" rx="57.3905" ry="18"/>
<text text-anchor="middle" x="358.2254" y="-218.4665" font-family="Times,serif" font-size="14.00" fill="#000000">&lt;line&#45;items&gt;</text>
</g>
<!-- G__30288 -->
<g id="node3" class="node">
<title>G__30288</title>
<ellipse fill="#3388ff" stroke="#3388ff" cx="62.2254" cy="-120.0833" rx="62.4516" ry="48.1667"/>
<text text-anchor="middle" x="62.2254" y="-138.8833" font-family="Times,serif" font-size="14.00" fill="#000000">&lt;product</text>
<text text-anchor="middle" x="62.2254" y="-123.8833" font-family="Times,serif" font-size="14.00" fill="#000000"> price=2.5</text>
<text text-anchor="middle" x="62.2254" y="-108.8833" font-family="Times,serif" font-size="14.00" fill="#000000"> qty=1</text>
<text text-anchor="middle" x="62.2254" y="-93.8833" font-family="Times,serif" font-size="14.00" fill="#000000"> sku=CH56&gt;</text>
</g>
<!-- G__30289&#45;&#45;G__30288 -->
<g id="edge2" class="edge">
<title>G__30289&#45;&#45;G__30288</title>
<path fill="none" stroke="#000000" d="M305.5755,-215.0221C258.8457,-207.4147 189.4608,-192.9709 133.2254,-168.1665 124.3718,-164.2614 115.4369,-159.2394 107.0328,-153.9196"/>
</g>
<!-- G__30292 -->
<g id="node5" class="node">
<title>G__30292</title>
<ellipse fill="none" stroke="#000000" cx="204.2254" cy="-120.0833" rx="62.4516" ry="48.1667"/>
<text text-anchor="middle" x="204.2254" y="-138.8833" font-family="Times,serif" font-size="14.00" fill="#000000">&lt;product</text>
<text text-anchor="middle" x="204.2254" y="-123.8833" font-family="Times,serif" font-size="14.00" fill="#000000"> price=1.7</text>
<text text-anchor="middle" x="204.2254" y="-108.8833" font-family="Times,serif" font-size="14.00" fill="#000000"> qty=1</text>
<text text-anchor="middle" x="204.2254" y="-93.8833" font-family="Times,serif" font-size="14.00" fill="#000000"> sku=CA94&gt;</text>
</g>
<!-- G__30289&#45;&#45;G__30292 -->
<g id="edge4" class="edge">
<title>G__30289&#45;&#45;G__30292</title>
<path fill="none" stroke="#000000" d="M333.0851,-205.9816C316.5849,-195.317 294.5607,-181.002 275.2254,-168.1665 267.4115,-162.9794 259.1436,-157.4333 251.1184,-152.019"/>
</g>
<!-- G__30294 -->
<g id="node7" class="node">
<title>G__30294</title>
<ellipse fill="none" stroke="#000000" cx="358.2254" cy="-120.0833" rx="73.5782" ry="26.7407"/>
<text text-anchor="middle" x="358.2254" y="-123.8833" font-family="Times,serif" font-size="14.00" fill="#000000">&lt;discount</text>
<text text-anchor="middle" x="358.2254" y="-108.8833" font-family="Times,serif" font-size="14.00" fill="#000000"> amount=10%&gt;</text>
</g>
<!-- G__30289&#45;&#45;G__30294 -->
<g id="edge6" class="edge">
<title>G__30289&#45;&#45;G__30294</title>
<path fill="none" stroke="#000000" d="M358.2254,-203.9161C358.2254,-188.0877 358.2254,-164.9635 358.2254,-147.0087"/>
</g>
<!-- G__30295 -->
<g id="node8" class="node">
<title>G__30295</title>
<ellipse fill="none" stroke="#000000" cx="488.2254" cy="-222.1665" rx="53.8905" ry="18"/>
<text text-anchor="middle" x="488.2254" y="-218.4665" font-family="Times,serif" font-size="14.00" fill="#000000">&lt;customer&gt;</text>
</g>
<!-- G__30289&#45;&#45;G__30295 -->
<!-- G__30290 -->
<g id="node2" class="node">
<title>G__30290</title>
<ellipse fill="none" stroke="#000000" cx="422.2254" cy="-294.1665" rx="34.394" ry="18"/>
<text text-anchor="middle" x="422.2254" y="-290.4665" font-family="Times,serif" font-size="14.00" fill="#000000">&lt;cart&gt;</text>
</g>
<!-- G__30290&#45;&#45;G__30289 -->
<g id="edge1" class="edge">
<title>G__30290&#45;&#45;G__30289</title>
<path fill="none" stroke="#000000" d="M407.7028,-277.8286C397.5976,-266.4603 384.1382,-251.3184 373.8087,-239.6977"/>
</g>
<!-- G__30290&#45;&#45;G__30295 -->
<g id="edge7" class="edge">
<title>G__30290&#45;&#45;G__30295</title>
<path fill="none" stroke="#000000" d="M437.2018,-277.8286C447.6989,-266.3773 461.7056,-251.0972 472.3879,-239.4438"/>
</g>
<!-- G__30291 -->
<g id="node4" class="node">
<title>G__30291</title>
<ellipse fill="none" stroke="#000000" cx="62.2254" cy="-18" rx="53.8905" ry="18"/>
<text text-anchor="middle" x="62.2254" y="-14.3" font-family="Times,serif" font-size="14.00" fill="#000000">&quot;Chocolate&quot;</text>
</g>
<!-- G__30288&#45;&#45;G__30291 -->
<g id="edge3" class="edge">
<title>G__30288&#45;&#45;G__30291</title>
<path fill="none" stroke="#000000" d="M62.2254,-71.7322C62.2254,-59.1579 62.2254,-46.3653 62.2254,-36.4182"/>
</g>
<!-- G__30288&#45;&#45;G__30292 -->
<!-- G__30293 -->
<g id="node6" class="node">
<title>G__30293</title>
<ellipse fill="none" stroke="#000000" cx="204.2254" cy="-18" rx="41.6928" ry="18"/>
<text text-anchor="middle" x="204.2254" y="-14.3" font-family="Times,serif" font-size="14.00" fill="#000000">&quot;Candy&quot;</text>
</g>
<!-- G__30292&#45;&#45;G__30293 -->
<g id="edge5" class="edge">
<title>G__30292&#45;&#45;G__30293</title>
<path fill="none" stroke="#000000" d="M204.2254,-71.7322C204.2254,-59.1579 204.2254,-46.3653 204.2254,-36.4182"/>
</g>
<!-- G__30292&#45;&#45;G__30294 -->
<!-- G__30296 -->
<g id="node9" class="node">
<title>G__30296</title>
<ellipse fill="none" stroke="#000000" cx="490.2254" cy="-120.0833" rx="40.8928" ry="18"/>
<text text-anchor="middle" x="490.2254" y="-116.3833" font-family="Times,serif" font-size="14.00" fill="#000000">&lt;name&gt;</text>
</g>
<!-- G__30295&#45;&#45;G__30296 -->
<g id="edge8" class="edge">
<title>G__30295&#45;&#45;G__30296</title>
<path fill="none" stroke="#000000" d="M488.583,-203.9161C488.947,-185.335 489.508,-156.6996 489.8709,-138.1757"/>
</g>
<!-- G__30298 -->
<g id="node11" class="node">
<title>G__30298</title>
<ellipse fill="none" stroke="#000000" cx="597.2254" cy="-120.0833" rx="48.1917" ry="18"/>
<text text-anchor="middle" x="597.2254" y="-116.3833" font-family="Times,serif" font-size="14.00" fill="#000000">&lt;address&gt;</text>
</g>
<!-- G__30295&#45;&#45;G__30298 -->
<g id="edge10" class="edge">
<title>G__30295&#45;&#45;G__30298</title>
<path fill="none" stroke="#000000" d="M506.7158,-204.8495C527.0025,-185.8501 559.338,-155.5665 579.3693,-136.8063"/>
</g>
<!-- G__30297 -->
<g id="node10" class="node">
<title>G__30297</title>
<ellipse fill="none" stroke="#000000" cx="490.2254" cy="-18" rx="36.2938" ry="18"/>
<text text-anchor="middle" x="490.2254" y="-14.3" font-family="Times,serif" font-size="14.00" fill="#000000">&quot;Arne&quot;</text>
</g>
<!-- G__30296&#45;&#45;G__30297 -->
<g id="edge9" class="edge">
<title>G__30296&#45;&#45;G__30297</title>
<path fill="none" stroke="#000000" d="M490.2254,-101.8328C490.2254,-83.2517 490.2254,-54.6163 490.2254,-36.0924"/>
</g>
<!-- G__30296&#45;&#45;G__30298 -->
<!-- G__30299 -->
<g id="node12" class="node">
<title>G__30299</title>
<ellipse fill="none" stroke="#000000" cx="597.2254" cy="-18" rx="40.0939" ry="18"/>
<text text-anchor="middle" x="597.2254" y="-14.3" font-family="Times,serif" font-size="14.00" fill="#000000">&quot;Berlin&quot;</text>
</g>
<!-- G__30298&#45;&#45;G__30299 -->
<g id="edge11" class="edge">
<title>G__30298&#45;&#45;G__30299</title>
<path fill="none" stroke="#000000" d="M597.2254,-101.8328C597.2254,-83.2517 597.2254,-54.6163 597.2254,-36.0924"/>
</g>
</g>
</svg>
