<?xml version="1.0" encoding="UTF-8" standalone="no"?>
<!-- Created with Inkscape (http://www.inkscape.org/) -->

<svg
   xmlns:dc="http://purl.org/dc/elements/1.1/"
   xmlns:cc="http://creativecommons.org/ns#"
   xmlns:rdf="http://www.w3.org/1999/02/22-rdf-syntax-ns#"
   xmlns:svg="http://www.w3.org/2000/svg"
   xmlns="http://www.w3.org/2000/svg"
   xmlns:sodipodi="http://sodipodi.sourceforge.net/DTD/sodipodi-0.dtd"
   xmlns:inkscape="http://www.inkscape.org/namespaces/inkscape"
   width="297mm"
   height="210mm"
   viewBox="0 0 1052.3622 744.09448"
   id="svg4206"
   version="1.1"
   inkscape:version="0.91 r13725"
   sodipodi:docname="editor_repl.svg">
  <defs
     id="defs4208" />
  <sodipodi:namedview
     id="base"
     pagecolor="#ffffff"
     bordercolor="#666666"
     borderopacity="1.0"
     inkscape:pageopacity="0.0"
     inkscape:pageshadow="2"
     inkscape:zoom="0.49497475"
     inkscape:cx="830.67531"
     inkscape:cy="419.01484"
     inkscape:document-units="px"
     inkscape:current-layer="layer1"
     showgrid="false"
     inkscape:window-width="1920"
     inkscape:window-height="1080"
     inkscape:window-x="0"
     inkscape:window-y="0"
     inkscape:window-maximized="0" />
  <metadata
     id="metadata4211">
    <rdf:RDF>
      <cc:Work
         rdf:about="">
        <dc:format>image/svg+xml</dc:format>
        <dc:type
           rdf:resource="http://purl.org/dc/dcmitype/StillImage" />
        <dc:title></dc:title>
      </cc:Work>
    </rdf:RDF>
  </metadata>
  <g
     inkscape:label="Layer 1"
     inkscape:groupmode="layer"
     id="layer1"
     transform="translate(0,-308.26772)">
    <path
       style="fill:#000000"
       d="m 469.29682,1182.3453 c -0.21356,-0.1159 -0.3883,-0.304 -0.3883,-0.418 0,-0.114 -0.0874,-0.2073 -0.19417,-0.2073 -0.10952,0 -0.19415,-0.1443 -0.19415,-0.331 0,-0.3858 -0.41855,-1.0806 -0.65166,-1.0819 -0.0881,0 -0.3371,-0.093 -0.55322,-0.2058 -0.21613,-0.1128 -0.35534,-0.1442 -0.30937,-0.07 0.10322,0.167 -0.1101,0.1787 -0.29316,0.016 -0.30011,-0.2667 -1.85448,-0.7861 -2.25095,-0.7522 -0.28983,0.025 -0.365,-0 -0.23652,-0.091 0.1545,-0.1047 0.15123,-0.1419 -0.0181,-0.2069 -0.11354,-0.044 -0.26184,-0.025 -0.32955,0.042 -0.14524,0.143 -1.76965,-0.3776 -1.92129,-0.6157 -0.075,-0.1178 -0.10434,-0.1127 -0.10591,0.018 -0.002,0.1985 -0.41161,0.1681 -0.99603,-0.074 -0.19715,-0.082 -0.84955,-0.1945 -1.44974,-0.2507 -0.60021,-0.056 -1.13785,-0.1742 -1.19479,-0.262 -0.0569,-0.088 -0.16704,-0.1619 -0.24471,-0.1645 -0.20918,-0.01 -1.72345,-0.3489 -2.60968,-0.589 -0.42572,-0.1154 -0.92584,-0.3615 -1.11137,-0.5471 -0.18555,-0.1855 -0.38978,-0.3049 -0.45388,-0.2653 -0.10228,0.063 -0.41128,-0.7761 -0.4134,-1.1229 -0.003,-0.4538 1.86289,-1.362 2.52682,-1.23 0.10876,0.022 0.48667,-0.071 0.83979,-0.2058 0.4581,-0.175 0.65762,-0.1984 0.69647,-0.082 0.0385,0.1155 0.1429,0.1013 0.35656,-0.048 0.16618,-0.1164 0.51039,-0.2117 0.76493,-0.2117 0.25454,0 0.46278,-0.053 0.46278,-0.1176 0,-0.065 0.0794,-0.1236 0.17652,-0.1309 0.0971,-0.01 0.45676,-0.1163 0.79931,-0.2424 0.34254,-0.1261 0.87685,-0.2546 1.18737,-0.2855 0.31053,-0.031 0.61456,-0.137 0.67566,-0.2359 0.0611,-0.099 0.15501,-0.1358 0.20871,-0.082 0.0537,0.054 0.27957,-0.032 0.50189,-0.1902 0.22234,-0.1583 0.40426,-0.244 0.40426,-0.1903 0,0.054 0.0794,0.036 0.17651,-0.039 0.27487,-0.2128 1.47809,-0.5041 1.64797,-0.3992 0.0838,0.052 0.15237,0.032 0.15237,-0.043 0,-0.2052 1.05048,-0.9983 1.39123,-1.0503 0.16278,-0.025 0.33568,-0.085 0.38427,-0.1335 0.13779,-0.1378 0.76617,0.1982 0.76617,0.4097 0,0.104 0.056,0.1891 0.12447,0.1891 0.1585,0 0.58897,1.1791 0.68108,1.8656 0.0387,0.2882 0.15918,0.5979 0.2678,0.688 0.10862,0.09 0.19749,0.2514 0.19749,0.3584 0,0.1263 0.16502,0.1945 0.47069,0.1945 0.25886,0 0.51833,0.048 0.57657,0.1059 0.0583,0.058 0.37066,0.1184 0.69425,0.1336 0.71449,0.034 4.03469,0.048 4.33025,0.019 0.5458,-0.054 0.9989,0.034 0.91102,0.1759 -0.0664,0.1074 0.25326,0.1203 1.08599,0.044 0.92622,-0.085 7.18511,-0.1362 9.51111,-0.078 0.233,0.01 0.646,0.012 0.91783,0.014 4.73546,0.029 10.1662,-0.047 10.16646,-0.1422 0,-0.044 0.30739,-0.041 0.68283,0.01 0.37541,0.048 0.86787,0.037 1.09433,-0.025 0.5197,-0.1417 5.00084,-0.1245 5.00084,0.019 0,0.059 0.30183,0.084 0.67072,0.057 0.36889,-0.027 1.69413,-0.079 2.94495,-0.1162 1.2508,-0.037 2.3737,-0.1049 2.49532,-0.1516 0.12161,-0.047 0.34675,-0.018 0.50032,0.065 0.2609,0.1396 2.81829,0.1095 5.81464,-0.069 0.58245,-0.035 1.18416,-0.065 1.33709,-0.067 0.15293,-0 0.31958,-0.072 0.37034,-0.1539 0.0599,-0.097 0.18526,-0.1033 0.35736,-0.018 0.63409,0.3137 7.6376,0.2967 9.51393,-0.023 0.39594,-0.067 0.43806,-0.055 0.21181,0.062 -0.22917,0.1186 -0.20256,0.1275 0.1412,0.047 0.23299,-0.054 1.15434,-0.1028 2.04746,-0.108 0.89311,-0.01 1.68892,-0.052 1.76846,-0.1041 0.0795,-0.052 0.68319,-0.079 1.34144,-0.06 0.65824,0.019 1.3707,-0.013 1.58322,-0.072 0.21253,-0.058 0.42279,-0.047 0.46725,0.025 0.0445,0.072 0.17615,0.1308 0.29264,0.1308 0.1165,0 0.17254,-0.063 0.12454,-0.1412 -0.11202,-0.1812 0.0177,-0.1795 0.3623,0.01 0.19592,0.1049 0.27312,0.1006 0.27312,-0.015 0,-0.099 0.0955,-0.1212 0.24711,-0.058 0.21512,0.09 1.77567,0.1883 3.46033,0.2175 0.29168,0 0.75492,-0.072 1.0294,-0.1713 0.39993,-0.1446 0.55516,-0.1454 0.78153,-0 0.15536,0.097 0.35932,0.1284 0.45324,0.07 0.26306,-0.1644 0.52377,-0.1754 0.52377,-0.022 0,0.077 0.1336,0.096 0.30009,0.043 0.22942,-0.073 0.27291,-0.05 0.1847,0.096 -0.0835,0.1388 -0.0431,0.1332 0.14649,-0.02 0.18916,-0.153 0.27753,-0.1652 0.31831,-0.044 0.0398,0.1181 0.35016,0.1451 1.05048,0.091 1.20944,-0.093 1.28163,-0.1033 1.45942,-0.2117 0.18905,-0.1153 1.08738,-0.072 1.29638,0.062 0.0917,0.059 0.20667,0.043 0.25544,-0.036 0.11111,-0.1798 0.73342,-0.1888 0.84256,-0.012 0.076,0.1228 1.47647,0.069 1.6073,-0.062 0.0329,-0.033 0.17337,0 0.31222,0.075 0.17612,0.094 0.26996,0.083 0.31035,-0.039 0.0436,-0.1308 0.14252,-0.136 0.3997,-0.021 0.20538,0.092 0.50752,0.107 0.757,0.039 0.25009,-0.069 0.48445,-0.056 0.58934,0.031 0.11193,0.093 0.41762,0.1009 0.85564,0.023 0.37482,-0.067 1.25337,-0.1051 1.95233,-0.084 0.69896,0.021 1.44557,0.039 1.65914,0.041 0.26428,0 0.38831,0.077 0.38831,0.2345 0,0.1669 0.0492,0.1917 0.17651,0.089 0.0971,-0.078 0.72265,-0.1796 1.39016,-0.2251 0.66751,-0.046 1.31881,-0.1231 1.44734,-0.1724 0.15982,-0.061 0.23368,-0.015 0.23368,0.1456 0,0.1294 0.0646,0.1953 0.14351,0.1466 0.0789,-0.049 0.10694,-0.1479 0.0623,-0.2202 -0.10413,-0.1685 0.11925,-0.1715 0.2955,-0 0.18535,0.1762 1.46486,0.2576 1.51851,0.097 0.024,-0.072 0.29419,-0.1139 0.60045,-0.093 0.58637,0.04 0.7377,0.04 1.56352,0 0.29794,-0.013 0.56302,0.058 0.63326,0.1685 0.0731,0.1153 0.12164,0.1272 0.12296,0.03 0.003,-0.2088 0.82645,-0.3306 0.89447,-0.1323 0.0366,0.1066 0.1736,0.108 0.46235,0 0.51622,-0.1847 0.9046,-0.1098 0.9046,0.1744 0,0.1785 0.039,0.1864 0.21181,0.043 0.14634,-0.1214 0.2118,-0.1267 0.2118,-0.017 0,0.087 0.0953,0.1585 0.21181,0.1585 0.1165,0 0.21181,-0.048 0.21181,-0.1059 0,-0.1398 2.56193,-0.1302 2.78637,0.011 0.20596,0.1292 1.19332,-0.031 1.10204,-0.1783 -0.0779,-0.1262 0.36583,-0.1014 0.5825,0.033 0.0876,0.054 0.19538,0 0.23958,-0.1111 0.0641,-0.1669 0.15906,-0.1794 0.4682,-0.062 0.2133,0.081 0.52385,0.1133 0.69009,0.072 0.16624,-0.042 0.34391,-0.034 0.39485,0.017 0.14324,0.1433 0.82933,0.1516 1.20845,0.015 0.23812,-0.086 0.3762,-0.068 0.45675,0.059 0.0635,0.1001 0.11642,0.1185 0.11761,0.041 10e-4,-0.088 0.78211,-0.1357 2.08492,-0.1266 1.37691,0.01 2.11793,-0.038 2.18652,-0.1412 0.072,-0.1081 0.1044,-0.1018 0.1059,0.021 10e-4,0.097 0.0694,0.1765 0.1517,0.1765 0.0822,0 0.11039,-0.063 0.0625,-0.1408 -0.0576,-0.093 0.0353,-0.094 0.27435,-0 0.19875,0.076 0.94899,0.1152 1.66721,0.088 0.73567,-0.028 1.38292,0.012 1.48236,0.091 0.0971,0.077 0.1765,0.083 0.1765,0.013 0,-0.071 0.57198,-0.1042 1.28757,-0.074 0.9782,0.041 1.26234,0.013 1.18255,-0.1162 -0.0776,-0.1255 -0.0174,-0.1386 0.23038,-0.05 0.18446,0.066 0.57367,0.1109 0.8649,0.1 0.3155,-0.012 0.53039,0.046 0.53167,0.1424 10e-4,0.093 0.0577,0.075 0.13161,-0.042 0.1235,-0.1952 0.50275,-0.2351 1.70189,-0.1791 0.95569,0.045 3.79071,-0.08 3.94194,-0.1738 0.0841,-0.052 0.15297,-0.034 0.15297,0.041 0,0.074 0.20651,0.1098 0.45891,0.078 1.00836,-0.1253 3.37044,-0.1431 3.44285,-0.026 0.0424,0.069 0.17894,0.042 0.30343,-0.059 0.18745,-0.1519 0.20652,-0.1505 0.11095,0.01 -0.0852,0.1415 -0.0461,0.1719 0.1494,0.1164 0.68364,-0.1941 2.94769,-0.4285 4.00669,-0.4149 0.27181,0 0.60155,-0.051 0.73275,-0.1203 0.14737,-0.078 0.27199,-0.073 0.32604,0.015 0.1163,0.1882 0.72322,0.1803 1.08651,-0.014 0.20345,-0.1088 0.31887,-0.1108 0.38338,-0.01 0.11395,0.1844 0.70919,0.1555 0.67394,-0.033 -0.014,-0.075 0.27624,-0.1412 0.64508,-0.1472 0.36883,-0.01 0.67066,0.025 0.67071,0.068 0,0.1105 1.23498,0.049 2.82419,-0.1403 0.73779,-0.088 1.62737,-0.158 1.97686,-0.1557 1.62513,0.011 2.33807,-0.045 2.43361,-0.1903 0.073,-0.1111 0.10438,-0.1055 0.1059,0.019 10e-4,0.097 0.0975,0.1766 0.21397,0.1766 0.11648,0 0.21193,-0.048 0.21208,-0.106 0,-0.058 0.55614,-0.1186 1.23554,-0.1342 2.58823,-0.059 3.56501,-0.116 3.56506,-0.2065 2e-5,-0.052 0.19045,-0.022 0.42316,0.066 0.34199,0.1291 0.46348,0.1193 0.63372,-0.051 0.16143,-0.1614 0.4251,-0.1926 1.12909,-0.1336 0.50517,0.042 0.93485,0.031 0.95482,-0.025 0.0468,-0.1313 1.00497,-0.1557 1.7308,-0.044 1.05984,0.1631 1.63138,0.1513 1.56098,-0.032 -0.0363,-0.095 -0.0106,-0.2062 0.057,-0.2479 0.0676,-0.042 0.14809,-0 0.1788,0.091 0.0364,0.1092 0.15111,0.1265 0.32977,0.05 0.15066,-0.065 0.43278,-0.1413 0.62694,-0.17 0.28703,-0.043 0.31342,-0.023 0.14121,0.1057 -0.17294,0.1288 -0.15997,0.1394 0.0706,0.058 0.66693,-0.2364 3.03588,-0.3751 3.03588,-0.1777 0,0.07 0.0709,0.083 0.1575,0.029 0.22789,-0.1409 1.96589,-0.1662 2.05014,-0.03 0.0391,0.063 0.13495,0.076 0.21298,0.027 0.19686,-0.1217 1.23757,-0.1508 1.1644,-0.033 -0.0327,0.053 0.002,0.1336 0.0753,0.1794 0.0742,0.046 0.19424,-0.023 0.26686,-0.1526 0.0874,-0.1561 0.23654,-0.2085 0.44094,-0.1551 0.18931,0.049 0.33672,0.01 0.38076,-0.1065 0.0593,-0.1544 0.13853,-0.1526 0.45028,0.01 0.49403,0.2577 0.72347,0.2501 1.03801,-0.034 0.20503,-0.1856 0.25822,-0.1929 0.25828,-0.035 2e-5,0.1545 0.2733,0.2006 1.23553,0.2082 0.67952,0 1.3571,0.064 1.50574,0.1299 0.19282,0.086 0.24101,0.073 0.16817,-0.045 -0.0562,-0.091 -0.0348,-0.1652 0.0475,-0.1652 0.0822,0 0.14953,0.052 0.14953,0.1153 0,0.063 0.36711,0.072 0.8158,0.019 0.91705,-0.1081 1.58004,-0.089 2.25539,0.066 0.25241,0.058 0.45926,0.052 0.4597,-0.012 0,-0.064 0.41206,-0.12 0.91474,-0.1235 0.50272,-0 0.84418,0.037 0.75885,0.089 -0.0853,0.053 0.10611,0.1208 0.42546,0.1512 0.31936,0.031 0.59706,0.016 0.61714,-0.032 0.0201,-0.048 0.39757,-0.047 0.83888,0 0.4413,0.05 0.77116,0.04 0.733,-0.022 -0.0382,-0.062 0,-0.1122 0.0846,-0.1122 0.0847,0 0.19053,0.095 0.23524,0.2118 0.10504,0.2737 0.47467,0.2756 0.47467,0 0,-0.1616 0.15422,-0.2 0.67597,-0.1682 0.37176,0.023 0.75229,0.088 0.84559,0.1461 0.11688,0.072 0.14098,0.03 0.0774,-0.1354 -0.0767,-0.1999 -0.0311,-0.225 0.27091,-0.1491 0.1997,0.05 0.46432,0.1299 0.58803,0.1774 0.12371,0.047 0.22493,0.029 0.22493,-0.042 0,-0.07 0.2208,-0.1022 0.4907,-0.071 0.26988,0.032 0.67497,-0.01 0.9002,-0.085 0.30433,-0.1061 0.4956,-0.093 0.74483,0.05 0.62215,0.3575 0.89955,0.4536 0.94722,0.328 0.0691,-0.182 0.44177,-0.1512 0.63373,0.053 0.20127,0.2134 0.28282,0.8119 0.11063,0.8119 -0.0677,0 -0.15588,0.1254 -0.19594,0.2786 -0.054,0.2065 -0.19543,0.2796 -0.54598,0.2821 -0.78262,0.01 -1.1248,0.084 -1.25026,0.2874 -0.0924,0.1495 -0.16408,0.1555 -0.31942,0.027 -0.11014,-0.091 -0.23063,-0.1359 -0.26775,-0.099 -0.16556,0.1655 -2.33255,0.3019 -2.71366,0.1707 -0.32841,-0.113 -0.43171,-0.095 -0.53655,0.092 -0.0714,0.1277 -0.23788,0.2311 -0.36994,0.2299 -0.20748,-0 -0.21132,-0.022 -0.0283,-0.1455 0.1547,-0.1046 0.0976,-0.1178 -0.2118,-0.049 -0.23299,0.052 -0.44954,0.117 -0.48122,0.1443 -0.0317,0.027 -0.15477,-0.029 -0.27355,-0.1258 -0.17957,-0.1457 -0.20134,-0.1363 -0.12931,0.056 0.0664,0.1773 0.007,0.2269 -0.25586,0.2118 -0.18839,-0.011 -0.3426,-0.052 -0.34271,-0.09 0,-0.1163 -2.17424,-0.073 -2.36516,0.047 -0.11639,0.073 -0.17651,0.027 -0.17651,-0.1373 0,-0.1932 -0.0377,-0.2107 -0.16945,-0.079 -0.19302,0.193 -0.81897,0.231 -0.81897,0.05 0,-0.066 -0.27004,-0.097 -0.60012,-0.07 -0.33006,0.027 -0.72719,0.061 -0.88253,0.074 -0.72094,0.062 -1.63411,-0.037 -1.55324,-0.1673 0.048,-0.078 -0.007,-0.1412 -0.12109,-0.1412 -0.11461,0 -0.22955,0.056 -0.25545,0.1253 -0.0654,0.1741 -1.21902,0.3171 -1.31428,0.1629 -0.0427,-0.069 -0.52459,-0.1094 -1.07088,-0.09 -0.5463,0.02 -1.02745,-0.019 -1.06921,-0.087 -0.0418,-0.068 -0.21,-0.08 -0.37381,-0.028 -0.39583,0.1257 -2.64974,0.1199 -2.95461,-0.01 -0.1322,-0.055 -0.30971,-0.058 -0.3945,-0.01 -0.0848,0.052 -0.23079,0.033 -0.32447,-0.043 -0.11115,-0.09 -0.4568,-0.085 -0.99509,0.014 -0.61972,0.114 -0.8918,0.1098 -1.09433,-0.017 -0.20944,-0.1307 -0.26956,-0.1302 -0.26956,0 0,0.1328 -0.0377,0.133 -0.16944,0 -0.2352,-0.2352 -0.40282,-0.2119 -0.30523,0.042 0.0846,0.2205 -0.10603,0.2901 -0.29019,0.106 -0.15727,-0.1573 -0.70203,-0.1371 -0.82368,0.031 -0.0702,0.097 -0.14159,0.098 -0.21181,0.01 -0.13265,-0.1769 -0.45891,-0.2494 -0.45891,-0.102 0,0.1184 -0.51953,0.1143 -3.64993,-0.029 -1.22165,-0.056 -2.09063,-0.039 -2.18866,0.042 -0.17726,0.1466 -0.93895,0.145 -0.9391,-0 0,-0.1946 -0.42527,-0.2405 -0.60082,-0.065 -0.23829,0.2383 -1.07767,0.3638 -1.46326,0.2188 -0.16442,-0.062 -0.53011,-0.06 -0.81267,0 -0.28256,0.064 -0.54387,0.067 -0.58068,0.01 -0.0368,-0.06 -0.40186,-0.079 -0.81118,-0.043 -0.40932,0.036 -1.20488,0.075 -1.76788,0.088 -0.56301,0.012 -1.02369,0.071 -1.02373,0.1311 -5e-5,0.06 -0.15893,0.069 -0.35308,0.02 -0.2202,-0.055 -0.35301,-0.029 -0.35301,0.071 0,0.093 -0.13306,0.1287 -0.31771,0.086 -0.50037,-0.1146 -2.64757,-0.1882 -2.64757,-0.091 0,0.048 -0.36537,0.1057 -0.81192,0.1276 -0.44656,0.022 -0.92313,0.074 -1.05903,0.1152 -0.13591,0.042 -0.24711,0 -0.24711,-0.083 0,-0.088 -0.063,-0.1201 -0.13996,-0.073 -0.21995,0.1359 -1.41328,0.1746 -1.41328,0.046 0,-0.064 -0.0673,-0.1157 -0.14954,-0.1157 -0.0822,0 -0.11593,0.054 -0.0748,0.1209 0.0411,0.066 -0.76533,0.1263 -1.79202,0.133 -2.12091,0.014 -3.40636,0.096 -3.90094,0.2499 -0.20948,0.065 -0.3073,0.053 -0.25507,-0.032 0.10116,-0.1637 -1.91985,-0.1519 -2.42708,0.014 -0.27811,0.091 -0.32334,0.07 -0.25155,-0.1172 0.0482,-0.1254 0.026,-0.2281 -0.0492,-0.2281 -0.0752,0 -0.13676,0.069 -0.13676,0.1525 0,0.096 -0.16877,0.1191 -0.45891,0.062 -0.29038,-0.057 -0.39124,-0.043 -0.27465,0.037 0.17532,0.1214 -2.81782,0.2372 -5.0911,0.197 -0.52422,-0.01 -0.95313,0.03 -0.95313,0.087 0,0.1358 -1.89027,0.099 -2.11707,-0.041 -0.0956,-0.059 -0.21432,-0.052 -0.26389,0.017 -0.11166,0.1537 -2.70249,0.1663 -2.70242,0.013 3e-5,-0.061 -0.11552,-0.049 -0.25677,0.027 -0.21679,0.1161 -0.58672,0.1193 -0.87282,0.01 -0.0388,-0.015 -0.13414,-0.014 -0.21181,0 -0.58283,0.1225 -3.87434,0.2008 -3.98046,0.095 -0.0358,-0.036 -0.25009,-0.012 -0.47619,0.053 -0.25177,0.072 -0.4447,0.064 -0.49786,-0.022 -0.0477,-0.077 -0.19157,-0.096 -0.31962,-0.042 -0.32542,0.138 -2.70392,0.1569 -2.7039,0.021 10e-6,-0.061 -0.13992,-0.036 -0.31095,0.056 -0.2391,0.128 -0.32384,0.1278 -0.36674,-0 -0.0425,-0.1275 -0.10292,-0.1282 -0.25385,-0 -0.1513,0.1256 -0.2481,0.1229 -0.40988,-0.011 -0.17075,-0.1417 -0.21269,-0.1382 -0.2163,0.018 -0.003,0.1297 -0.0731,0.1031 -0.21181,-0.08 -0.17304,-0.2288 -0.20731,-0.2362 -0.20731,-0.045 0,0.2349 -0.0116,0.2352 -1.23518,0.03 -0.9681,-0.1623 -2.30733,-0.1985 -2.22175,-0.06 0.1316,0.213 -0.33249,0.332 -0.55954,0.1436 -0.13282,-0.1102 -0.35837,-0.1274 -0.66894,-0.051 -0.62178,0.1532 -3.25091,0.064 -3.1454,-0.1066 0.0447,-0.072 0.0193,-0.1315 -0.0565,-0.1315 -0.0758,0 -0.15895,0.06 -0.18485,0.1337 -0.063,0.1788 -1.07153,0.1821 -2.42471,0.01 -0.60876,-0.078 -1.27595,-0.1108 -1.48264,-0.072 -0.20671,0.039 -1.17011,0.062 -2.14088,0.053 -2.58393,-0.026 -2.87859,-0.041 -3.05148,-0.1537 -0.0862,-0.056 -0.19387,-0.065 -0.23915,-0.02 -0.0713,0.071 -1.17345,0.2191 -1.5809,0.212 -0.1387,-0 -6.50144,-0.1596 -6.77779,-0.1675 -1.04562,-0.03 -5.70753,0.1368 -5.88097,0.2101 -0.12806,0.054 -0.26497,0.046 -0.30425,-0.017 -0.0393,-0.064 -1.68188,-0.097 -3.65026,-0.074 -5.62159,0.066 -7.33406,0.06 -8.15404,-0.029 -0.51159,-0.055 -0.8325,-0.024 -0.97483,0.094 -0.22059,0.183 -0.26431,0.1779 -0.55709,-0.065 -0.0971,-0.081 -0.177,-0.091 -0.17761,-0.023 -10e-4,0.068 -0.15946,0.1966 -0.35301,0.2864 -0.2243,0.104 -0.3519,0.1113 -0.3519,0.02 0,-0.079 -0.0933,-0.1073 -0.20729,-0.063 -0.114,0.044 -0.24484,0.019 -0.29073,-0.055 -0.1367,-0.2212 -0.34905,-0.1535 -0.35136,0.112 -10e-4,0.1569 -0.0401,0.1886 -0.10591,0.087 -0.10108,-0.1561 -1.44514,-0.3363 -1.44521,-0.1938 -6e-5,0.1015 -2.72366,0.089 -2.89465,-0.013 -0.17476,-0.1044 -1.25101,-0.055 -2.48904,0.1138 -0.69936,0.096 -0.96691,0.084 -1.05902,-0.045 -0.0919,-0.1287 -0.21307,-0.1341 -0.47625,-0.021 -0.37527,0.1612 -1.97599,0.2363 -1.97653,0.093 0,-0.047 -0.8105,-0.062 -1.80069,-0.034 -2.61984,0.074 -2.77842,0.088 -2.8925,0.2522 -0.0681,0.098 -0.10449,0.087 -0.10591,-0.032 -0.002,-0.1382 -0.0701,-0.1451 -0.28749,-0.029 -0.15692,0.084 -0.35452,0.11 -0.43909,0.058 -0.22482,-0.1389 -1.24891,-0.1677 -1.16549,-0.033 0.039,0.063 -0.0319,0.1149 -0.15754,0.1149 -0.12566,0 -0.1892,-0.063 -0.14121,-0.1412 0.048,-0.078 -0.0436,-0.1412 -0.20347,-0.1412 -0.1599,0 -0.29075,0.063 -0.29075,0.1412 0,0.078 -0.11119,0.1402 -0.2471,0.139 -0.21334,-0 -0.21816,-0.023 -0.0353,-0.1526 0.15967,-0.1134 0.10752,-0.126 -0.2118,-0.051 -1.0356,0.2423 -1.51245,0.261 -3.67129,0.144 -2.73951,-0.1485 -3.03621,-0.1543 -3.03604,-0.06 0,0.073 -1.29141,0.2301 -2.25912,0.2745 -1.28781,0.059 -6.52046,-0.079 -6.57896,-0.1736 -0.0424,-0.069 -0.15217,-0.076 -0.24388,-0.017 -0.0917,0.06 -0.83395,0.1212 -1.64938,0.1372 -0.81547,0.016 -1.60974,0.035 -1.76505,0.042 -0.15534,0.01 -0.72721,0.011 -1.27085,0.01 -1.11941,-0 -1.9745,0.062 -2.62571,0.2055 -0.3186,0.07 -0.417,0.052 -0.3454,-0.064 0.0702,-0.1136 -0.009,-0.1346 -0.26475,-0.07 -0.23072,0.058 -0.36483,0.033 -0.36483,-0.068 0,-0.093 -0.13131,-0.1279 -0.31771,-0.084 -0.63218,0.1507 -1.23553,0.1722 -1.23553,0.044 0,-0.072 -0.0716,-0.087 -0.15899,-0.033 -0.27648,0.1709 -1.2529,0.1756 -1.25521,0.01 -0.002,-0.1015 -0.0394,-0.1076 -0.10591,-0.017 -0.13304,0.1811 -2.66775,0.2629 -2.77487,0.09 -0.0492,-0.08 -0.30496,-0.08 -0.65538,-0 -0.57968,0.1303 -1.59989,0.1623 -2.25104,0.071 -0.19417,-0.027 -0.40762,-0.018 -0.47433,0.02 -0.15051,0.086 -2.62044,0.063 -5.25595,-0.048 -1.28931,-0.054 -2.19531,-0.028 -2.57697,0.075 -0.52956,0.1426 -0.59028,0.204 -0.60531,0.612 -0.009,0.2494 -0.003,0.517 0.0132,0.5947 0.0164,0.078 0.0608,0.3636 0.0986,0.6354 0.0377,0.2718 0.11966,0.6213 0.18204,0.7766 0.0624,0.1553 0.23207,0.6795 0.37703,1.1649 0.14498,0.4854 0.31554,0.8825 0.37904,0.8825 0.0635,0 0.0742,0.1302 0.0237,0.2892 -0.0505,0.1591 -0.0345,0.3656 0.0355,0.4589 0.18369,0.245 0.20098,0.923 0.0316,1.2394 -0.17259,0.3225 -0.48712,0.3379 -1.01807,0.05 z"
       id="path14671"
       inkscape:connector-curvature="0" />
    <rect
       style="color:#000000;clip-rule:nonzero;display:inline;overflow:visible;visibility:visible;opacity:1;isolation:auto;mix-blend-mode:normal;color-interpolation:sRGB;color-interpolation-filters:linearRGB;solid-color:#000000;solid-opacity:1;fill:none;fill-opacity:1;fill-rule:nonzero;stroke:#000000;stroke-width:10;stroke-linecap:butt;stroke-linejoin:miter;stroke-miterlimit:4;stroke-dasharray:none;stroke-dashoffset:0;stroke-opacity:1;marker:none;color-rendering:auto;image-rendering:auto;shape-rendering:auto;text-rendering:auto;enable-background:accumulate"
       id="rect4754"
       width="312.953"
       height="260"
       x="88.133163"
       y="486.96817"
       ry="33.13726" />
    <flowRoot
       xml:space="preserve"
       id="flowRoot4756"
       style="font-style:normal;font-weight:normal;font-size:45px;line-height:125%;font-family:sans-serif;letter-spacing:0px;word-spacing:0px;fill:#000000;fill-opacity:1;stroke:none;stroke-width:1px;stroke-linecap:butt;stroke-linejoin:miter;stroke-opacity:1"
       transform="translate(1744.3746,599.08198)"><flowRegion
         id="flowRegion4758"><rect
           id="rect4760"
           width="714.28571"
           height="240"
           x="-1568.5714"
           y="-10.191232" /></flowRegion><flowPara
         id="flowPara4762">Editor</flowPara></flowRoot>    <rect
       ry="33.13726"
       y="486.96817"
       x="632.70465"
       height="260"
       width="331.52441"
       id="rect4764"
       style="color:#000000;clip-rule:nonzero;display:inline;overflow:visible;visibility:visible;opacity:1;isolation:auto;mix-blend-mode:normal;color-interpolation:sRGB;color-interpolation-filters:linearRGB;solid-color:#000000;solid-opacity:1;fill:none;fill-opacity:1;fill-rule:nonzero;stroke:#000000;stroke-width:10;stroke-linecap:butt;stroke-linejoin:miter;stroke-miterlimit:4;stroke-dasharray:none;stroke-dashoffset:0;stroke-opacity:1;marker:none;color-rendering:auto;image-rendering:auto;shape-rendering:auto;text-rendering:auto;enable-background:accumulate" />
    <path
       style="fill:#000000"
       d="m 607.49277,627.37409 c -0.34667,-0.13175 -1.07964,-0.99357 -1.01694,-1.19569 0.0251,-0.0808 0.24835,-0.23786 0.49615,-0.34896 0.24778,-0.11108 0.45053,-0.28582 0.45053,-0.38832 0,-0.10247 0.0703,-0.1863 0.15618,-0.1863 0.0859,0 0.28114,-0.15886 0.43388,-0.35303 0.15269,-0.19415 0.34111,-0.35301 0.41869,-0.35301 0.23748,0 0.51604,-0.35869 0.55767,-0.71808 0.0448,-0.38655 -0.13923,-1.03858 -0.25922,-0.9186 -0.0435,0.0435 -0.16272,-0.0312 -0.26502,-0.16585 -0.17597,-0.23175 -0.18622,-0.23142 -0.19048,0.006 -0.004,0.23544 -0.0314,0.23679 -0.44683,0.022 -0.32962,-0.17046 -0.46859,-0.18629 -0.54528,-0.0622 -0.1551,0.25093 -1.80432,0.28866 -1.89841,0.0434 -0.0545,-0.14196 -0.14527,-0.15797 -0.33132,-0.0584 -0.14097,0.0754 -0.66612,0.15537 -1.16703,0.17763 -0.50091,0.0223 -0.95745,0.10625 -1.0145,0.18665 -0.0657,0.0926 -0.10453,0.078 -0.10591,-0.0399 -0.002,-0.11876 -0.1,-0.15498 -0.27268,-0.10015 -0.14879,0.0472 -0.31331,0.0166 -0.36558,-0.0679 -0.0677,-0.10957 -0.15237,-0.10624 -0.29428,0.0116 -0.12303,0.1021 -0.19925,0.1099 -0.19925,0.0204 0,-0.15927 -1.16413,-0.13858 -1.62383,0.0288 -0.25174,0.0917 -0.25557,0.0856 -0.0353,-0.056 0.13591,-0.0874 0.24614,-0.23517 0.24495,-0.32837 -0.002,-0.11755 -0.034,-0.12239 -0.1059,-0.0159 -0.0571,0.0845 -0.40194,0.22746 -0.76638,0.3177 -0.80714,0.19988 -1.00369,0.20588 -0.89332,0.0273 0.0513,-0.083 -0.22637,-0.12868 -0.70487,-0.11608 -0.4342,0.0114 -0.82174,0.073 -0.86119,0.13684 -0.12678,0.20512 -0.33741,0.12384 -0.33963,-0.13104 -0.002,-0.2108 -0.022,-0.21598 -0.13691,-0.0353 -0.11243,0.17673 -0.18314,0.18179 -0.4272,0.0305 -0.16085,-0.0997 -0.36929,-0.13326 -0.46322,-0.0746 -0.22247,0.13909 -2.07699,0.14686 -2.077,0.009 0,-0.0583 -0.12709,-0.10591 -0.28241,-0.10591 -0.15533,0 -0.28242,0.0541 -0.28242,0.12015 0,0.0661 -0.17474,0.11236 -0.3883,0.10284 -0.21358,-0.009 -0.46367,0.0361 -0.5558,0.10145 -0.0949,0.0673 -0.29769,0.0491 -0.46799,-0.0421 -0.16525,-0.0885 -0.63,-0.15098 -1.03274,-0.13897 -0.40274,0.0119 -0.79579,0.0105 -0.87346,-0.003 -0.16773,-0.0299 -0.89286,-0.008 -2.30198,0.0699 -0.83126,0.0458 -1.0472,0.015 -1.11397,-0.15902 -0.0553,-0.14424 -0.11493,-0.16399 -0.17951,-0.0595 -0.12328,0.19948 -1.52475,0.31851 -1.63574,0.13891 -0.0459,-0.0743 -0.14041,-0.0998 -0.21005,-0.0568 -0.16089,0.0994 -6.59687,0.14946 -6.69427,0.052 -0.0974,-0.0973 -2.90578,-0.0285 -3.00801,0.0738 -0.0443,0.0443 -0.15637,0.0175 -0.2491,-0.0594 -0.11179,-0.0928 -0.31495,-0.0889 -0.6031,0.0116 -0.31682,0.11043 -0.51698,0.10732 -0.73902,-0.0116 -0.35408,-0.1895 -0.58345,-0.0539 -0.27623,0.16332 0.16213,0.11461 0.14573,0.12487 -0.0747,0.0467 -0.15532,-0.055 -0.50481,-0.1259 -0.77662,-0.15748 -0.27182,-0.0316 -0.70072,-0.0951 -0.95313,-0.14108 -0.26227,-0.0478 -0.45891,-0.0244 -0.45891,0.0546 0,0.0837 -0.21637,0.0987 -0.54814,0.038 -0.61863,-0.11312 -1.416,-0.0339 -1.66679,0.1657 -0.10642,0.0847 -0.27375,0.0764 -0.45892,-0.0227 -0.16028,-0.0858 -0.29143,-0.10447 -0.29143,-0.0415 0,0.1207 -2.75533,0.0993 -3.43121,-0.0266 -0.2872,-0.0535 -0.36843,-0.026 -0.297,0.10073 0.0769,0.13627 0.0582,0.13724 -0.0852,0.005 -0.12745,-0.11797 -0.26328,-0.12724 -0.44433,-0.0303 -0.14342,0.0768 -0.26077,0.0874 -0.26077,0.0236 0,-0.0637 -0.12709,-0.11592 -0.28241,-0.11592 -0.15533,0 -0.28241,0.0434 -0.28241,0.0965 0,0.0531 -0.74662,0.0862 -1.65915,0.0737 -0.91252,-0.0125 -2.00863,0.0159 -2.43576,0.0633 -0.42715,0.0473 -0.91771,0.023 -1.09015,-0.0541 -0.19996,-0.0894 -0.37898,-0.0914 -0.49422,-0.005 -0.0994,0.0742 -0.32365,0.12395 -0.49839,0.11063 -0.17474,-0.0134 -0.31771,0.0316 -0.31771,0.0997 0,0.12071 -0.7765,0.0391 -1.01184,-0.10638 -0.0648,-0.04 -0.11779,0.0285 -0.11779,0.15232 0,0.16581 -0.0651,0.1936 -0.24711,0.10551 -0.1359,-0.0658 -0.42185,-0.11271 -0.63541,-0.1043 -0.21357,0.008 -0.38832,-0.0391 -0.38832,-0.10552 0,-0.0664 -0.0791,-0.0719 -0.17572,-0.0123 -0.0967,0.0598 -0.41387,0.11459 -0.70492,0.12189 -0.29105,0.007 -0.45209,-0.0344 -0.35787,-0.0926 0.0942,-0.0582 0.12703,-0.15017 0.0729,-0.20427 -0.0541,-0.0541 -0.17936,-0.0328 -0.27831,0.0474 -0.099,0.0802 -0.60201,0.18392 -1.1179,0.23054 -0.5159,0.0466 -1.04653,0.12644 -1.17919,0.17733 -0.14075,0.054 -0.29161,0.011 -0.36227,-0.10333 -0.0964,-0.15602 -0.15677,-0.16021 -0.2964,-0.0206 -0.20942,0.20944 -0.45462,0.23474 -0.33064,0.0341 0.048,-0.0776 -0.0436,-0.14121 -0.20347,-0.14121 -0.15992,0 -0.29075,0.0636 -0.29075,0.14121 0,0.0777 -0.0673,0.1412 -0.14954,0.1412 -0.0823,0 -0.10407,-0.0736 -0.0485,-0.16345 0.0717,-0.11594 0.002,-0.13343 -0.23877,-0.0601 -0.56886,0.17294 -1.54002,0.2216 -1.54002,0.0772 0,-0.0748 -0.0703,-0.136 -0.15632,-0.136 -0.086,0 -0.11918,0.0968 -0.0738,0.21508 0.0658,0.17147 0.0297,0.18679 -0.17812,0.0756 -0.14337,-0.0767 -0.28654,-0.11363 -0.31817,-0.082 -0.0316,0.0316 -0.36138,0.0732 -0.73281,0.0924 -0.37144,0.0192 -0.70566,0.084 -0.74269,0.14396 -0.037,0.0599 -0.20958,0.0549 -0.3834,-0.0112 -0.25403,-0.0966 -1.45422,-0.0955 -3.83949,0.004 -0.0777,0.003 -0.84016,-0.004 -1.69445,-0.0155 -0.85428,-0.0117 -1.58502,-0.009 -1.62384,0.006 -0.23738,0.0911 -1.00343,0.0861 -1.06089,-0.007 -0.0379,-0.0612 -0.40442,-0.0237 -0.81462,0.0834 -0.51608,0.13477 -0.97067,0.15921 -1.47597,0.0793 -0.56313,-0.089 -0.74687,-0.072 -0.803,0.0743 -0.0859,0.22393 -0.59013,0.25383 -0.7206,0.0427 -0.05,-0.0808 -0.22767,-0.10351 -0.39492,-0.0504 -0.16726,0.0531 -0.96233,0.0885 -1.76686,0.0787 -0.81669,-0.01 -1.58896,0.0497 -1.74851,0.13511 -0.21083,0.11283 -0.25976,0.11086 -0.1866,-0.007 0.0712,-0.11523 -0.19246,-0.15136 -0.93608,-0.12817 -0.56939,0.0177 -1.0988,0.0676 -1.17646,0.11086 -0.11789,0.0656 -2.65683,0.15047 -4.42816,0.14798 -0.36501,-0.002 -0.45562,0.0485 -0.39275,0.21227 0.0449,0.11712 0.0255,0.21295 -0.0433,0.21295 -0.0688,0 -0.14618,-0.0535 -0.17208,-0.11882 -0.0709,-0.17897 -0.96488,-0.32324 -0.96488,-0.15573 0,0.16162 -1.52573,0.11309 -1.80144,-0.0573 -0.11488,-0.071 -0.17616,-0.0203 -0.17757,0.14702 -10e-4,0.16974 -0.038,0.19908 -0.10898,0.0875 -0.1253,-0.19708 -1.04928,-0.20515 -1.17608,-0.0103 -0.0522,0.0803 -0.20276,0.0614 -0.37685,-0.0473 -0.23649,-0.14771 -0.33097,-0.14692 -0.51313,0.004 -0.15655,0.12993 -0.22327,0.13645 -0.22327,0.0218 0,-0.1197 -0.0756,-0.12301 -0.28241,-0.0123 -0.15533,0.0831 -0.28241,0.10125 -0.2824,0.0403 10e-6,-0.13253 -0.67789,-0.11525 -1.01697,0.0259 -0.1322,0.055 -0.30694,0.0589 -0.38831,0.009 -0.0814,-0.0503 -0.14797,-0.0389 -0.14797,0.0252 0,0.0642 -0.23829,0.10022 -0.52952,0.0801 -0.44722,-0.0309 -1.84641,-0.0471 -2.75347,-0.032 -0.13591,0.002 -0.68561,-0.004 -1.22154,-0.0139 -0.53594,-0.01 -1.11549,0.0575 -1.28787,0.14977 -0.20967,0.1122 -0.28167,0.11634 -0.21748,0.0125 0.10133,-0.16394 -0.0938,-0.21753 -0.24425,-0.0671 -0.0485,0.0485 -0.55155,0.1072 -1.11785,0.13038 -0.56631,0.0232 -2.0781,0.0885 -3.35952,0.14509 -3.28486,0.14507 -3.96896,0.1495 -4.04516,0.0262 -0.0368,-0.0595 -0.17424,-0.0566 -0.30543,0.007 -0.1312,0.0632 -0.65156,0.10692 -1.15636,0.0973 -0.50481,-0.01 -0.95457,0.0361 -0.99949,0.10177 -0.0449,0.0656 -0.22911,0.0648 -0.40933,-0.002 -0.18021,-0.0667 -0.63543,-0.0726 -1.0116,-0.013 -1.0161,0.16061 -2.48615,0.25518 -2.57567,0.16564 -0.17784,-0.17783 -1.062,-0.1562 -1.21633,0.0298 -0.0894,0.10772 -0.26766,0.1553 -0.39651,0.10586 -0.12877,-0.0494 -0.42594,-0.08 -0.66039,-0.0679 -0.77482,0.0399 -2.39463,0.1766 -2.92096,0.24653 -0.33737,0.0448 -0.54275,0.007 -0.58937,-0.10752 -0.051,-0.12578 -0.10497,-0.13168 -0.1882,-0.0206 -0.28063,0.37462 -4.67819,0.49282 -5.24737,0.14104 -0.0904,-0.0559 -0.16443,-0.0439 -0.16443,0.0268 0,0.18741 -1.59788,0.0437 -1.72426,-0.15511 -0.0799,-0.12572 -0.10762,-0.12155 -0.10923,0.0164 -10e-4,0.10165 -0.0697,0.14308 -0.15227,0.0921 -0.0826,-0.051 -0.26919,0.015 -0.41475,0.14673 -0.22476,0.20342 -0.33984,0.2147 -0.76342,0.0749 -0.27432,-0.0905 -0.8475,-0.13641 -1.27376,-0.10195 -0.5003,0.0404 -0.79392,0.006 -0.8284,-0.0964 -0.0391,-0.11621 -0.14516,-0.11335 -0.39426,0.0107 -0.68277,0.33976 -2.00525,0.58464 -2.38174,0.44101 -0.19775,-0.0754 -0.74078,-0.13795 -1.20675,-0.13892 -1.27739,-0.003 -7.09237,0.17552 -7.97804,0.24453 -0.42713,0.0333 -1.72974,0.0865 -2.89467,0.11825 -1.16493,0.0318 -2.64082,0.10429 -3.27978,0.16113 -0.82593,0.0735 -1.22022,0.0548 -1.36417,-0.0647 -0.11135,-0.0924 -0.23378,-0.11726 -0.27207,-0.0552 -0.0383,0.062 -0.3587,0.1077 -0.71203,0.10154 -0.35335,-0.006 -0.61964,0.0256 -0.59179,0.0706 0.0279,0.045 -0.81703,0.0832 -1.87749,0.0849 -1.06049,0.002 -2.65887,0.0323 -3.55199,0.068 -0.89312,0.0357 -1.68739,0.0249 -1.76505,-0.0239 -0.0777,-0.0489 -0.8084,-0.072 -1.62385,-0.0513 -0.81545,0.0206 -1.62561,-0.0161 -1.80035,-0.0816 -0.19368,-0.0725 -0.31769,-0.0653 -0.31769,0.0187 0,0.1613 -0.61003,0.18665 -0.76484,0.0318 -0.0582,-0.0582 -1.32375,-0.1155 -2.81231,-0.12725 -1.48854,-0.0118 -2.92884,-0.0383 -3.20064,-0.059 -0.27184,-0.0207 -0.63718,0.009 -0.81193,0.0662 -0.20965,0.0685 -0.31771,0.0467 -0.31771,-0.0642 0,-0.11112 -0.0598,-0.12302 -0.17651,-0.0352 -0.0971,0.0731 -0.39891,0.12156 -0.67071,0.10776 -1.21159,-0.0615 -3.55526,-0.21472 -4.58912,-0.30006 -1.55844,-0.12863 -2.59017,-0.13906 -3.70769,-0.0375 -0.52363,0.0476 -1.06325,0.0309 -1.19916,-0.0371 -0.15587,-0.078 -0.24711,-0.0697 -0.24711,0.0225 0,0.0804 -0.0953,0.14617 -0.2118,0.14617 -0.1165,0 -0.21181,-0.0763 -0.21181,-0.16944 0,-0.11367 -0.0468,-0.12268 -0.14209,-0.0274 -0.18789,0.18792 -1.81677,0.10602 -2.23177,-0.1122 -0.23991,-0.12615 -0.39208,-0.13065 -0.57405,-0.017 -0.14948,0.0933 -0.33461,0.10594 -0.46714,0.0318 -0.12588,-0.0705 -0.63393,-0.065 -1.19102,0.0128 -1.41328,0.19731 -1.48883,0.21405 -2.03073,0.45016 -1.43387,0.62473 -1.72649,0.66851 -2.20908,0.3305 -0.1624,-0.11375 -0.3323,-0.1698 -0.37755,-0.12454 -0.20006,0.20006 -0.25754,-0.7147 -0.10338,-1.6455 0.007,-0.0388 0.0653,0.0141 0.13092,0.11752 0.0932,0.14693 0.20536,0.10831 0.51268,-0.17652 0.21638,-0.20052 0.47946,-0.3646 0.5846,-0.3646 0.10517,0 0.1912,-0.0688 0.1912,-0.15297 0,-0.0841 0.0794,-0.12503 0.1765,-0.0909 0.0971,0.0342 0.33224,0.004 0.5226,-0.0661 0.19035,-0.0705 0.73044,-0.16229 1.20022,-0.2039 0.46978,-0.0416 0.88009,-0.10134 0.91176,-0.13269 0.0317,-0.0314 0.12859,0.002 0.21537,0.0739 0.0868,0.072 1.02505,0.16005 2.08508,0.19565 1.06001,0.0356 1.99126,0.10423 2.06943,0.15255 0.0782,0.0483 0.18472,0.0189 0.23678,-0.0653 0.052,-0.0842 0.18208,-0.11959 0.28896,-0.0786 0.27592,0.10588 2.08264,0.23307 4.22503,0.29741 1.00961,0.0303 2.06085,0.11257 2.33608,0.1828 0.27525,0.0702 0.64061,0.0758 0.81192,0.0125 0.17133,-0.0634 0.31148,-0.069 0.31148,-0.0125 0,0.0565 0.45086,0.10213 1.00188,0.10135 0.55103,-0.002 1.03326,0.0493 1.0716,0.11135 0.0384,0.062 0.15102,0.0453 0.25035,-0.0371 0.20347,-0.16887 1.51462,-0.16119 1.40988,0.008 -0.0371,0.06 0.2673,0.0696 0.67641,0.0214 0.4091,-0.0483 1.02977,-0.0769 1.37925,-0.0636 1.72046,0.0655 4.38117,0.0432 4.51213,-0.0377 0.0812,-0.0502 0.1476,-0.0257 0.1476,0.0544 0,0.14236 1.0678,0.18434 4.09491,0.16107 2.64787,-0.0204 3.33887,-0.009 4.73033,0.0789 1.56227,0.0985 3.54026,0.11126 6.42478,0.0415 1.04844,-0.0254 2.04882,0.003 2.22307,0.0634 0.23472,0.0811 0.29831,0.0612 0.24536,-0.0767 -0.0561,-0.14623 0.17913,-0.18018 1.09522,-0.15812 5.0183,0.12097 6.06921,0.12859 5.82393,0.0422 -0.15396,-0.0542 0.38725,-0.0856 1.20271,-0.0698 0.81545,0.0157 1.59384,-0.0275 1.72975,-0.0963 0.17183,-0.0869 0.24776,-0.0697 0.24926,0.0565 0.002,0.14023 0.0298,0.13793 0.12356,-0.0101 0.0816,-0.12879 0.15208,-0.14192 0.21502,-0.0401 0.06,0.0971 0.45895,0.12402 1.11199,0.0749 0.56009,-0.0421 1.84775,-0.092 2.86145,-0.11088 1.0137,-0.0188 1.92627,-0.0857 2.02793,-0.1485 0.11133,-0.0688 0.23473,-0.0368 0.31026,0.0803 0.10588,0.1643 0.14574,0.16302 0.25588,-0.008 0.10581,-0.16446 0.25167,-0.17501 0.77223,-0.0559 0.40791,0.0933 0.61062,0.0965 0.55628,0.009 -0.0527,-0.0852 0.12508,-0.11245 0.46331,-0.0709 0.30183,0.037 0.98372,0.0143 1.51529,-0.0507 0.5777,-0.0706 1.06603,-0.0648 1.2139,0.0143 0.14514,0.0777 0.30011,0.0803 0.37493,0.006 0.3098,-0.3062 6.60378,-0.3675 7.49632,-0.073 0.0921,0.0304 0.18932,-0.0107 0.21614,-0.091 0.0268,-0.0805 0.20566,-0.14099 0.39744,-0.13452 1.44888,0.049 2.38817,0.13387 2.54358,0.22991 0.12468,0.0771 0.15855,0.0495 0.10635,-0.0866 -0.0616,-0.16054 0.13435,-0.20277 0.99972,-0.21551 0.59199,-0.009 1.38294,-0.0643 1.75768,-0.12353 0.45227,-0.0715 0.73472,-0.0543 0.84016,0.0511 0.22959,0.22959 0.3831,0.19536 0.3959,-0.0883 0.007,-0.14762 0.0398,-0.17605 0.0824,-0.0706 0.0858,0.21272 0.94805,0.23357 1.32462,0.032 0.22453,-0.12015 0.25457,-0.10438 0.17854,0.0938 -0.0598,0.15568 -0.0368,0.20445 0.0663,0.14074 0.0868,-0.0536 0.46294,-0.1319 0.83591,-0.17391 0.37298,-0.042 0.86878,-0.10308 1.10176,-0.13569 1.38616,-0.1939 1.85848,-0.24477 2.04746,-0.2205 0.11649,0.015 0.7679,0.0506 1.44757,0.0793 0.90929,0.0384 1.20987,0.009 1.13782,-0.11126 -0.0539,-0.0898 0.009,-0.0766 0.13969,0.0294 0.15695,0.12731 0.39384,0.16043 0.69781,0.0976 0.25312,-0.0523 0.87323,-0.12028 1.37804,-0.15104 0.5048,-0.0307 1.09257,-0.089 1.30614,-0.12936 0.23132,-0.0438 0.38831,-0.0112 0.38831,0.0806 0,0.10703 0.29122,0.12042 0.95312,0.0438 1.42227,-0.16457 1.89905,-0.17413 2.3479,-0.047 0.24626,0.0697 0.51735,0.0557 0.68807,-0.0357 0.15496,-0.0829 1.23015,-0.17431 2.38932,-0.20306 1.1592,-0.0287 2.16674,-0.0888 2.23899,-0.13347 0.0723,-0.0447 0.25144,-0.017 0.39817,0.0616 0.14671,0.0785 0.3123,0.0974 0.36798,0.0418 0.10986,-0.10954 0.15426,-0.11167 4.52503,-0.21702 1.63091,-0.0393 3.17179,-0.11665 3.4242,-0.17185 0.38096,-0.0833 0.45891,-0.0585 0.45891,0.14637 0,0.17358 0.0523,0.20765 0.1765,0.11489 0.1523,-0.11379 0.4531,-0.14082 0.56482,-0.0508 0.1778,0.14332 0.52951,0.0826 0.52951,-0.0914 0,-0.12406 0.0819,-0.18297 0.19442,-0.13981 0.10693,0.041 0.46689,0.0134 0.79991,-0.0614 0.40405,-0.0908 0.63511,-0.0882 0.69447,0.008 0.059,0.0955 0.37182,0.10016 0.92985,0.0137 0.46247,-0.0716 1.63511,-0.14583 2.6059,-0.16495 0.97077,-0.0191 1.94911,-0.0956 2.17407,-0.17006 0.28221,-0.0934 0.49015,-0.0846 0.67072,0.0281 0.14393,0.0899 0.26169,0.10801 0.26169,0.0403 0,-0.0677 0.5401,-0.12313 1.20024,-0.12313 0.68729,0 1.20023,0.059 1.20023,0.13796 0,0.0809 0.18979,0.0989 0.45891,0.0435 0.7514,-0.15472 3.23365,-0.36876 4.87777,-0.42059 0.25584,-0.008 0.5182,-0.10051 0.58303,-0.20539 0.0824,-0.13341 0.13424,-0.14162 0.17234,-0.0273 0.0749,0.22456 3.79974,0.29533 4.63944,0.0881 0.34948,-0.0862 0.87592,-0.11701 1.16985,-0.0684 0.29393,0.0486 0.56347,0.0414 0.59899,-0.0161 0.0768,-0.1242 1.27361,-0.16988 3.45571,-0.13186 0.58246,0.0101 1.20199,-0.0256 1.37674,-0.0794 0.2112,-0.0651 0.31771,-0.0393 0.31771,0.077 0,0.12113 0.0543,0.13153 0.1765,0.0338 0.0971,-0.0776 0.55776,-0.14675 1.02373,-0.15358 0.46597,-0.007 1.22847,-0.0518 1.69444,-0.0998 0.46598,-0.0481 0.94254,-0.0783 1.05903,-0.0672 0.11649,0.0112 0.63892,0.0314 1.16097,0.045 0.71338,0.0187 0.9636,0.078 1.00735,0.23879 0.0453,0.16657 0.0618,0.16001 0.0746,-0.0296 0.0131,-0.19453 0.0819,-0.21869 0.34151,-0.11999 0.19938,0.0758 0.42534,0.0675 0.58419,-0.0214 0.15712,-0.0879 0.22547,-0.0906 0.17372,-0.007 -0.0514,0.0831 0.25008,0.14812 0.75725,0.16335 0.52312,0.0157 0.84258,-0.0323 0.84258,-0.12672 0,-0.0859 0.261,-0.14865 0.60012,-0.14428 0.33006,0.004 0.98136,-0.0139 1.44734,-0.0403 0.46597,-0.0264 1.01141,-0.003 1.2121,0.0528 0.20068,0.0555 0.47073,0.0417 0.60012,-0.0308 0.15372,-0.086 0.23523,-0.0803 0.23523,0.0166 0,0.0815 0.0616,0.14823 0.13677,0.14823 0.0752,0 0.0997,-0.0965 0.0545,-0.21444 -0.0693,-0.18052 -0.0202,-0.19083 0.31042,-0.0651 0.21599,0.0821 0.42976,0.0992 0.47502,0.0379 0.11291,-0.15276 0.74332,-0.14035 0.99182,0.0195 0.12742,0.082 0.22076,0.079 0.24975,-0.008 0.0506,-0.15174 0.77219,-0.14077 1.02515,0.0155 0.0868,0.0537 0.24778,0.0229 0.35768,-0.0683 0.12295,-0.10202 0.3715,-0.12814 0.64598,-0.0679 0.27772,0.061 0.57656,0.0282 0.79159,-0.0869 0.24698,-0.13217 0.37301,-0.14043 0.44216,-0.029 0.0532,0.0857 0.19203,0.17283 0.30853,0.19357 0.19182,0.0342 0.44487,-0.002 1.74742,-0.2459 0.30585,-0.0574 0.37849,-0.0317 0.29455,0.10412 -0.083,0.13429 -0.0425,0.15129 0.15884,0.0667 0.36619,-0.154 5.283,-0.20398 5.283,-0.0537 0,0.0657 0.0991,0.11936 0.22012,0.11936 0.12109,0 0.18089,-0.0635 0.13289,-0.14121 -0.10651,-0.1723 -0.10658,-0.1723 0.45794,-0.0103 0.2917,0.0836 0.48706,0.0807 0.54203,-0.008 0.0473,-0.0765 0.26809,-0.0991 0.49072,-0.0502 0.22263,0.0489 0.51306,0.0283 0.64539,-0.0458 0.13516,-0.0756 0.41265,-0.0853 0.63308,-0.0221 0.2513,0.0721 0.41076,0.0576 0.44336,-0.0403 0.0365,-0.10954 0.22859,-0.10961 0.67849,0 0.62318,0.15147 2.05601,0.13721 2.21526,-0.022 0.13976,-0.13976 0.60092,-0.0924 0.60092,0.0617 0,0.14957 1.29523,0.0865 1.74167,-0.0848 0.12934,-0.0496 0.23518,-0.0266 0.23518,0.0511 0,0.0777 0.15275,0.1322 0.33946,0.12101 0.1867,-0.0112 0.31003,-0.068 0.27405,-0.12627 -0.09,-0.1458 0.11949,-0.12917 0.37018,0.0294 0.13278,0.084 0.27595,0.0738 0.39909,-0.0284 0.14422,-0.11972 0.22018,-0.11374 0.30533,0.024 0.0888,0.14368 0.12606,0.14529 0.17201,0.007 0.043,-0.12911 0.48979,-0.16867 1.67626,-0.14839 2.2175,0.0378 2.13179,0.0394 2.60598,-0.0478 0.67638,-0.12447 2.26008,-0.14312 2.44505,-0.0288 0.0945,0.0584 0.20143,0.0206 0.24212,-0.0854 0.0727,-0.18947 0.51194,-0.22041 0.91354,-0.0643 0.11648,0.0453 0.49773,0.0729 0.84722,0.0615 0.34948,-0.0114 0.81017,0.0301 1.02372,0.0924 0.24641,0.0718 0.38832,0.0598 0.38832,-0.033 0,-0.0804 -0.1112,-0.17521 -0.24711,-0.21072 -0.15203,-0.0397 -0.0977,-0.0709 0.1412,-0.081 0.22425,-0.01 0.38924,0.0582 0.39047,0.16012 0.002,0.11767 0.0478,0.10591 0.13905,-0.0353 0.0753,-0.11649 0.1382,-0.14827 0.13981,-0.0706 0.003,0.15956 1.83705,0.21151 1.83705,0.052 0,-0.0562 0.34518,-0.0666 0.76707,-0.0231 0.42189,0.0435 0.88258,0.027 1.02373,-0.0368 0.2697,-0.12187 0.42881,-0.14892 1.07689,-0.18307 0.22637,-0.0119 0.35894,-0.082 0.30877,-0.16311 -0.0483,-0.0782 0.0114,-0.18032 0.13287,-0.22691 0.12142,-0.0466 0.22077,-0.16793 0.22077,-0.26964 0,-0.10172 0.0794,-0.21716 0.1765,-0.25655 0.12262,-0.0498 0.13025,-0.10723 0.025,-0.18828 -0.20993,-0.16162 -0.36179,-0.61087 -0.20653,-0.61087 0.07,0 0.12197,-0.18844 0.11543,-0.41875 -0.006,-0.23031 -0.0658,-0.3854 -0.13177,-0.34467 -0.0659,0.0408 -0.11986,-0.0218 -0.11986,-0.13906 0,-0.11722 0.10253,-0.27049 0.22787,-0.34062 0.18253,-0.10216 0.19657,-0.18599 0.0706,-0.42135 -0.21994,-0.41096 -0.19583,-0.73603 0.0546,-0.73603 0.11648,0 0.2118,-0.0635 0.2118,-0.14121 0,-0.0776 -0.0953,-0.1412 -0.2118,-0.1412 -0.31994,0 -0.25411,-0.27977 0.0706,-0.30004 0.39384,-0.0246 0.47265,-0.0435 0.64858,-0.1557 0.1945,-0.12394 3.43963,-0.0716 3.36196,0.0543 -0.0315,0.051 0.0764,0.0578 0.23982,0.015 0.17378,-0.0455 0.34966,0.004 0.42382,0.11906 0.10719,0.1664 0.14854,0.16407 0.26795,-0.015 0.11805,-0.17709 0.16166,-0.18006 0.26607,-0.0181 0.0687,0.10654 0.21164,0.16444 0.31772,0.12866 0.10607,-0.0358 0.39126,0.0175 0.6338,0.1184 0.24254,0.10088 0.48427,0.14015 0.5372,0.0872 0.0529,-0.0529 0.15531,-0.003 0.22758,0.11152 0.0969,0.15329 0.13193,0.15927 0.13352,0.0229 0.002,-0.11237 0.0714,-0.14159 0.17866,-0.0746 0.27563,0.17219 0.52952,0.17866 0.52952,0.0136 0,-0.0827 0.11766,-0.0146 0.26145,0.15112 0.1438,0.1658 0.29644,0.26643 0.33925,0.22363 0.0876,-0.0877 0.6844,0.21964 0.84664,0.43596 0.0669,0.0892 0.1534,0.0674 0.23474,-0.0589 0.1103,-0.17131 0.19588,-0.16766 0.59441,0.0254 0.25606,0.124 0.5158,0.19444 0.57719,0.15649 0.0614,-0.038 0.1116,0.0221 0.1116,0.1335 0,0.17035 0.70269,0.45027 1.01019,0.40242 0.0508,-0.008 0.16663,0.0751 0.25744,0.18451 0.0908,0.10938 0.25573,0.1641 0.36654,0.12158 0.11082,-0.0425 0.20148,-0.007 0.20148,0.079 0,0.086 0.0477,0.14879 0.10591,0.13959 0.35119,-0.0554 0.59232,0.0521 0.67073,0.29914 0.0493,0.15532 0.18067,0.28241 0.29191,0.28241 0.11126,0 0.20506,0.0476 0.20844,0.10591 0.003,0.0582 0.0586,0.37731 0.12281,0.70905 0.0685,0.35409 0.0629,0.6364 -0.0136,0.68366 -0.0717,0.0443 -0.10609,0.15302 -0.0765,0.24167 0.0654,0.19628 -0.51499,0.51416 -1.05319,0.57681 -0.21681,0.0253 -0.4875,0.12335 -0.60156,0.21799 -0.11403,0.0947 -0.26927,0.13381 -0.34497,0.087 -0.0757,-0.0468 -0.16896,-0.0344 -0.20727,0.0276 -0.0383,0.062 -0.27214,0.12808 -0.51967,0.14695 -0.24753,0.0189 -0.5714,0.0992 -0.71967,0.17859 -0.14831,0.0794 -0.3323,0.10557 -0.4089,0.0582 -0.0766,-0.0473 -0.1774,0.0132 -0.224,0.13468 -0.0466,0.12142 -0.16596,0.22077 -0.26528,0.22077 -0.0993,0 -0.35801,0.0921 -0.57487,0.20457 -0.21689,0.11251 -0.44933,0.17059 -0.51655,0.12905 -0.0672,-0.0415 -0.19885,-0.0175 -0.29252,0.0535 -0.0937,0.071 -0.47215,0.24056 -0.84104,0.37684 -0.36889,0.13629 -0.67072,0.3129 -0.67072,0.39244 0,0.0795 -0.0953,0.10806 -0.21181,0.0634 -0.1165,-0.0447 -0.2118,-0.0145 -0.2118,0.0673 0,0.0817 -0.0738,0.12395 -0.16388,0.0939 -0.0901,-0.0301 -0.3205,0.0906 -0.51198,0.26798 -0.19145,0.17743 -0.40414,0.28799 -0.47263,0.24567 -0.0685,-0.0423 -0.22387,0.0224 -0.34533,0.14384 -0.28714,0.28714 -0.57905,0.29482 -0.34183,0.009 0.0967,-0.11649 0.11975,-0.21181 0.0512,-0.21181 -0.0685,0 -0.20542,0.12955 -0.3043,0.2879 -0.0989,0.15833 -0.23613,0.25306 -0.305,0.2105 -0.0689,-0.0425 -0.21807,0.0155 -0.33157,0.12901 -0.11352,0.1135 -0.24573,0.16704 -0.29381,0.11896 -0.0481,-0.0481 -0.0874,0.0185 -0.0874,0.14792 0,0.12944 -0.0636,0.23535 -0.1412,0.23535 -0.0777,0 -0.14121,0.0953 -0.14121,0.21181 0,0.1165 -0.0996,0.2118 -0.22134,0.2118 -0.15664,0 -0.19525,0.0821 -0.13219,0.2808 0.0629,0.19816 -0.0246,0.38618 -0.29718,0.63882 -0.49687,0.46049 -0.96363,0.57215 -1.63858,0.39199 -0.29771,-0.0795 -0.57365,-0.0922 -0.61317,-0.0282 -0.0395,0.0639 -0.18103,0.0772 -0.31444,0.0294 -0.13344,-0.0478 -0.19878,-0.0383 -0.1452,0.0212 0.15503,0.17208 -0.20506,0.46553 -0.4823,0.39303 -0.13862,-0.0363 -0.33112,-0.002 -0.42777,0.0757 -0.0967,0.0779 -0.303,0.0933 -0.4585,0.0342 z"
       id="path14659"
       inkscape:connector-curvature="0" />
    <flowRoot
       xml:space="preserve"
       id="flowRoot5710"
       style="font-style:normal;font-weight:normal;font-size:45px;line-height:125%;font-family:sans-serif;letter-spacing:0px;word-spacing:0px;fill:#000000;fill-opacity:1;stroke:none;stroke-width:1px;stroke-linecap:butt;stroke-linejoin:miter;stroke-opacity:1"
       transform="translate(28.476949,336.36971)"><flowRegion
         id="flowRegion5712"><rect
           id="rect5714"
           width="235.71428"
           height="77.14286"
           x="414.28571"
           y="218.3802" /></flowRegion><flowPara
         id="flowPara5716">(read)</flowPara></flowRoot>    <g
       id="g5765"
       transform="translate(4.6096531,-45.683689)">
      <flowRoot
         xml:space="preserve"
         id="flowRoot4766"
         style="font-style:normal;font-weight:normal;font-size:45px;line-height:125%;font-family:sans-serif;letter-spacing:0px;word-spacing:0px;fill:#000000;fill-opacity:1;stroke:none;stroke-width:1px;stroke-linecap:butt;stroke-linejoin:miter;stroke-opacity:1"
         transform="translate(2278.1533,603.88048)"><flowRegion
           id="flowRegion4768"><rect
             id="rect4770"
             width="714.28571"
             height="240"
             x="-1568.5714"
             y="-10.191232" /></flowRegion><flowPara
           id="flowPara4772">&gt; REPL</flowPara></flowRoot>      <flowRoot
         xml:space="preserve"
         id="flowRoot5718"
         style="font-style:normal;font-weight:normal;font-size:45px;line-height:125%;font-family:sans-serif;letter-spacing:0px;word-spacing:0px;fill:#000000;fill-opacity:1;stroke:none;stroke-width:1px;stroke-linecap:butt;stroke-linejoin:miter;stroke-opacity:1"
         transform="translate(314.80762,450.39891)"><flowRegion
           id="flowRegion5720"><rect
             id="rect5722"
             width="235.71428"
             height="77.14286"
             x="414.28571"
             y="218.3802" /></flowRegion><flowPara
           id="flowPara5724">(eval)</flowPara></flowRoot>    </g>
    <path
       style="fill:#000000"
       d="m 804.42888,803.22684 c -0.11587,0.21356 -0.30395,0.3883 -0.41796,0.3883 -0.11402,0 -0.2073,0.0874 -0.2073,0.19417 0,0.10952 -0.14429,0.19415 -0.33103,0.19415 -0.38574,0 -1.08062,0.41855 -1.08188,0.65166 0,0.0881 -0.0931,0.3371 -0.20584,0.55322 -0.11273,0.21613 -0.14412,0.35534 -0.0697,0.30937 0.16703,-0.10322 0.17872,0.1101 0.0161,0.29316 -0.26666,0.30011 -0.78604,1.85448 -0.75216,2.25095 0.0248,0.28983 -0.004,0.365 -0.0913,0.23652 -0.1047,-0.1545 -0.14191,-0.15123 -0.20687,0.0181 -0.0436,0.11354 -0.0247,0.26184 0.042,0.32955 0.14301,0.14524 -0.37763,1.76965 -0.61578,1.92129 -0.11775,0.075 -0.11264,0.10434 0.0184,0.10591 0.19852,0.002 0.16818,0.41161 -0.0738,0.99603 -0.0816,0.19715 -0.19445,0.84955 -0.25069,1.44974 -0.0563,0.60021 -0.17413,1.13785 -0.26195,1.19479 -0.0878,0.0569 -0.16188,0.16704 -0.16451,0.24471 -0.007,0.20918 -0.34891,1.72345 -0.58901,2.60968 -0.11535,0.42572 -0.36152,0.92584 -0.54707,1.11137 -0.18553,0.18555 -0.30494,0.38978 -0.26533,0.45388 0.0632,0.10228 -0.77612,0.41128 -1.12286,0.4134 -0.45388,0.003 -1.36204,-1.86289 -1.23,-2.52682 0.0216,-0.10876 -0.071,-0.48667 -0.20588,-0.83979 -0.17494,-0.4581 -0.1984,-0.65762 -0.0819,-0.69647 0.11551,-0.0385 0.10138,-0.1429 -0.0483,-0.35656 -0.1164,-0.16618 -0.21163,-0.51039 -0.21163,-0.76493 0,-0.25454 -0.0529,-0.46278 -0.11765,-0.46278 -0.0647,0 -0.12361,-0.0794 -0.13083,-0.17652 -0.007,-0.0971 -0.11636,-0.45676 -0.24247,-0.79931 -0.12612,-0.34254 -0.25458,-0.87685 -0.28546,-1.18737 -0.0309,-0.31053 -0.13705,-0.61456 -0.2359,-0.67566 -0.0989,-0.0611 -0.1358,-0.15501 -0.0821,-0.20871 0.0537,-0.0537 -0.0319,-0.27957 -0.19021,-0.50189 -0.15832,-0.22234 -0.24397,-0.40426 -0.19035,-0.40426 0.0536,0 0.036,-0.0794 -0.0391,-0.17651 -0.21271,-0.27487 -0.5041,-1.47809 -0.39911,-1.64797 0.0518,-0.0838 0.0322,-0.15237 -0.0435,-0.15237 -0.20525,0 -0.99832,-1.05048 -1.05031,-1.39123 -0.0249,-0.16278 -0.0849,-0.33568 -0.13349,-0.38427 -0.1378,-0.13779 0.19818,-0.76617 0.40966,-0.76617 0.10401,0 0.18912,-0.056 0.18912,-0.12447 0,-0.1585 1.17912,-0.58897 1.86555,-0.68108 0.28826,-0.0387 0.59788,-0.15918 0.68801,-0.2678 0.0902,-0.10862 0.25144,-0.19749 0.35843,-0.19749 0.12631,0 0.19451,-0.16502 0.19451,-0.47069 0,-0.25886 0.0476,-0.51833 0.10589,-0.57657 0.0583,-0.0583 0.11838,-0.37066 0.13362,-0.69425 0.0336,-0.71449 0.0484,-4.03469 0.0193,-4.33025 -0.0538,-0.5458 0.0336,-0.9989 0.17582,-0.91102 0.10743,0.0664 0.12032,-0.25326 0.0438,-1.08599 -0.0851,-0.92622 -0.13615,-7.18511 -0.0776,-9.51111 0.006,-0.233 0.0119,-0.646 0.0137,-0.91783 0.0288,-4.73546 -0.0471,-10.1662 -0.14212,-10.16646 -0.0443,0 -0.0412,-0.30739 0.007,-0.68283 0.0482,-0.37541 0.0371,-0.86787 -0.0247,-1.09433 -0.14173,-0.5197 -0.12454,-5.00084 0.0192,-5.00084 0.0586,0 0.0843,-0.30183 0.0571,-0.67072 l 0.9598,0.67073 c 0.0731,0 0.23002,1.29141 0.27444,2.25912 0.0591,1.28781 -0.079,6.52046 -0.17361,6.57896 -0.0686,0.0424 -0.0761,0.15217 -0.0166,0.24388 0.0595,0.0917 0.12125,0.83395 0.13723,1.64938 0.0159,0.81547 0.0348,1.60974 0.0419,1.76505 0.007,0.15534 0.011,0.72721 0.009,1.27085 -0.004,1.11941 0.0625,1.9745 0.20552,2.62571 0.07,0.3186 0.0517,0.417 -0.0641,0.3454 -0.11361,-0.0702 -0.13462,0.009 -0.0704,0.26475 0.0579,0.23072 0.0331,0.36483 -0.0676,0.36483 -0.0934,0 -0.1279,0.13131 -0.0835,0.31771 0.15073,0.63218 0.17221,1.23553 0.044,1.23553 -0.072,0 -0.0868,0.0716 -0.0327,0.15899 0.17088,0.27648 0.17559,1.2529 0.006,1.25521 -0.10147,0.002 -0.1076,0.0394 -0.017,0.10591 0.18107,0.13304 0.26292,2.66775 0.0896,2.77487 -0.0796,0.0492 -0.0802,0.30496 -0.002,0.65538 0.13026,0.57968 0.16233,1.59989 0.0707,2.25104 -0.0273,0.19417 -0.0185,0.40762 0.0195,0.47433 0.0857,0.15051 0.0633,2.62044 -0.0477,5.25595 -0.0543,1.28931 -0.0281,2.19531 0.0747,2.57697 0.1426,0.52956 0.20398,0.59028 0.61196,0.60531 0.24941,0.009 0.51702,0.003 0.59468,-0.0132 0.0776,-0.0164 0.3636,-0.0608 0.63542,-0.0986 0.27181,-0.0377 0.6213,-0.11966 0.77661,-0.18204 0.15534,-0.0624 0.67954,-0.23207 1.16493,-0.37703 0.48539,-0.14498 0.88253,-0.31554 0.88253,-0.37904 0,-0.0635 0.13014,-0.0742 0.28918,-0.0237 0.15906,0.0505 0.36557,0.0345 0.45892,-0.0355 0.24498,-0.18369 0.92291,-0.20098 1.23935,-0.0316 0.32248,0.17259 0.33788,0.48712 0.0498,1.01807 z"
       id="path14671-3"
       inkscape:connector-curvature="0"
       sodipodi:nodetypes="csssccccccccccccccccccccccssccccscsccsccssccssccccccccccscccccccccccscscccccccsccccccsccccc" />
    <flowRoot
       transform="translate(313.70438,606.06684)"
       style="font-style:normal;font-weight:normal;font-size:45px;line-height:125%;font-family:sans-serif;letter-spacing:0px;word-spacing:0px;fill:#000000;fill-opacity:1;stroke:none;stroke-width:1px;stroke-linecap:butt;stroke-linejoin:miter;stroke-opacity:1"
       id="flowRoot5718-6"
       xml:space="preserve"><flowRegion
         id="flowRegion5720-7"><rect
           y="218.3802"
           x="414.28571"
           height="77.14286"
           width="235.71428"
           id="rect5722-5" /></flowRegion><flowPara
         id="flowPara5724-3">(print)</flowPara></flowRoot>  </g>
</svg>
