<?xml version="1.0" encoding="UTF-8" standalone="no"?>
<!-- Created with Inkscape (http://www.inkscape.org/) -->

<svg
   width="297mm"
   height="210mm"
   viewBox="0 0 297 210"
   version="1.1"
   id="svg1"
   inkscape:version="1.4.2 (ebf0e940d0, 2025-05-08)"
   sodipodi:docname="illustrations.svg"
   xmlns:inkscape="http://www.inkscape.org/namespaces/inkscape"
   xmlns:sodipodi="http://sodipodi.sourceforge.net/DTD/sodipodi-0.dtd"
   xmlns="http://www.w3.org/2000/svg"
   xmlns:svg="http://www.w3.org/2000/svg">
  <sodipodi:namedview
     id="namedview1"
     pagecolor="#ffffff"
     bordercolor="#000000"
     borderopacity="0.25"
     inkscape:showpageshadow="2"
     inkscape:pageopacity="0.0"
     inkscape:pagecheckerboard="0"
     inkscape:deskcolor="#d1d1d1"
     inkscape:document-units="mm"
     inkscape:zoom="1.0325513"
     inkscape:cx="778.16959"
     inkscape:cy="320.08096"
     inkscape:window-width="2560"
     inkscape:window-height="1410"
     inkscape:window-x="0"
     inkscape:window-y="0"
     inkscape:window-maximized="0"
     inkscape:current-layer="g15" />
  <defs
     id="defs1" />
  <g
     inkscape:label="Layer 1"
     inkscape:groupmode="layer"
     id="layer1">
    <g
       id="g14"
       style="opacity:1;fill:#999999;stroke:#666666;stroke-width:0.1;stroke-dasharray:none"
       transform="matrix(1,0,0,-1,-4.0998771,189.87887)">
      <path
         style="baseline-shift:baseline;display:inline;overflow:visible;fill:#999999;stroke:#666666;stroke-width:0.1;stroke-linecap:round;stroke-dasharray:none;enable-background:accumulate;stop-color:#000000;stop-opacity:1"
         d="m 160.30078,90.852996 -2.67383,2.082031 a 0.75,0.75 0 0 0 -0.1289,1.052735 0.75,0.75 0 0 0 1.05273,0.130859 l 2.67188,-2.083984 a 0.75,0.75 0 0 0 0.13086,-1.052735 0.75,0.75 0 0 0 -1.05274,-0.128906 z"
         id="path14" />
    </g>
    <g
       id="g15"
       style="opacity:1;fill:#999999;stroke:#666666;stroke-width:0.1;stroke-dasharray:none"
       transform="rotate(180,126.42588,89.438563)">
      <path
         style="baseline-shift:baseline;display:inline;overflow:visible;fill:#999999;stroke:#666666;stroke-width:0.1;stroke-linecap:round;stroke-dasharray:none;enable-background:accumulate;stop-color:#000000;stop-opacity:1"
         d="m 164.80802,79.361977 -3.13582,1.284846 a 0.75,0.75 0 0 0 -0.4077,0.979103 0.75,0.75 0 0 0 0.97857,0.409589 l 3.13447,-1.287251 a 0.75,0.75 0 0 0 0.40959,-0.978576 0.75,0.75 0 0 0 -0.97911,-0.407711 z"
         id="path15" />
      <path
         id="rect25"
         style="opacity:0.734408;fill:#165046;fill-opacity:1;stroke:#217855;stroke-width:0.4;stroke-linecap:round;stroke-dasharray:none;stroke-opacity:1"
         d="m 70.663645,97.135689 c 2.697207,0 4.868437,-2.17123 4.868437,-4.86843 V 67.155612 c 0,-2.697206 -2.17123,-4.868953 -4.868437,-4.868953 H 20.183522 c -2.697207,0 -4.868437,2.171747 -4.868437,4.868953 v 25.111647 c 0,2.6972 2.17123,4.86843 4.868437,4.86843 z" />
      <rect
         style="fill:#165046;fill-opacity:1;stroke:#666666;stroke-width:0.1;stroke-linecap:round;stroke-dasharray:none"
         id="rect17"
         width="60.216942"
         height="34.848953"
         x="-75.532082"
         y="-97.135826"
         transform="scale(-1)"
         ry="4.8686042"
         rx="4.8686042" />
      <path
         style="fill:none;stroke:#87deaf;stroke-width:0.4;stroke-linecap:round;stroke-dasharray:none;stroke-opacity:1"
         d="m 76.098719,79.711351 c 0,0 -7.416475,23.327019 -15.395332,0 -7.97886,-23.327038 -15.39533,0 -15.39533,0"
         id="path18"
         sodipodi:nodetypes="czc" />
      <path
         style="fill:none;stroke:#87deaf;stroke-width:0.4;stroke-linecap:round;stroke-dasharray:none;stroke-opacity:1"
         d="m 45.31761,79.711351 c 0,0 -7.416475,23.327019 -15.395332,0 -7.97886,-23.327036 -15.39533,0 -15.39533,0"
         id="path19"
         sodipodi:nodetypes="czc" />
      <path
         style="fill:#217821;stroke:#217855;stroke-width:0.2;stroke-linecap:round;stroke-dasharray:none;stroke-opacity:1"
         d="M 77.167265,80.336881 H 13.470745"
         id="path20"
         sodipodi:nodetypes="cc" />
      <path
         style="fill:#217821;stroke:#217855;stroke-width:0.2;stroke-linecap:round;stroke-dasharray:none;stroke-opacity:1"
         d="M 77.167265,86.422321 H 13.470745"
         id="path21"
         sodipodi:nodetypes="cc" />
      <path
         style="fill:#217821;stroke:#217855;stroke-width:0.2;stroke-linecap:round;stroke-dasharray:none;stroke-opacity:1"
         d="M 77.167265,74.251434 H 13.470745"
         id="path22"
         sodipodi:nodetypes="cc" />
      <path
         style="fill:#217821;stroke:#217855;stroke-width:0.2;stroke-linecap:round;stroke-dasharray:none;stroke-opacity:1"
         d="M 77.167265,68.165992 H 13.470745"
         id="path23"
         sodipodi:nodetypes="cc" />
      <path
         style="fill:#37c837;stroke:#87de87;stroke-width:0.2;stroke-linecap:round;stroke-dasharray:none"
         d="M 84.046432,92.507759 H 3.4165779"
         id="path24" />
      <path
         style="fill:#217821;stroke:#217855;stroke-width:0.2;stroke-linecap:round;stroke-dasharray:none;stroke-opacity:1"
         d="M 77.167265,92.507759 H 13.470745"
         id="path25"
         sodipodi:nodetypes="cc" />
      <path
         id="path26"
         style="opacity:1;fill:#dbe3e2;fill-opacity:1;stroke:#b7c8c4;stroke-width:0.4;stroke-linecap:round;stroke-dasharray:none;stroke-opacity:1"
         d="m 78.969598,111.71982 c 2.697207,0 4.868954,-2.17123 4.868954,-4.86844 V 51.358127 c 0,-2.697207 -2.171747,-4.868437 -4.868954,-4.868437 H -23.966755 c -2.697206,0 -4.868436,2.17123 -4.868436,4.868437 v 55.493253 c 0,2.69721 2.17123,4.86844 4.868436,4.86844 z M 70.663645,97.135689 H 20.183522 c -2.697207,0 -4.868437,-2.17123 -4.868437,-4.86843 V 67.155612 c 0,-2.697206 2.17123,-4.868953 4.868437,-4.868953 h 50.480123 c 2.697207,0 4.868437,2.171747 4.868437,4.868953 v 25.111647 c 0,2.6972 -2.17123,4.86843 -4.868437,4.86843 z"
         sodipodi:nodetypes="ssssssssssssssssss" />
      <g
         id="g32"
         transform="matrix(0.81382573,0,0,0.81382573,-1.1471,13.174172)"
         style="fill:#f6ffd5;stroke:#88aa00;stroke-width:0.122877">
        <rect
           style="opacity:1;fill:#f6ffd5;fill-opacity:1;stroke:#88aa00;stroke-width:0.491506;stroke-linecap:round;stroke-dasharray:none;stroke-opacity:1"
           id="rect28"
           width="7.8767858"
           height="4.8472514"
           x="-7.3382611"
           y="-101.60939"
           transform="scale(-1)"
           rx="2.2040303"
           ry="5.9823666" />
        <rect
           style="opacity:1;fill:#f6ffd5;fill-opacity:1;stroke:#88aa00;stroke-width:0.491506;stroke-linecap:round;stroke-dasharray:none;stroke-opacity:1"
           id="rect29"
           width="7.8767858"
           height="4.8472514"
           x="2.715904"
           y="-101.60939"
           transform="scale(-1)"
           rx="2.2040303"
           ry="5.9823666" />
        <rect
           style="opacity:1;fill:#f6ffd5;fill-opacity:1;stroke:#88aa00;stroke-width:0.491506;stroke-linecap:round;stroke-dasharray:none;stroke-opacity:1"
           id="rect30"
           width="7.8767858"
           height="4.8472514"
           x="12.770069"
           y="-101.60939"
           transform="scale(-1)"
           rx="2.2040303"
           ry="5.9823666" />
      </g>
      <g
         id="g33"
         style="fill:#f6ffd5;stroke:#88aa00">
        <circle
           style="opacity:1;fill:#f6ffd5;fill-opacity:1;stroke:#88aa00;stroke-width:0.4;stroke-linecap:round;stroke-dasharray:none;stroke-opacity:1"
           id="path28"
           cx="-1.6395429"
           cy="-80.781029"
           r="4.9967256"
           transform="scale(-1)" />
        <circle
           style="opacity:1;fill:#f6ffd5;fill-opacity:1;stroke:#88aa00;stroke-width:0.4;stroke-linecap:round;stroke-dasharray:none;stroke-opacity:1"
           id="circle30"
           cx="14.764619"
           cy="-80.781029"
           r="4.9967256"
           transform="scale(-1)" />
        <circle
           style="opacity:1;fill:#f6ffd5;fill-opacity:1;stroke:#88aa00;stroke-width:0.4;stroke-linecap:round;stroke-dasharray:none;stroke-opacity:1"
           id="circle31"
           cx="14.764619"
           cy="-69.139351"
           r="4.9967256"
           transform="scale(-1)" />
        <circle
           style="opacity:1;fill:#f6ffd5;fill-opacity:1;stroke:#88aa00;stroke-width:0.4;stroke-linecap:round;stroke-dasharray:none;stroke-opacity:1"
           id="circle32"
           cx="-1.6395429"
           cy="-69.139351"
           r="4.9967256"
           transform="scale(-1)" />
      </g>
    </g>
    <g
       id="g17"
       style="opacity:1;fill:#999999;stroke:#666666;stroke-width:0.1;stroke-dasharray:none"
       transform="matrix(-1,0,0,1,248.75187,12.572556)">
      <path
         style="baseline-shift:baseline;display:inline;overflow:visible;fill:#999999;stroke:#666666;stroke-width:0.1;stroke-linecap:round;stroke-dasharray:none;enable-background:accumulate;stop-color:#000000;stop-opacity:1"
         d="m 158.08887,91.410699 2.67256,-2.083694"
         id="path16" />
      <path
         style="baseline-shift:baseline;display:inline;overflow:visible;fill:#999999;stroke:#666666;stroke-width:0.1;stroke-linecap:round;stroke-dasharray:none;enable-background:accumulate;stop-color:#000000;stop-opacity:1"
         d="m 160.81591,89.144985 -3.23271,1.016764 a 0.75,0.75 0 0 0 -0.48854,0.941376 0.75,0.75 0 0 0 0.94068,0.490379 l 3.23157,-1.019274 a 0.75,0.75 0 0 0 0.49038,-0.940692 0.75,0.75 0 0 0 -0.94138,-0.488553 z"
         id="path17" />
    </g>
    <path
       style="baseline-shift:baseline;display:inline;overflow:visible;opacity:1;fill:#c83737;stroke:#000000;stroke-width:0.2;stroke-linecap:round;stroke-dasharray:none;enable-background:accumulate;stop-color:#000000;stop-opacity:1"
       d="m 144.66287,92.728821 c -3.48684,0.30153 -7.00054,2.134676 -10.16016,4.826172 -3.0331,2.583737 -5.71291,4.980387 -8.65429,5.662107 -2.94138,0.68172 -6.44928,-0.0765 -11.76367,-4.603514 -5.81477,-4.953265 -11.68759,-5.321455 -15.937501,-4.339843 -4.249913,0.981612 -7.039063,1.674218 -7.039063,1.674218 -0.599665,0.487856 -0.689773,1.369693 -0.20117,1.96875 0.488285,0.597792 1.36856,0.686956 1.9668,0.199219 0,0 2.306713,-0.285134 5.902333,-1.115625 3.595631,-0.830491 8.316951,-0.669625 13.496101,3.742185 5.6795,4.83805 10.28382,6.10849 14.20703,5.19922 3.9232,-0.90927 6.86115,-3.72376 9.83593,-6.257811 2.84828,-2.426284 5.93512,-3.940519 8.58789,-4.169922 2.65278,-0.229403 4.8715,-1.492648 6.71485,1.227083 0.43338,0.640037 1.30379,0.807121 1.94336,0.373047 0.63882,-0.433289 0.80578,-1.302217 0.37304,-1.941406 -2.32479,-3.430084 -5.78464,-2.74541 -9.27148,-2.44388 z"
       id="path8"
       sodipodi:nodetypes="ssssscccssssscccs" />
    <path
       id="path1"
       style="stroke-width:2.309"
       d="m 69.791699,89.01002 c -6e-6,-5.603847 -4.542821,-10.146662 -10.146668,-10.146668 -5.603847,7e-6 -10.146661,4.542821 -10.146667,10.146668 v 19.57917 c 6e-6,5.60384 4.54282,10.14666 10.146667,10.14666 5.603847,0 10.146662,-4.54282 10.146668,-10.14666 z"
       sodipodi:nodetypes="csccscc" />
    <path
       id="path2"
       style="baseline-shift:baseline;display:inline;overflow:visible;opacity:1;vector-effect:none;stroke-linecap:round;enable-background:accumulate;stop-color:#000000;stop-opacity:1"
       d="m 46.781743,107.38823 a 1.3985,1.3985 0 0 0 -1.398364,1.39836 c 0,7.85986 6.401799,14.26166 14.261661,14.26166 7.85986,0 14.261662,-6.4018 14.261662,-14.26166 a 1.3985,1.3985 0 0 0 -1.398364,-1.39836 1.3985,1.3985 0 0 0 -1.398364,1.39836 c 0,6.34825 -5.116683,11.46493 -11.464934,11.46493 -6.348251,0 -11.464933,-5.11668 -11.464933,-11.46493 a 1.3985,1.3985 0 0 0 -1.398364,-1.39836 z" />
    <path
       style="fill:none;stroke:#000000;stroke-width:2.797;stroke-linecap:round;stroke-dasharray:none"
       d="M 59.645031,122.59359 V 135.504"
       id="path3" />
    <path
       style="fill:none;stroke:#000000;stroke-width:2.797;stroke-linecap:round;stroke-dasharray:none"
       d="M 66.100236,136.45715 H 53.189827"
       id="path4" />
    <g
       id="g7"
       transform="translate(-103.00942,26.264838)">
      <path
         style="fill:none;stroke:#000000;stroke-width:2.79699;stroke-linecap:round;stroke-dasharray:none"
         id="path5"
         sodipodi:type="arc"
         sodipodi:cx="120.94637"
         sodipodi:cy="77.257057"
         sodipodi:rx="14.990175"
         sodipodi:ry="14.990175"
         sodipodi:start="5.2359878"
         sodipodi:end="1.0471976"
         sodipodi:arc-type="arc"
         d="m 128.44146,64.275185 a 14.990175,14.990175 0 0 1 7.49509,12.981872 14.990175,14.990175 0 0 1 -7.49509,12.981873"
         sodipodi:open="true" />
      <path
         style="fill:none;stroke:#000000;stroke-width:2.79699;stroke-linecap:round;stroke-dasharray:none"
         id="path6"
         sodipodi:type="arc"
         sodipodi:cx="118.23386"
         sodipodi:cy="77.257057"
         sodipodi:rx="12.256856"
         sodipodi:ry="12.256856"
         sodipodi:start="5.2359878"
         sodipodi:end="1.0471976"
         sodipodi:arc-type="arc"
         d="m 124.36228,66.642309 a 12.256856,12.256856 0 0 1 6.12843,10.614748 12.256856,12.256856 0 0 1 -6.12843,10.614749"
         sodipodi:open="true" />
      <path
         style="fill:none;stroke:#000000;stroke-width:2.79699;stroke-linecap:round;stroke-dasharray:none"
         id="path7"
         sodipodi:type="arc"
         sodipodi:cx="115.13647"
         sodipodi:cy="77.257057"
         sodipodi:rx="9.3311653"
         sodipodi:ry="9.3311653"
         sodipodi:start="5.2359878"
         sodipodi:end="1.0471976"
         sodipodi:arc-type="arc"
         d="m 119.80205,69.176031 a 9.3311653,9.3311653 0 0 1 4.66558,8.081026 9.3311653,9.3311653 0 0 1 -4.66558,8.081027"
         sodipodi:open="true" />
    </g>
    <g
       id="path10"
       style="opacity:1;fill:#999999;stroke:#666666;stroke-width:0.1;stroke-dasharray:none"
       transform="translate(-4.0998771,11.787147)">
      <path
         style="baseline-shift:baseline;display:inline;overflow:visible;fill:#999999;stroke:#666666;stroke-width:0.1;stroke-linecap:round;stroke-dasharray:none;enable-background:accumulate;stop-color:#000000;stop-opacity:1"
         d="m 158.08887,91.410699 2.67256,-2.083694"
         id="path11" />
      <path
         style="baseline-shift:baseline;display:inline;overflow:visible;fill:#999999;stroke:#666666;stroke-width:0.1;stroke-linecap:round;stroke-dasharray:none;enable-background:accumulate;stop-color:#000000;stop-opacity:1"
         d="m 160.30078,88.736328 -2.67383,2.082031 a 0.75,0.75 0 0 0 -0.1289,1.052735 0.75,0.75 0 0 0 1.05273,0.130859 l 2.67188,-2.083984 a 0.75,0.75 0 0 0 0.13086,-1.052735 0.75,0.75 0 0 0 -1.05274,-0.128906 z"
         id="path12" />
    </g>
    <path
       style="baseline-shift:baseline;display:inline;overflow:visible;opacity:1;fill:#0000ff;stroke:#000000;stroke-width:0.2;stroke-linecap:round;stroke-dasharray:none;enable-background:accumulate;stop-color:#000000;stop-opacity:1"
       d="m 123.31131,94.228821 c -3.19363,0.401277 -6.79429,2.16927 -11.03906,5.785159 -5.17915,4.41181 -9.90047,4.57463 -13.496101,3.74414 -3.59562,-0.83049 -5.902333,-1.11758 -5.902333,-1.11758 -0.598755,-0.48728 -1.479093,-0.39723 -1.9668,0.20117 -0.487276,0.59875 -0.397233,1.47909 0.20117,1.9668 0,0 2.78915,0.6926 7.039063,1.67422 4.249911,0.98161 10.122731,0.61342 15.937501,-4.33985 5.33419,-4.543896 8.93283,-5.566865 11.86523,-5.113278 2.9324,0.453588 5.55585,2.560407 8.55273,5.113278 3.14151,2.67607 6.62143,4.63527 10.09961,5.08594 3.47819,0.45067 6.84649,0.24371 9.8612,-2.70352 0.43274,-0.63918 0.26578,-1.50811 -0.37304,-1.9414 -0.63957,-0.43408 -1.50998,-0.26699 -1.94336,0.37305 -2.37646,2.16073 -4.524,1.84328 -7.18542,1.49843 -2.66142,-0.34484 -5.78009,-1.99969 -8.64649,-4.4414 -3.01101,-2.564912 -6.00531,-5.139813 -9.9375,-5.74805 -0.98304,-0.152059 -2.00186,-0.170868 -3.0664,-0.03711 z"
       id="path9"
       sodipodi:nodetypes="ssscccssssscccssss" />
  </g>
</svg>
