<?xml version="1.0" encoding="UTF-8" standalone="no"?>
<!DOCTYPE svg PUBLIC "-//W3C//DTD SVG 1.1//EN"
 "http://www.w3.org/Graphics/SVG/1.1/DTD/svg11.dtd">
<!-- Generated by graphviz version 2.40.1 (20161225.0304)
 -->
<!-- Title: %3 Pages: 1 -->
<svg width="268pt" height="171pt"
 viewBox="0.00 0.00 267.83 171.00" xmlns="http://www.w3.org/2000/svg" xmlns:xlink="http://www.w3.org/1999/xlink">
<g id="graph0" class="graph" transform="scale(1 1) rotate(0) translate(4 167)">
<title>%3</title>
<polygon fill="#ffffff" stroke="transparent" points="-4,4 -4,-167 263.8311,-167 263.8311,4 -4,4"/>
<!-- G__225631 -->
<g id="node1" class="node">
<title>G__225631</title>
<ellipse fill="#000000" stroke="#000000" cx="7.8858" cy="-38" rx="1.8" ry="1.8"/>
</g>
<!-- G__225632 -->
<g id="node2" class="node">
<title>G__225632</title>
<polygon fill="none" stroke="#000000" points="80.8858,-163 .114,-145 80.8858,-127 161.6577,-145 80.8858,-163"/>
<text text-anchor="middle" x="80.8858" y="-141.3" font-family="Times,serif" font-size="14.00" fill="#000000">&lt;line&#45;items&gt;</text>
</g>
<!-- G__225632&#45;&gt;G__225631 -->
<g id="edge1" class="edge">
<title>G__225632&#45;&gt;G__225631</title>
<path fill="none" stroke="#000000" d="M64.1095,-130.4285C50.1408,-117.4463 30.6914,-97.2603 18.8858,-76 14.3576,-67.8452 11.538,-57.6479 9.8887,-49.8704"/>
<polygon fill="#000000" stroke="#000000" points="13.3058,-49.094 8.1226,-39.8537 6.4122,-50.3095 13.3058,-49.094"/>
<text text-anchor="middle" x="47.3858" y="-97.8" font-family="Times,serif" font-size="14.00" fill="#000000">L</text>
</g>
<!-- G__225633 -->
<g id="node3" class="node">
<title>G__225633</title>
<polygon fill="none" stroke="#000000" points="80.8858,-76 27.8858,-38 80.8858,0 133.8858,-38 80.8858,-76"/>
<text text-anchor="middle" x="80.8858" y="-41.8" font-family="Times,serif" font-size="14.00" fill="#000000">&lt;cart&gt;</text>
<text text-anchor="middle" x="80.8858" y="-26.8" font-family="Times,serif" font-size="14.00" fill="#000000">Top</text>
</g>
<!-- G__225632&#45;&gt;G__225633 -->
<g id="edge2" class="edge">
<title>G__225632&#45;&gt;G__225633</title>
<path fill="none" stroke="#000000" d="M80.8858,-126.8489C80.8858,-115.7178 80.8858,-100.8915 80.8858,-86.5447"/>
<polygon fill="#000000" stroke="#000000" points="84.3859,-86.2423 80.8858,-76.2423 77.3859,-86.2423 84.3859,-86.2423"/>
<text text-anchor="middle" x="84.8858" y="-97.8" font-family="Times,serif" font-size="14.00" fill="#000000">P</text>
</g>
<!-- G__225634 -->
<g id="node4" class="node">
<title>G__225634</title>
<ellipse fill="none" stroke="#000000" cx="205.8858" cy="-38" rx="53.8905" ry="18"/>
<text text-anchor="middle" x="205.8858" y="-34.3" font-family="Times,serif" font-size="14.00" fill="#000000">&lt;customer&gt;</text>
</g>
<!-- G__225632&#45;&gt;G__225634 -->
<g id="edge3" class="edge">
<title>G__225632&#45;&gt;G__225634</title>
<path fill="none" stroke="#000000" d="M97.7439,-130.5695C118.3398,-112.9394 153.4754,-82.8634 178.0925,-61.7911"/>
<polygon fill="#000000" stroke="#000000" points="180.6807,-64.1828 186.0015,-55.021 176.1286,-58.865 180.6807,-64.1828"/>
<text text-anchor="middle" x="144.8858" y="-97.8" font-family="Times,serif" font-size="14.00" fill="#000000">R</text>
</g>
</g>
</svg>
