<?xml version="1.0" encoding="UTF-8" standalone="no"?>
<!DOCTYPE svg PUBLIC "-//W3C//DTD SVG 1.1//EN"
 "http://www.w3.org/Graphics/SVG/1.1/DTD/svg11.dtd">
<!-- Generated by graphviz version 2.40.1 (20161225.0304)
 -->
<!-- Title: %3 Pages: 1 -->
<svg width="237pt" height="258pt"
 viewBox="0.00 0.00 236.80 258.00" xmlns="http://www.w3.org/2000/svg" xmlns:xlink="http://www.w3.org/1999/xlink">
<g id="graph0" class="graph" transform="scale(1 1) rotate(0) translate(4 254)">
<title>%3</title>
<polygon fill="#ffffff" stroke="transparent" points="-4,4 -4,-254 232.8,-254 232.8,4 -4,4"/>
<!-- G__235280 -->
<g id="node1" class="node">
<title>G__235280</title>
<ellipse fill="none" stroke="#000000" cx="27" cy="-145" rx="27" ry="18"/>
<text text-anchor="middle" x="27" y="-141.3" font-family="Times,serif" font-size="14.00" fill="#000000">:x</text>
</g>
<!-- G__235281 -->
<g id="node2" class="node">
<title>G__235281</title>
<polygon fill="none" stroke="#000000" points="118,-250 91,-232 118,-214 145,-232 118,-250"/>
<text text-anchor="middle" x="118" y="-228.3" font-family="Times,serif" font-size="14.00" fill="#000000">:y</text>
</g>
<!-- G__235281&#45;&gt;G__235280 -->
<g id="edge1" class="edge">
<title>G__235281&#45;&gt;G__235280</title>
<path fill="none" stroke="#000000" d="M106.8416,-221.3321C92.7222,-207.8333 68.0546,-184.25 49.864,-166.859"/>
<polygon fill="#000000" stroke="#000000" points="52.1611,-164.2129 42.5142,-159.8323 47.3238,-169.2726 52.1611,-164.2129"/>
<text text-anchor="middle" x="82.5" y="-184.8" font-family="Times,serif" font-size="14.00" fill="#000000">L</text>
</g>
<!-- G__235282 -->
<g id="node3" class="node">
<title>G__235282</title>
<polygon fill="#f0706a" stroke="#f0706a" points="118,-163 72.0842,-145 118,-127 163.9158,-145 118,-163"/>
<text text-anchor="middle" x="118" y="-141.3" font-family="Times,serif" font-size="14.00" fill="#000000">[:x :y]</text>
</g>
<!-- G__235281&#45;&gt;G__235282 -->
<g id="edge2" class="edge">
<title>G__235281&#45;&gt;G__235282</title>
<path fill="none" stroke="#000000" d="M118,-213.9735C118,-202.1918 118,-186.5607 118,-173.1581"/>
<polygon fill="#000000" stroke="#000000" points="121.5001,-173.0033 118,-163.0034 114.5001,-173.0034 121.5001,-173.0033"/>
<text text-anchor="middle" x="122" y="-184.8" font-family="Times,serif" font-size="14.00" fill="#000000">P</text>
</g>
<!-- G__235286 -->
<g id="node7" class="node">
<title>G__235286</title>
<ellipse fill="#000000" stroke="#000000" cx="184" cy="-145" rx="1.8" ry="1.8"/>
</g>
<!-- G__235281&#45;&gt;G__235286 -->
<g id="edge6" class="edge">
<title>G__235281&#45;&gt;G__235286</title>
<path fill="none" stroke="#000000" d="M128.2062,-220.1363C139.6199,-206.6603 158.4163,-183.8324 173,-163 174.6382,-160.6598 176.2994,-158.0747 177.8173,-155.6111"/>
<polygon fill="#000000" stroke="#000000" points="180.9862,-157.1268 183.0374,-146.7324 174.9519,-153.579 180.9862,-157.1268"/>
<text text-anchor="middle" x="164" y="-184.8" font-family="Times,serif" font-size="14.00" fill="#000000">R</text>
</g>
<!-- G__235283 -->
<g id="node4" class="node">
<title>G__235283</title>
<ellipse fill="#000000" stroke="#000000" cx="9" cy="-38" rx="1.8" ry="1.8"/>
</g>
<!-- G__235282&#45;&gt;G__235283 -->
<g id="edge3" class="edge">
<title>G__235282&#45;&gt;G__235283</title>
<path fill="none" stroke="#000000" d="M96.3943,-135.2303C74.0397,-124.036 39.6947,-103.6131 20,-76 14.5176,-68.3134 11.7513,-57.9245 10.3649,-49.952"/>
<polygon fill="#000000" stroke="#000000" points="13.8258,-49.4206 9.1139,-39.9313 6.8797,-50.2878 13.8258,-49.4206"/>
<text text-anchor="middle" x="57.5" y="-97.8" font-family="Times,serif" font-size="14.00" fill="#000000">L</text>
</g>
<!-- G__235284 -->
<g id="node5" class="node">
<title>G__235284</title>
<polygon fill="none" stroke="#000000" points="118,-76 29,-38 118,0 207,-38 118,-76"/>
<text text-anchor="middle" x="118" y="-41.8" font-family="Times,serif" font-size="14.00" fill="#000000">[[:x :y] [1 2]]</text>
<text text-anchor="middle" x="118" y="-26.8" font-family="Times,serif" font-size="14.00" fill="#000000">Top</text>
</g>
<!-- G__235282&#45;&gt;G__235284 -->
<g id="edge4" class="edge">
<title>G__235282&#45;&gt;G__235284</title>
<path fill="none" stroke="#000000" d="M118,-126.8489C118,-115.7178 118,-100.8915 118,-86.5447"/>
<polygon fill="#000000" stroke="#000000" points="121.5001,-86.2423 118,-76.2423 114.5001,-86.2423 121.5001,-86.2423"/>
<text text-anchor="middle" x="122" y="-97.8" font-family="Times,serif" font-size="14.00" fill="#000000">P</text>
</g>
<!-- G__235285 -->
<g id="node6" class="node">
<title>G__235285</title>
<ellipse fill="#000000" stroke="#000000" cx="227" cy="-38" rx="1.8" ry="1.8"/>
</g>
<!-- G__235282&#45;&gt;G__235285 -->
<g id="edge5" class="edge">
<title>G__235282&#45;&gt;G__235285</title>
<path fill="none" stroke="#000000" d="M139.6057,-135.2303C161.9603,-124.036 196.3053,-103.6131 216,-76 221.4824,-68.3134 224.2487,-57.9245 225.6351,-49.952"/>
<polygon fill="#000000" stroke="#000000" points="229.1203,-50.2878 226.8861,-39.9313 222.1742,-49.4206 229.1203,-50.2878"/>
<text text-anchor="middle" x="204" y="-97.8" font-family="Times,serif" font-size="14.00" fill="#000000">R</text>
</g>
</g>
</svg>
