<?xml version="1.0" encoding="UTF-8" standalone="no"?>
<!DOCTYPE svg PUBLIC "-//W3C//DTD SVG 1.1//EN"
 "http://www.w3.org/Graphics/SVG/1.1/DTD/svg11.dtd">
<!-- Generated by graphviz version 2.40.1 (20161225.0304)
 -->
<!-- Title: %3 Pages: 1 -->
<svg width="194pt" height="258pt"
 viewBox="0.00 0.00 193.80 258.00" xmlns="http://www.w3.org/2000/svg" xmlns:xlink="http://www.w3.org/1999/xlink">
<g id="graph0" class="graph" transform="scale(1 1) rotate(0) translate(4 254)">
<title>%3</title>
<polygon fill="#ffffff" stroke="transparent" points="-4,4 -4,-254 189.8,-254 189.8,4 -4,4"/>
<!-- G__233595 -->
<g id="node1" class="node">
<title>G__233595</title>
<ellipse fill="#000000" stroke="#000000" cx="14.8" cy="-145" rx="1.8" ry="1.8"/>
</g>
<!-- G__233596 -->
<g id="node2" class="node">
<title>G__233596</title>
<polygon fill="none" stroke="#000000" points="73.8,-250 46.8,-232 73.8,-214 100.8,-232 73.8,-250"/>
<text text-anchor="middle" x="73.8" y="-228.3" font-family="Times,serif" font-size="14.00" fill="#000000">1</text>
</g>
<!-- G__233596&#45;&gt;G__233595 -->
<g id="edge1" class="edge">
<title>G__233596&#45;&gt;G__233595</title>
<path fill="none" stroke="#000000" d="M64.3407,-219.5694C54.1428,-205.9698 37.6462,-183.3857 24.8,-163 23.3134,-160.6409 21.8044,-158.0484 20.4246,-155.5837"/>
<polygon fill="#000000" stroke="#000000" points="23.4849,-153.8845 15.6764,-146.7237 17.3151,-157.191 23.4849,-153.8845"/>
<text text-anchor="middle" x="52.3" y="-184.8" font-family="Times,serif" font-size="14.00" fill="#000000">L</text>
</g>
<!-- G__233597 -->
<g id="node3" class="node">
<title>G__233597</title>
<polygon fill="none" stroke="#000000" points="73.8,-163 34.2525,-145 73.8,-127 113.3475,-145 73.8,-163"/>
<text text-anchor="middle" x="73.8" y="-141.3" font-family="Times,serif" font-size="14.00" fill="#000000">[1 2]</text>
</g>
<!-- G__233596&#45;&gt;G__233597 -->
<g id="edge2" class="edge">
<title>G__233596&#45;&gt;G__233597</title>
<path fill="none" stroke="#000000" d="M73.8,-213.9735C73.8,-202.1918 73.8,-186.5607 73.8,-173.1581"/>
<polygon fill="#000000" stroke="#000000" points="77.3001,-173.0033 73.8,-163.0034 70.3001,-173.0034 77.3001,-173.0033"/>
<text text-anchor="middle" x="77.8" y="-184.8" font-family="Times,serif" font-size="14.00" fill="#000000">P</text>
</g>
<!-- G__233601 -->
<g id="node7" class="node">
<title>G__233601</title>
<ellipse fill="none" stroke="#000000" cx="158.8" cy="-145" rx="27" ry="18"/>
<text text-anchor="middle" x="158.8" y="-141.3" font-family="Times,serif" font-size="14.00" fill="#000000">2</text>
</g>
<!-- G__233596&#45;&gt;G__233601 -->
<g id="edge6" class="edge">
<title>G__233596&#45;&gt;G__233601</title>
<path fill="none" stroke="#000000" d="M84.5653,-220.9814C97.5818,-207.6587 119.8251,-184.8919 136.578,-167.7449"/>
<polygon fill="#000000" stroke="#000000" points="139.351,-169.9149 143.836,-160.3161 134.3441,-165.023 139.351,-169.9149"/>
<text text-anchor="middle" x="126.8" y="-184.8" font-family="Times,serif" font-size="14.00" fill="#000000">R</text>
</g>
<!-- G__233598 -->
<g id="node4" class="node">
<title>G__233598</title>
<ellipse fill="#000000" stroke="#000000" cx="1.8" cy="-38" rx="1.8" ry="1.8"/>
</g>
<!-- G__233597&#45;&gt;G__233598 -->
<g id="edge3" class="edge">
<title>G__233597&#45;&gt;G__233598</title>
<path fill="none" stroke="#000000" d="M60.2157,-133.1029C46.3949,-120.2986 25.2832,-98.696 12.8,-76 8.3047,-67.827 5.4831,-57.6308 3.8246,-49.8583"/>
<polygon fill="#000000" stroke="#000000" points="7.2415,-49.082 2.0413,-39.8512 .3501,-50.3101 7.2415,-49.082"/>
<text text-anchor="middle" x="41.3" y="-97.8" font-family="Times,serif" font-size="14.00" fill="#000000">L</text>
</g>
<!-- G__233599 -->
<g id="node5" class="node">
<title>G__233599</title>
<polygon fill="none" stroke="#000000" points="73.8,-76 21.8,-38 73.8,0 125.8,-38 73.8,-76"/>
<text text-anchor="middle" x="73.8" y="-41.8" font-family="Times,serif" font-size="14.00" fill="#000000">[[1 2]]</text>
<text text-anchor="middle" x="73.8" y="-26.8" font-family="Times,serif" font-size="14.00" fill="#000000">Top</text>
</g>
<!-- G__233597&#45;&gt;G__233599 -->
<g id="edge4" class="edge">
<title>G__233597&#45;&gt;G__233599</title>
<path fill="none" stroke="#000000" d="M73.8,-126.8489C73.8,-115.7178 73.8,-100.8915 73.8,-86.5447"/>
<polygon fill="#000000" stroke="#000000" points="77.3001,-86.2423 73.8,-76.2423 70.3001,-86.2423 77.3001,-86.2423"/>
<text text-anchor="middle" x="77.8" y="-97.8" font-family="Times,serif" font-size="14.00" fill="#000000">P</text>
</g>
<!-- G__233600 -->
<g id="node6" class="node">
<title>G__233600</title>
<ellipse fill="#000000" stroke="#000000" cx="145.8" cy="-38" rx="1.8" ry="1.8"/>
</g>
<!-- G__233597&#45;&gt;G__233600 -->
<g id="edge5" class="edge">
<title>G__233597&#45;&gt;G__233600</title>
<path fill="none" stroke="#000000" d="M87.3843,-133.1029C101.2051,-120.2986 122.3168,-98.696 134.8,-76 139.2953,-67.827 142.1169,-57.6308 143.7754,-49.8583"/>
<polygon fill="#000000" stroke="#000000" points="147.2499,-50.3101 145.5587,-39.8512 140.3585,-49.082 147.2499,-50.3101"/>
<text text-anchor="middle" x="127.8" y="-97.8" font-family="Times,serif" font-size="14.00" fill="#000000">R</text>
</g>
</g>
</svg>
