<?xml version="1.0" encoding="UTF-8" standalone="no"?>
<!DOCTYPE svg PUBLIC "-//W3C//DTD SVG 1.1//EN"
 "http://www.w3.org/Graphics/SVG/1.1/DTD/svg11.dtd">
<!-- Generated by graphviz version 2.40.1 (20161225.0304)
 -->
<!-- Title: %3 Pages: 1 -->
<svg width="477pt" height="418pt"
 viewBox="0.00 0.00 476.76 418.17" xmlns="http://www.w3.org/2000/svg" xmlns:xlink="http://www.w3.org/1999/xlink">
<g id="graph0" class="graph" transform="scale(1 1) rotate(0) translate(4 414.1665)">
<title>%3</title>
<polygon fill="#ffffff" stroke="transparent" points="-4,4 -4,-414.1665 472.7645,-414.1665 472.7645,4 -4,4"/>
<!-- G__31056 -->
<g id="node1" class="node">
<title>G__31056</title>
<ellipse fill="none" stroke="#000000" cx="62.2254" cy="-175.0833" rx="62.4516" ry="48.1667"/>
<text text-anchor="middle" x="62.2254" y="-193.8833" font-family="Times,serif" font-size="14.00" fill="#000000">&lt;product</text>
<text text-anchor="middle" x="62.2254" y="-178.8833" font-family="Times,serif" font-size="14.00" fill="#000000"> price=2.5</text>
<text text-anchor="middle" x="62.2254" y="-163.8833" font-family="Times,serif" font-size="14.00" fill="#000000"> qty=1</text>
<text text-anchor="middle" x="62.2254" y="-148.8833" font-family="Times,serif" font-size="14.00" fill="#000000"> sku=CH56&gt;</text>
</g>
<!-- G__31057 -->
<g id="node2" class="node">
<title>G__31057</title>
<polygon fill="none" stroke="#000000" points="223.2254,-410.1665 135.2254,-342.1665 223.2254,-274.1665 311.2254,-342.1665 223.2254,-410.1665"/>
<text text-anchor="middle" x="223.2254" y="-360.9665" font-family="Times,serif" font-size="14.00" fill="#000000">&lt;product</text>
<text text-anchor="middle" x="223.2254" y="-345.9665" font-family="Times,serif" font-size="14.00" fill="#000000"> price=1.7</text>
<text text-anchor="middle" x="223.2254" y="-330.9665" font-family="Times,serif" font-size="14.00" fill="#000000"> qty=1</text>
<text text-anchor="middle" x="223.2254" y="-315.9665" font-family="Times,serif" font-size="14.00" fill="#000000"> sku=CA94&gt;</text>
</g>
<!-- G__31057&#45;&gt;G__31056 -->
<g id="edge1" class="edge">
<title>G__31057&#45;&gt;G__31056</title>
<path fill="none" stroke="#000000" d="M185.478,-302.9929C161.8767,-278.4998 131.3685,-246.8389 106.61,-221.1449"/>
<polygon fill="#000000" stroke="#000000" points="108.9174,-218.4954 99.4583,-213.723 103.8767,-223.3525 108.9174,-218.4954"/>
<text text-anchor="middle" x="142.7254" y="-244.9665" font-family="Times,serif" font-size="14.00" fill="#000000">L</text>
</g>
<!-- G__31058 -->
<g id="node3" class="node">
<title>G__31058</title>
<polygon fill="none" stroke="#000000" points="223.2254,-193.0833 142.4536,-175.0833 223.2254,-157.0833 303.9972,-175.0833 223.2254,-193.0833"/>
<text text-anchor="middle" x="223.2254" y="-171.3833" font-family="Times,serif" font-size="14.00" fill="#000000">&lt;line&#45;items&gt;</text>
</g>
<!-- G__31057&#45;&gt;G__31058 -->
<g id="edge2" class="edge">
<title>G__31057&#45;&gt;G__31058</title>
<path fill="none" stroke="#000000" d="M223.2254,-273.7253C223.2254,-249.2023 223.2254,-222.8837 223.2254,-203.6047"/>
<polygon fill="#000000" stroke="#000000" points="226.7255,-203.4045 223.2254,-193.4045 219.7255,-203.4046 226.7255,-203.4045"/>
<text text-anchor="middle" x="227.2254" y="-244.9665" font-family="Times,serif" font-size="14.00" fill="#000000">P</text>
</g>
<!-- G__31062 -->
<g id="node7" class="node">
<title>G__31062</title>
<ellipse fill="none" stroke="#000000" cx="395.2254" cy="-175.0833" rx="73.5782" ry="26.7407"/>
<text text-anchor="middle" x="395.2254" y="-178.8833" font-family="Times,serif" font-size="14.00" fill="#000000">&lt;discount</text>
<text text-anchor="middle" x="395.2254" y="-163.8833" font-family="Times,serif" font-size="14.00" fill="#000000"> amount=10%&gt;</text>
</g>
<!-- G__31057&#45;&gt;G__31062 -->
<g id="edge6" class="edge">
<title>G__31057&#45;&gt;G__31062</title>
<path fill="none" stroke="#000000" d="M262.2549,-304.2527C292.2799,-275.086 333.3236,-235.2156 361.8367,-207.5175"/>
<polygon fill="#000000" stroke="#000000" points="364.4295,-209.8784 369.1636,-200.4 359.552,-204.8574 364.4295,-209.8784"/>
<text text-anchor="middle" x="330.2254" y="-244.9665" font-family="Times,serif" font-size="14.00" fill="#000000">R</text>
</g>
<!-- G__31059 -->
<g id="node4" class="node">
<title>G__31059</title>
<ellipse fill="#000000" stroke="#000000" cx="150.2254" cy="-38" rx="1.8" ry="1.8"/>
</g>
<!-- G__31058&#45;&gt;G__31059 -->
<g id="edge3" class="edge">
<title>G__31058&#45;&gt;G__31059</title>
<path fill="none" stroke="#000000" d="M211.4605,-159.378C197.7594,-140.46 175.2231,-107.3068 161.2254,-76 157.4181,-67.4847 154.5545,-57.3094 152.7049,-49.632"/>
<polygon fill="#000000" stroke="#000000" points="156.1121,-48.8285 150.5619,-39.8038 149.2728,-50.3199 156.1121,-48.8285"/>
<text text-anchor="middle" x="182.7254" y="-97.8" font-family="Times,serif" font-size="14.00" fill="#000000">L</text>
</g>
<!-- G__31060 -->
<g id="node5" class="node">
<title>G__31060</title>
<polygon fill="none" stroke="#000000" points="223.2254,-76 170.2254,-38 223.2254,0 276.2254,-38 223.2254,-76"/>
<text text-anchor="middle" x="223.2254" y="-41.8" font-family="Times,serif" font-size="14.00" fill="#000000">&lt;cart&gt;</text>
<text text-anchor="middle" x="223.2254" y="-26.8" font-family="Times,serif" font-size="14.00" fill="#000000">Top</text>
</g>
<!-- G__31058&#45;&gt;G__31060 -->
<g id="edge4" class="edge">
<title>G__31058&#45;&gt;G__31060</title>
<path fill="none" stroke="#000000" d="M223.2254,-156.8797C223.2254,-138.9724 223.2254,-110.8486 223.2254,-86.4505"/>
<polygon fill="#000000" stroke="#000000" points="226.7255,-86.2629 223.2254,-76.2629 219.7255,-86.2629 226.7255,-86.2629"/>
<text text-anchor="middle" x="227.2254" y="-97.8" font-family="Times,serif" font-size="14.00" fill="#000000">P</text>
</g>
<!-- G__31061 -->
<g id="node6" class="node">
<title>G__31061</title>
<ellipse fill="none" stroke="#000000" cx="348.2254" cy="-38" rx="53.8905" ry="18"/>
<text text-anchor="middle" x="348.2254" y="-34.3" font-family="Times,serif" font-size="14.00" fill="#000000">&lt;customer&gt;</text>
</g>
<!-- G__31058&#45;&gt;G__31061 -->
<g id="edge5" class="edge">
<title>G__31058&#45;&gt;G__31061</title>
<path fill="none" stroke="#000000" d="M237.0802,-159.8892C258.4619,-136.4406 299.7219,-91.1921 325.512,-62.909"/>
<polygon fill="#000000" stroke="#000000" points="328.1948,-65.1614 332.3465,-55.4139 323.0223,-60.4448 328.1948,-65.1614"/>
<text text-anchor="middle" x="302.2254" y="-97.8" font-family="Times,serif" font-size="14.00" fill="#000000">R</text>
</g>
</g>
</svg>
