<?xml version="1.0" encoding="UTF-8" standalone="no"?>
<!DOCTYPE svg PUBLIC "-//W3C//DTD SVG 1.1//EN"
 "http://www.w3.org/Graphics/SVG/1.1/DTD/svg11.dtd">
<!-- Generated by graphviz version 2.40.1 (20161225.0304)
 -->
<!-- Title: %3 Pages: 1 -->
<svg width="333pt" height="258pt"
 viewBox="0.00 0.00 332.95 258.00" xmlns="http://www.w3.org/2000/svg" xmlns:xlink="http://www.w3.org/1999/xlink">
<g id="graph0" class="graph" transform="scale(1 1) rotate(0) translate(4 254)">
<title>%3</title>
<polygon fill="#ffffff" stroke="transparent" points="-4,4 -4,-254 328.9475,-254 328.9475,4 -4,4"/>
<!-- G__216897 -->
<g id="node1" class="node">
<title>G__216897</title>
<ellipse fill="none" stroke="#000000" cx="73.9475" cy="-145" rx="27" ry="18"/>
<text text-anchor="middle" x="73.9475" y="-141.3" font-family="Times,serif" font-size="14.00" fill="#000000">3</text>
</g>
<!-- G__216898 -->
<g id="node2" class="node">
<title>G__216898</title>
<polygon fill="#f0706a" stroke="#f0706a" points="185.9475,-250 133.6634,-232 185.9475,-214 238.2317,-232 185.9475,-250"/>
<text text-anchor="middle" x="185.9475" y="-228.3" font-family="Times,serif" font-size="14.00" fill="#000000">[4 5 :x]</text>
</g>
<!-- G__216898&#45;&gt;G__216897 -->
<g id="edge1" class="edge">
<title>G__216898&#45;&gt;G__216897</title>
<path fill="none" stroke="#000000" d="M169.4215,-219.1629C151.0499,-204.892 121.1457,-181.6629 99.6988,-165.0032"/>
<polygon fill="#000000" stroke="#000000" points="101.6962,-162.1229 91.6518,-158.7524 97.402,-167.651 101.6962,-162.1229"/>
<text text-anchor="middle" x="141.4475" y="-184.8" font-family="Times,serif" font-size="14.00" fill="#000000">L</text>
</g>
<!-- G__216899 -->
<g id="node3" class="node">
<title>G__216899</title>
<polygon fill="none" stroke="#000000" points="185.9475,-163 118.7504,-145 185.9475,-127 253.1446,-145 185.9475,-163"/>
<text text-anchor="middle" x="185.9475" y="-141.3" font-family="Times,serif" font-size="14.00" fill="#000000">[3 [4 5] 6]</text>
</g>
<!-- G__216898&#45;&gt;G__216899 -->
<g id="edge2" class="edge">
<title>G__216898&#45;&gt;G__216899</title>
<path fill="none" stroke="#000000" d="M185.9475,-213.9735C185.9475,-202.1918 185.9475,-186.5607 185.9475,-173.1581"/>
<polygon fill="#000000" stroke="#000000" points="189.4476,-173.0033 185.9475,-163.0034 182.4476,-173.0034 189.4476,-173.0033"/>
<text text-anchor="middle" x="189.9475" y="-184.8" font-family="Times,serif" font-size="14.00" fill="#000000">P</text>
</g>
<!-- G__216903 -->
<g id="node7" class="node">
<title>G__216903</title>
<ellipse fill="none" stroke="#000000" cx="297.9475" cy="-145" rx="27" ry="18"/>
<text text-anchor="middle" x="297.9475" y="-141.3" font-family="Times,serif" font-size="14.00" fill="#000000">6</text>
</g>
<!-- G__216898&#45;&gt;G__216903 -->
<g id="edge6" class="edge">
<title>G__216898&#45;&gt;G__216903</title>
<path fill="none" stroke="#000000" d="M202.4735,-219.1629C220.8451,-204.892 250.7493,-181.6629 272.1963,-165.0032"/>
<polygon fill="#000000" stroke="#000000" points="274.493,-167.651 280.2433,-158.7524 270.1989,-162.1229 274.493,-167.651"/>
<text text-anchor="middle" x="253.9475" y="-184.8" font-family="Times,serif" font-size="14.00" fill="#000000">R</text>
</g>
<!-- G__216900 -->
<g id="node4" class="node">
<title>G__216900</title>
<ellipse fill="none" stroke="#000000" cx="27.9475" cy="-38" rx="27.8951" ry="18"/>
<text text-anchor="middle" x="27.9475" y="-34.3" font-family="Times,serif" font-size="14.00" fill="#000000">[1 2]</text>
</g>
<!-- G__216899&#45;&gt;G__216900 -->
<g id="edge3" class="edge">
<title>G__216899&#45;&gt;G__216900</title>
<path fill="none" stroke="#000000" d="M161.0473,-133.3889C135.6602,-120.9734 95.7408,-99.8246 64.9475,-76 59.2716,-71.6086 53.6223,-66.3689 48.5094,-61.2046"/>
<polygon fill="#000000" stroke="#000000" points="50.8913,-58.6305 41.4618,-53.7997 45.8207,-63.4564 50.8913,-58.6305"/>
<text text-anchor="middle" x="117.4475" y="-97.8" font-family="Times,serif" font-size="14.00" fill="#000000">L</text>
</g>
<!-- G__216901 -->
<g id="node5" class="node">
<title>G__216901</title>
<polygon fill="none" stroke="#000000" points="185.9475,-76 73.9475,-38 185.9475,0 297.9475,-38 185.9475,-76"/>
<text text-anchor="middle" x="185.9475" y="-41.8" font-family="Times,serif" font-size="14.00" fill="#000000">[[1 2] [3 [4 5] 6]]</text>
<text text-anchor="middle" x="185.9475" y="-26.8" font-family="Times,serif" font-size="14.00" fill="#000000">Top</text>
</g>
<!-- G__216899&#45;&gt;G__216901 -->
<g id="edge4" class="edge">
<title>G__216899&#45;&gt;G__216901</title>
<path fill="none" stroke="#000000" d="M185.9475,-126.8489C185.9475,-115.7178 185.9475,-100.8915 185.9475,-86.5447"/>
<polygon fill="#000000" stroke="#000000" points="189.4476,-86.2423 185.9475,-76.2423 182.4476,-86.2423 189.4476,-86.2423"/>
<text text-anchor="middle" x="189.9475" y="-97.8" font-family="Times,serif" font-size="14.00" fill="#000000">P</text>
</g>
<!-- G__216902 -->
<g id="node6" class="node">
<title>G__216902</title>
<ellipse fill="#000000" stroke="#000000" cx="317.9475" cy="-38" rx="1.8" ry="1.8"/>
</g>
<!-- G__216899&#45;&gt;G__216902 -->
<g id="edge5" class="edge">
<title>G__216899&#45;&gt;G__216902</title>
<path fill="none" stroke="#000000" d="M216.4926,-135.1054C244.0346,-124.6526 283.68,-105.5409 306.9475,-76 312.7895,-68.5829 315.5292,-58.1741 316.8139,-50.1253"/>
<polygon fill="#000000" stroke="#000000" points="320.3169,-50.2795 317.8828,-39.9681 313.3554,-49.5468 320.3169,-50.2795"/>
<text text-anchor="middle" x="293.9475" y="-97.8" font-family="Times,serif" font-size="14.00" fill="#000000">R</text>
</g>
</g>
</svg>
