<?xml version="1.0" encoding="UTF-8" standalone="no"?>
<!DOCTYPE svg PUBLIC "-//W3C//DTD SVG 1.1//EN"
 "http://www.w3.org/Graphics/SVG/1.1/DTD/svg11.dtd">
<!-- Generated by graphviz version 2.40.1 (20161225.0304)
 -->
<!-- Title: %3 Pages: 1 -->
<svg width="134pt" height="188pt"
 viewBox="0.00 0.00 134.00 188.00" xmlns="http://www.w3.org/2000/svg" xmlns:xlink="http://www.w3.org/1999/xlink">
<g id="graph0" class="graph" transform="scale(1 1) rotate(0) translate(4 184)">
<title>%3</title>
<polygon fill="#ffffff" stroke="transparent" points="-4,4 -4,-184 130,-184 130,4 -4,4"/>
<!-- G__46395 -->
<g id="node1" class="node">
<title>G__46395</title>
<ellipse fill="none" stroke="#000000" cx="27" cy="-18" rx="27" ry="18"/>
<text text-anchor="middle" x="27" y="-14.3" font-family="Times,serif" font-size="14.00" fill="#000000">:x</text>
</g>
<!-- G__46394 -->
<g id="node4" class="node">
<title>G__46394</title>
<ellipse fill="#3388ff" stroke="#3388ff" cx="99" cy="-18" rx="27" ry="18"/>
<text text-anchor="middle" x="99" y="-14.3" font-family="Times,serif" font-size="14.00" fill="#000000">:y</text>
</g>
<!-- G__46395&#45;&#45;G__46394 -->
<!-- G__46396 -->
<g id="node2" class="node">
<title>G__46396</title>
<ellipse fill="none" stroke="#000000" cx="63" cy="-90" rx="32.4942" ry="18"/>
<text text-anchor="middle" x="63" y="-86.3" font-family="Times,serif" font-size="14.00" fill="#000000">[:x :y]</text>
</g>
<!-- G__46396&#45;&#45;G__46395 -->
<g id="edge1" class="edge">
<title>G__46396&#45;&#45;G__46395</title>
<path fill="none" stroke="#000000" d="M54.2854,-72.5708C48.6253,-61.2506 41.2784,-46.5568 35.6343,-35.2687"/>
</g>
<!-- G__46396&#45;&#45;G__46394 -->
<g id="edge3" class="edge">
<title>G__46396&#45;&#45;G__46394</title>
<path fill="none" stroke="#000000" d="M71.7146,-72.5708C77.3747,-61.2506 84.7216,-46.5568 90.3657,-35.2687"/>
</g>
<!-- G__46397 -->
<g id="node3" class="node">
<title>G__46397</title>
<ellipse fill="none" stroke="#000000" cx="63" cy="-162" rx="38.1938" ry="18"/>
<text text-anchor="middle" x="63" y="-158.3" font-family="Times,serif" font-size="14.00" fill="#000000">[[:x :y]]</text>
</g>
<!-- G__46397&#45;&#45;G__46396 -->
<g id="edge2" class="edge">
<title>G__46397&#45;&#45;G__46396</title>
<path fill="none" stroke="#000000" d="M63,-143.8314C63,-133 63,-119.2876 63,-108.4133"/>
</g>
</g>
</svg>
