<?xml version="1.0" encoding="UTF-8" standalone="no"?>
<!DOCTYPE svg PUBLIC "-//W3C//DTD SVG 1.1//EN"
 "http://www.w3.org/Graphics/SVG/1.1/DTD/svg11.dtd">
<!-- Generated by graphviz version 2.40.1 (20161225.0304)
 -->
<!-- Title: %3 Pages: 1 -->
<svg width="383pt" height="258pt"
 viewBox="0.00 0.00 383.29 258.00" xmlns="http://www.w3.org/2000/svg" xmlns:xlink="http://www.w3.org/1999/xlink">
<g id="graph0" class="graph" transform="scale(1 1) rotate(0) translate(4 254)">
<title>%3</title>
<polygon fill="#ffffff" stroke="transparent" points="-4,4 -4,-254 379.2907,-254 379.2907,4 -4,4"/>
<!-- G__40195 -->
<g id="node1" class="node">
<title>G__40195</title>
<ellipse fill="#000000" stroke="#000000" cx="89.1949" cy="-145" rx="1.8" ry="1.8"/>
</g>
<!-- G__40196 -->
<g id="node2" class="node">
<title>G__40196</title>
<polygon fill="none" stroke="#000000" points="185.1949,-250 127.381,-232 185.1949,-214 243.0089,-232 185.1949,-250"/>
<text text-anchor="middle" x="185.1949" y="-228.3" font-family="Times,serif" font-size="14.00" fill="#000000">&lt;name&gt;</text>
</g>
<!-- G__40196&#45;&gt;G__40195 -->
<g id="edge1" class="edge">
<title>G__40196&#45;&gt;G__40195</title>
<path fill="none" stroke="#000000" d="M166.4031,-219.5849C148.0638,-206.8542 120.0936,-185.7456 100.1949,-163 98.2417,-160.7673 96.4232,-158.1455 94.8498,-155.6042"/>
<polygon fill="#000000" stroke="#000000" points="97.9149,-153.9142 90.0456,-146.8202 91.7734,-157.2732 97.9149,-153.9142"/>
<text text-anchor="middle" x="139.6949" y="-184.8" font-family="Times,serif" font-size="14.00" fill="#000000">L</text>
</g>
<!-- G__40197 -->
<g id="node3" class="node">
<title>G__40197</title>
<polygon fill="none" stroke="#000000" points="185.1949,-163 109.1142,-145 185.1949,-127 261.2756,-145 185.1949,-163"/>
<text text-anchor="middle" x="185.1949" y="-141.3" font-family="Times,serif" font-size="14.00" fill="#000000">&lt;customer&gt;</text>
</g>
<!-- G__40196&#45;&gt;G__40197 -->
<g id="edge2" class="edge">
<title>G__40196&#45;&gt;G__40197</title>
<path fill="none" stroke="#000000" d="M185.1949,-213.9735C185.1949,-202.1918 185.1949,-186.5607 185.1949,-173.1581"/>
<polygon fill="#000000" stroke="#000000" points="188.695,-173.0033 185.1949,-163.0034 181.695,-173.0034 188.695,-173.0033"/>
<text text-anchor="middle" x="189.1949" y="-184.8" font-family="Times,serif" font-size="14.00" fill="#000000">P</text>
</g>
<!-- G__40201 -->
<g id="node7" class="node">
<title>G__40201</title>
<ellipse fill="none" stroke="#000000" cx="327.1949" cy="-145" rx="48.1917" ry="18"/>
<text text-anchor="middle" x="327.1949" y="-141.3" font-family="Times,serif" font-size="14.00" fill="#000000">&lt;address&gt;</text>
</g>
<!-- G__40196&#45;&gt;G__40201 -->
<g id="edge6" class="edge">
<title>G__40196&#45;&gt;G__40201</title>
<path fill="none" stroke="#000000" d="M204.9394,-219.903C227.7692,-205.9158 265.7381,-182.6531 293.3139,-165.7581"/>
<polygon fill="#000000" stroke="#000000" points="295.1712,-168.7249 301.8696,-160.5162 291.5142,-162.7561 295.1712,-168.7249"/>
<text text-anchor="middle" x="270.1949" y="-184.8" font-family="Times,serif" font-size="14.00" fill="#000000">R</text>
</g>
<!-- G__40198 -->
<g id="node4" class="node">
<title>G__40198</title>
<ellipse fill="none" stroke="#000000" cx="57.1949" cy="-38" rx="57.3905" ry="18"/>
<text text-anchor="middle" x="57.1949" y="-34.3" font-family="Times,serif" font-size="14.00" fill="#000000">&lt;line&#45;items&gt;</text>
</g>
<!-- G__40197&#45;&gt;G__40198 -->
<g id="edge3" class="edge">
<title>G__40197&#45;&gt;G__40198</title>
<path fill="none" stroke="#000000" d="M168.1975,-130.7912C147.0884,-113.1453 110.7751,-82.7897 85.4519,-61.6211"/>
<polygon fill="#000000" stroke="#000000" points="87.5666,-58.827 77.6495,-55.0987 83.0771,-64.1977 87.5666,-58.827"/>
<text text-anchor="middle" x="144.6949" y="-97.8" font-family="Times,serif" font-size="14.00" fill="#000000">L</text>
</g>
<!-- G__40199 -->
<g id="node5" class="node">
<title>G__40199</title>
<polygon fill="none" stroke="#000000" points="185.1949,-76 132.1949,-38 185.1949,0 238.1949,-38 185.1949,-76"/>
<text text-anchor="middle" x="185.1949" y="-41.8" font-family="Times,serif" font-size="14.00" fill="#000000">&lt;cart&gt;</text>
<text text-anchor="middle" x="185.1949" y="-26.8" font-family="Times,serif" font-size="14.00" fill="#000000">Top</text>
</g>
<!-- G__40197&#45;&gt;G__40199 -->
<g id="edge4" class="edge">
<title>G__40197&#45;&gt;G__40199</title>
<path fill="none" stroke="#000000" d="M185.1949,-126.8489C185.1949,-115.7178 185.1949,-100.8915 185.1949,-86.5447"/>
<polygon fill="#000000" stroke="#000000" points="188.695,-86.2423 185.1949,-76.2423 181.695,-86.2423 188.695,-86.2423"/>
<text text-anchor="middle" x="189.1949" y="-97.8" font-family="Times,serif" font-size="14.00" fill="#000000">P</text>
</g>
<!-- G__40200 -->
<g id="node6" class="node">
<title>G__40200</title>
<ellipse fill="#000000" stroke="#000000" cx="258.1949" cy="-38" rx="1.8" ry="1.8"/>
</g>
<!-- G__40197&#45;&gt;G__40200 -->
<g id="edge5" class="edge">
<title>G__40197&#45;&gt;G__40200</title>
<path fill="none" stroke="#000000" d="M201.6945,-130.6855C215.682,-117.7136 235.3112,-97.4011 247.1949,-76 251.7232,-67.8452 254.5427,-57.6479 256.1921,-49.8704"/>
<polygon fill="#000000" stroke="#000000" points="259.6686,-50.3095 257.9582,-39.8537 252.7749,-49.094 259.6686,-50.3095"/>
<text text-anchor="middle" x="240.1949" y="-97.8" font-family="Times,serif" font-size="14.00" fill="#000000">R</text>
</g>
</g>
</svg>
